<svg xmlns="http://www.w3.org/2000/svg" width="33.00em" height="28.25em">
 <style>svg {
  dominant-baseline: hanging;
  font-size: 1rem;
}
</style>
 <g shape-rendering="crispEdges">
  <rect x="0.00em" y="0.00em" width="33.00em" height="28.25em" fill="#000000" />
  <rect x="0.00em" y="0.00em" width="33.00em" height="1.13em" fill="#000000" />
  <rect x="0.00em" y="1.13em" width="33.00em" height="1.13em" fill="#000000" />
  <rect x="0.00em" y="2.26em" width="33.00em" height="1.13em" fill="#000000" />
  <rect x="0.00em" y="3.39em" width="33.00em" height="1.13em" fill="#000000" />
  <rect x="0.00em" y="4.52em" width="33.00em" height="1.13em" fill="#000000" />
  <rect x="0.00em" y="5.65em" width="33.00em" height="1.13em" fill="#000000" />
  <rect x="0.00em" y="6.78em" width="33.00em" height="1.13em" fill="#000000" />
  <rect x="0.00em" y="7.91em" width="33.00em" height="1.13em" fill="#000000" />
  <rect x="0.00em" y="9.04em" width="33.00em" height="1.13em" fill="#000000" />
  <rect x="0.00em" y="10.17em" width="33.00em" height="1.13em" fill="#000000" />
  <rect x="0.00em" y="11.30em" width="33.00em" height="1.13em" fill="#000000" />
  <rect x="0.00em" y="12.43em" width="33.00em" height="1.13em" fill="#000000" />
  <rect x="0.00em" y="13.56em" width="33.00em" height="1.13em" fill="#000000" />
  <rect x="0.00em" y="14.69em" width="33.00em" height="1.13em" fill="#000000" />
  <rect x="0.00em" y="15.82em" width="33.00em" height="1.13em" fill="#000000" />
  <rect x="0.00em" y="16.95em" width="33.00em" height="1.13em" fill="#000000" />
  <rect x="0.00em" y="18.08em" width="33.00em" height="1.13em" fill="#000000" />
  <rect x="0.00em" y="19.21em" width="33.00em" height="1.13em" fill="#000000" />
  <rect x="0.00em" y="20.34em" width="33.00em" height="1.13em" fill="#000000" />
  <rect x="0.00em" y="21.47em" width="33.00em" height="1.13em" fill="#000000" />
  <rect x="0.00em" y="22.60em" width="33.00em" height="1.13em" fill="#000000" />
  <rect x="0.00em" y="23.73em" width="33.00em" height="1.13em" fill="#000000" />
  <rect x="0.00em" y="24.86em" width="33.00em" height="1.13em" fill="#000000" />
  <rect x="0.00em" y="25.99em" width="33.00em" height="1.13em" fill="#000000" />
  <rect x="0.00em" y="27.12em" width="33.00em" height="1.13em" fill="#000000" />
 </g>
 <text fill="#ffffff" font-family="monospace">
  <tspan y="0.00em">
   <tspan x="0.00em">┏</tspan>
   <tspan x="0.55em">━</tspan>
   <tspan x="1.10em">━</tspan>
   <tspan x="1.65em">━</tspan>
   <tspan x="2.20em">━</tspan>
   <tspan x="2.75em">━</tspan>
   <tspan x="3.30em">━</tspan>
   <tspan x="3.85em">━</tspan>
   <tspan x="4.40em">━</tspan>
   <tspan x="4.95em">━</tspan>
   <tspan x="5.50em">━</tspan>
   <tspan x="6.05em">━</tspan>
   <tspan x="6.60em">━</tspan>
   <tspan x="7.15em">━</tspan>
   <tspan x="7.70em">━</tspan>
   <tspan x="8.25em">━</tspan>
   <tspan x="8.80em">━</tspan>
   <tspan x="9.35em">━</tspan>
   <tspan x="9.90em">━</tspan>
   <tspan x="10.45em">━</tspan>
   <tspan x="11.00em">━</tspan>
   <tspan x="11.55em">━</tspan>
   <tspan x="12.10em">━</tspan>
   <tspan x="12.65em">━</tspan>
   <tspan x="13.20em">━</tspan>
   <tspan x="13.75em">━</tspan>
   <tspan x="14.30em">━</tspan>
   <tspan x="14.85em">━</tspan>
   <tspan x="15.40em">━</tspan>
   <tspan x="15.95em">━</tspan>
   <tspan x="16.50em">━</tspan>
   <tspan x="17.05em">━</tspan>
   <tspan x="17.60em">━</tspan>
   <tspan x="18.15em">━</tspan>
   <tspan x="18.70em">━</tspan>
   <tspan x="19.25em">━</tspan>
   <tspan x="19.80em">━</tspan>
   <tspan x="20.35em">━</tspan>
   <tspan x="20.90em">━</tspan>
   <tspan x="21.45em">━</tspan>
   <tspan x="22.00em">━</tspan>
   <tspan x="22.55em">━</tspan>
   <tspan x="23.10em">━</tspan>
   <tspan x="23.65em">━</tspan>
   <tspan x="24.20em">━</tspan>
   <tspan x="24.75em">━</tspan>
   <tspan x="25.30em">━</tspan>
   <tspan x="25.85em">━</tspan>
   <tspan x="26.40em">━</tspan>
   <tspan x="26.95em">━</tspan>
   <tspan x="27.50em">━</tspan>
   <tspan x="28.05em">━</tspan>
   <tspan x="28.60em">━</tspan>
   <tspan x="29.15em">━</tspan>
   <tspan x="29.70em">━</tspan>
   <tspan x="30.25em">━</tspan>
   <tspan x="30.80em">━</tspan>
   <tspan x="31.35em">━</tspan>
   <tspan x="31.90em">━</tspan>
   <tspan x="32.45em">┓</tspan>
  </tspan>
  <tspan y="1.13em">
   <tspan x="0.00em">┃</tspan>
   <tspan x="0.55em">i</tspan>
   <tspan x="1.10em">n</tspan>
   <tspan x="1.65em">s</tspan>
   <tspan x="2.20em">e</tspan>
   <tspan x="2.75em">t</tspan>
   <tspan x="3.30em">_</tspan>
   <tspan x="3.85em">t</tspan>
   <tspan x="4.40em">o</tspan>
   <tspan x="4.95em">p</tspan>
   <tspan x="5.50em">_</tspan>
   <tspan x="6.05em">l</tspan>
   <tspan x="6.60em">e</tspan>
   <tspan x="7.15em">f</tspan>
   <tspan x="7.70em">t</tspan>
   <tspan x="12.10em">i</tspan>
   <tspan x="12.65em">n</tspan>
   <tspan x="13.20em">s</tspan>
   <tspan x="13.75em">e</tspan>
   <tspan x="14.30em">t</tspan>
   <tspan x="14.85em">_</tspan>
   <tspan x="15.40em">t</tspan>
   <tspan x="15.95em">o</tspan>
   <tspan x="16.50em">p</tspan>
   <tspan x="17.05em">_</tspan>
   <tspan x="17.60em">c</tspan>
   <tspan x="18.15em">e</tspan>
   <tspan x="18.70em">n</tspan>
   <tspan x="19.25em">t</tspan>
   <tspan x="19.80em">e</tspan>
   <tspan x="20.35em">r</tspan>
   <tspan x="24.20em">i</tspan>
   <tspan x="24.75em">n</tspan>
   <tspan x="25.30em">s</tspan>
   <tspan x="25.85em">e</tspan>
   <tspan x="26.40em">t</tspan>
   <tspan x="26.95em">_</tspan>
   <tspan x="27.50em">t</tspan>
   <tspan x="28.05em">o</tspan>
   <tspan x="28.60em">p</tspan>
   <tspan x="29.15em">_</tspan>
   <tspan x="29.70em">r</tspan>
   <tspan x="30.25em">i</tspan>
   <tspan x="30.80em">g</tspan>
   <tspan x="31.35em">h</tspan>
   <tspan x="31.90em">t</tspan>
   <tspan x="32.45em">┃</tspan>
  </tspan>
  <tspan y="2.26em">
   <tspan x="0.00em">┃</tspan>
   <tspan x="32.45em">┃</tspan>
  </tspan>
  <tspan y="3.39em">
   <tspan x="0.00em">┃</tspan>
   <tspan x="32.45em">┃</tspan>
  </tspan>
  <tspan y="4.52em">
   <tspan x="0.00em">┃</tspan>
   <tspan x="2.20em">i</tspan>
   <tspan x="2.75em">n</tspan>
   <tspan x="3.30em">s</tspan>
   <tspan x="3.85em">e</tspan>
   <tspan x="4.40em">t</tspan>
   <tspan x="4.95em">_</tspan>
   <tspan x="5.50em">t</tspan>
   <tspan x="6.05em">o</tspan>
   <tspan x="6.60em">p</tspan>
   <tspan x="7.15em">_</tspan>
   <tspan x="7.70em">l</tspan>
   <tspan x="8.25em">e</tspan>
   <tspan x="8.80em">f</tspan>
   <tspan x="9.35em">t</tspan>
   <tspan x="10.45em">|</tspan>
   <tspan x="11.55em">a</tspan>
   <tspan x="12.10em">b</tspan>
   <tspan x="12.65em">s</tspan>
   <tspan x="13.20em">o</tspan>
   <tspan x="13.75em">l</tspan>
   <tspan x="14.30em">u</tspan>
   <tspan x="14.85em">t</tspan>
   <tspan x="15.40em">e</tspan>
   <tspan x="15.95em">(</tspan>
   <tspan x="16.50em">x</tspan>
   <tspan x="17.05em">=</tspan>
   <tspan x="17.60em">3</tspan>
   <tspan x="18.15em">,</tspan>
   <tspan x="19.25em">y</tspan>
   <tspan x="19.80em">=</tspan>
   <tspan x="20.35em">3</tspan>
   <tspan x="20.90em">)</tspan>
   <tspan x="32.45em">┃</tspan>
  </tspan>
  <tspan y="5.65em">
   <tspan x="0.00em">┃</tspan>
   <tspan x="32.45em">┃</tspan>
  </tspan>
  <tspan y="6.78em">
   <tspan x="0.00em">┃</tspan>
   <tspan x="32.45em">┃</tspan>
  </tspan>
  <tspan y="7.91em">
   <tspan x="0.00em">┃</tspan>
   <tspan x="32.45em">┃</tspan>
  </tspan>
  <tspan y="9.04em">
   <tspan x="0.00em">┃</tspan>
   <tspan x="3.85em">i</tspan>
   <tspan x="4.40em">n</tspan>
   <tspan x="4.95em">s</tspan>
   <tspan x="5.50em">e</tspan>
   <tspan x="6.05em">t</tspan>
   <tspan x="6.60em">_</tspan>
   <tspan x="7.15em">c</tspan>
   <tspan x="7.70em">e</tspan>
   <tspan x="8.25em">n</tspan>
   <tspan x="8.80em">t</tspan>
   <tspan x="9.35em">e</tspan>
   <tspan x="9.90em">r</tspan>
   <tspan x="10.45em">_</tspan>
   <tspan x="11.00em">c</tspan>
   <tspan x="11.55em">e</tspan>
   <tspan x="12.10em">n</tspan>
   <tspan x="12.65em">t</tspan>
   <tspan x="13.20em">e</tspan>
   <tspan x="13.75em">r</tspan>
   <tspan x="14.85em">|</tspan>
   <tspan x="15.95em">a</tspan>
   <tspan x="16.50em">b</tspan>
   <tspan x="17.05em">s</tspan>
   <tspan x="17.60em">o</tspan>
   <tspan x="18.15em">l</tspan>
   <tspan x="18.70em">u</tspan>
   <tspan x="19.25em">t</tspan>
   <tspan x="19.80em">e</tspan>
   <tspan x="20.35em">(</tspan>
   <tspan x="20.90em">x</tspan>
   <tspan x="21.45em">=</tspan>
   <tspan x="22.00em">-</tspan>
   <tspan x="22.55em">2</tspan>
   <tspan x="23.10em">,</tspan>
   <tspan x="24.20em">y</tspan>
   <tspan x="24.75em">=</tspan>
   <tspan x="25.30em">-</tspan>
   <tspan x="25.85em">4</tspan>
   <tspan x="26.40em">)</tspan>
   <tspan x="32.45em">┃</tspan>
  </tspan>
  <tspan y="10.17em">
   <tspan x="0.00em">┃</tspan>
   <tspan x="32.45em">┃</tspan>
  </tspan>
  <tspan y="11.30em">
   <tspan x="0.00em">┃</tspan>
   <tspan x="32.45em">┃</tspan>
  </tspan>
  <tspan y="12.43em">
   <tspan x="0.00em">┃</tspan>
   <tspan x="32.45em">┃</tspan>
  </tspan>
  <tspan y="13.56em">
   <tspan x="0.00em">┃</tspan>
   <tspan x="0.55em">i</tspan>
   <tspan x="1.10em">n</tspan>
   <tspan x="1.65em">s</tspan>
   <tspan x="2.20em">e</tspan>
   <tspan x="2.75em">t</tspan>
   <tspan x="3.30em">_</tspan>
   <tspan x="3.85em">c</tspan>
   <tspan x="4.40em">e</tspan>
   <tspan x="4.95em">n</tspan>
   <tspan x="5.50em">t</tspan>
   <tspan x="6.05em">e</tspan>
   <tspan x="6.60em">r</tspan>
   <tspan x="7.15em">_</tspan>
   <tspan x="7.70em">l</tspan>
   <tspan x="8.25em">e</tspan>
   <tspan x="8.80em">f</tspan>
   <tspan x="9.35em">t</tspan>
   <tspan x="11.00em">i</tspan>
   <tspan x="11.55em">n</tspan>
   <tspan x="12.10em">s</tspan>
   <tspan x="12.65em">e</tspan>
   <tspan x="13.20em">t</tspan>
   <tspan x="13.75em">_</tspan>
   <tspan x="14.30em">c</tspan>
   <tspan x="14.85em">e</tspan>
   <tspan x="15.40em">n</tspan>
   <tspan x="15.95em">t</tspan>
   <tspan x="16.50em">e</tspan>
   <tspan x="17.05em">r</tspan>
   <tspan x="17.60em">_</tspan>
   <tspan x="18.15em">c</tspan>
   <tspan x="18.70em">e</tspan>
   <tspan x="19.25em">n</tspan>
   <tspan x="19.80em">t</tspan>
   <tspan x="20.35em">e</tspan>
   <tspan x="20.90em">r</tspan>
   <tspan x="22.55em">i</tspan>
   <tspan x="23.10em">n</tspan>
   <tspan x="23.65em">s</tspan>
   <tspan x="24.20em">e</tspan>
   <tspan x="24.75em">t</tspan>
   <tspan x="25.30em">_</tspan>
   <tspan x="25.85em">c</tspan>
   <tspan x="26.40em">e</tspan>
   <tspan x="26.95em">n</tspan>
   <tspan x="27.50em">t</tspan>
   <tspan x="28.05em">e</tspan>
   <tspan x="28.60em">r</tspan>
   <tspan x="29.15em">_</tspan>
   <tspan x="29.70em">r</tspan>
   <tspan x="30.25em">i</tspan>
   <tspan x="30.80em">g</tspan>
   <tspan x="31.35em">h</tspan>
   <tspan x="31.90em">t</tspan>
   <tspan x="32.45em">┃</tspan>
  </tspan>
  <tspan y="14.69em">
   <tspan x="0.00em">┃</tspan>
   <tspan x="32.45em">┃</tspan>
  </tspan>
  <tspan y="15.82em">
   <tspan x="0.00em">┃</tspan>
   <tspan x="32.45em">┃</tspan>
  </tspan>
  <tspan y="16.95em">
   <tspan x="0.00em">┃</tspan>
   <tspan x="32.45em">┃</tspan>
  </tspan>
  <tspan y="18.08em">
   <tspan x="0.00em">┃</tspan>
   <tspan x="32.45em">┃</tspan>
  </tspan>
  <tspan y="19.21em">
   <tspan x="0.00em">┃</tspan>
   <tspan x="32.45em">┃</tspan>
  </tspan>
  <tspan y="20.34em">
   <tspan x="0.00em">┃</tspan>
   <tspan x="32.45em">┃</tspan>
  </tspan>
  <tspan y="21.47em">
   <tspan x="0.00em">┃</tspan>
   <tspan x="13.20em">i</tspan>
   <tspan x="13.75em">n</tspan>
   <tspan x="14.30em">s</tspan>
   <tspan x="14.85em">e</tspan>
   <tspan x="15.40em">t</tspan>
   <tspan x="15.95em">_</tspan>
   <tspan x="16.50em">b</tspan>
   <tspan x="17.05em">o</tspan>
   <tspan x="17.60em">t</tspan>
   <tspan x="18.15em">t</tspan>
   <tspan x="18.70em">o</tspan>
   <tspan x="19.25em">m</tspan>
   <tspan x="19.80em">_</tspan>
   <tspan x="20.35em">r</tspan>
   <tspan x="20.90em">i</tspan>
   <tspan x="21.45em">g</tspan>
   <tspan x="22.00em">h</tspan>
   <tspan x="22.55em">t</tspan>
   <tspan x="23.65em">|</tspan>
   <tspan x="24.75em">a</tspan>
   <tspan x="25.30em">b</tspan>
   <tspan x="25.85em">s</tspan>
   <tspan x="26.40em">o</tspan>
   <tspan x="26.95em">l</tspan>
   <tspan x="27.50em">u</tspan>
   <tspan x="28.05em">t</tspan>
   <tspan x="28.60em">e</tspan>
   <tspan x="29.15em">(</tspan>
   <tspan x="29.70em">y</tspan>
   <tspan x="30.25em">=</tspan>
   <tspan x="30.80em">-</tspan>
   <tspan x="31.35em">4</tspan>
   <tspan x="31.90em">)</tspan>
   <tspan x="32.45em">┃</tspan>
  </tspan>
  <tspan y="22.60em">
   <tspan x="0.00em">┃</tspan>
   <tspan x="32.45em">┃</tspan>
  </tspan>
  <tspan y="23.73em">
   <tspan x="0.00em">┃</tspan>
   <tspan x="32.45em">┃</tspan>
  </tspan>
  <tspan y="24.86em">
   <tspan x="0.00em">┃</tspan>
   <tspan x="32.45em">┃</tspan>
  </tspan>
  <tspan y="25.99em">
   <tspan x="0.00em">┃</tspan>
   <tspan x="0.55em">i</tspan>
   <tspan x="1.10em">n</tspan>
   <tspan x="1.65em">s</tspan>
   <tspan x="2.20em">e</tspan>
   <tspan x="2.75em">t</tspan>
   <tspan x="3.30em">_</tspan>
   <tspan x="3.85em">b</tspan>
   <tspan x="4.40em">o</tspan>
   <tspan x="4.95em">t</tspan>
   <tspan x="5.50em">t</tspan>
   <tspan x="6.05em">o</tspan>
   <tspan x="6.60em">m</tspan>
   <tspan x="7.15em">_</tspan>
   <tspan x="7.70em">l</tspan>
   <tspan x="8.25em">e</tspan>
   <tspan x="8.80em">f</tspan>
   <tspan x="9.35em">t</tspan>
   <tspan x="11.00em">i</tspan>
   <tspan x="11.55em">n</tspan>
   <tspan x="12.10em">s</tspan>
   <tspan x="12.65em">e</tspan>
   <tspan x="13.20em">t</tspan>
   <tspan x="13.75em">_</tspan>
   <tspan x="14.30em">b</tspan>
   <tspan x="14.85em">o</tspan>
   <tspan x="15.40em">t</tspan>
   <tspan x="15.95em">t</tspan>
   <tspan x="16.50em">o</tspan>
   <tspan x="17.05em">m</tspan>
   <tspan x="17.60em">_</tspan>
   <tspan x="18.15em">c</tspan>
   <tspan x="18.70em">e</tspan>
   <tspan x="19.25em">n</tspan>
   <tspan x="19.80em">t</tspan>
   <tspan x="20.35em">e</tspan>
   <tspan x="20.90em">r</tspan>
   <tspan x="22.55em">i</tspan>
   <tspan x="23.10em">n</tspan>
   <tspan x="23.65em">s</tspan>
   <tspan x="24.20em">e</tspan>
   <tspan x="24.75em">t</tspan>
   <tspan x="25.30em">_</tspan>
   <tspan x="25.85em">b</tspan>
   <tspan x="26.40em">o</tspan>
   <tspan x="26.95em">t</tspan>
   <tspan x="27.50em">t</tspan>
   <tspan x="28.05em">o</tspan>
   <tspan x="28.60em">m</tspan>
   <tspan x="29.15em">_</tspan>
   <tspan x="29.70em">r</tspan>
   <tspan x="30.25em">i</tspan>
   <tspan x="30.80em">g</tspan>
   <tspan x="31.35em">h</tspan>
   <tspan x="31.90em">t</tspan>
   <tspan x="32.45em">┃</tspan>
  </tspan>
  <tspan y="27.12em">
   <tspan x="0.00em">┗</tspan>
   <tspan x="0.55em">━</tspan>
   <tspan x="1.10em">━</tspan>
   <tspan x="1.65em">━</tspan>
   <tspan x="2.20em">━</tspan>
   <tspan x="2.75em">━</tspan>
   <tspan x="3.30em">━</tspan>
   <tspan x="3.85em">━</tspan>
   <tspan x="4.40em">━</tspan>
   <tspan x="4.95em">━</tspan>
   <tspan x="5.50em">━</tspan>
   <tspan x="6.05em">━</tspan>
   <tspan x="6.60em">━</tspan>
   <tspan x="7.15em">━</tspan>
   <tspan x="7.70em">━</tspan>
   <tspan x="8.25em">━</tspan>
   <tspan x="8.80em">━</tspan>
   <tspan x="9.35em">━</tspan>
   <tspan x="9.90em">━</tspan>
   <tspan x="10.45em">━</tspan>
   <tspan x="11.00em">━</tspan>
   <tspan x="11.55em">━</tspan>
   <tspan x="12.10em">━</tspan>
   <tspan x="12.65em">━</tspan>
   <tspan x="13.20em">━</tspan>
   <tspan x="13.75em">━</tspan>
   <tspan x="14.30em">━</tspan>
   <tspan x="14.85em">━</tspan>
   <tspan x="15.40em">━</tspan>
   <tspan x="15.95em">━</tspan>
   <tspan x="16.50em">━</tspan>
   <tspan x="17.05em">━</tspan>
   <tspan x="17.60em">━</tspan>
   <tspan x="18.15em">━</tspan>
   <tspan x="18.70em">━</tspan>
   <tspan x="19.25em">━</tspan>
   <tspan x="19.80em">━</tspan>
   <tspan x="20.35em">━</tspan>
   <tspan x="20.90em">━</tspan>
   <tspan x="21.45em">━</tspan>
   <tspan x="22.00em">━</tspan>
   <tspan x="22.55em">━</tspan>
   <tspan x="23.10em">━</tspan>
   <tspan x="23.65em">━</tspan>
   <tspan x="24.20em">━</tspan>
   <tspan x="24.75em">━</tspan>
   <tspan x="25.30em">━</tspan>
   <tspan x="25.85em">━</tspan>
   <tspan x="26.40em">━</tspan>
   <tspan x="26.95em">━</tspan>
   <tspan x="27.50em">━</tspan>
   <tspan x="28.05em">━</tspan>
   <tspan x="28.60em">━</tspan>
   <tspan x="29.15em">━</tspan>
   <tspan x="29.70em">━</tspan>
   <tspan x="30.25em">━</tspan>
   <tspan x="30.80em">━</tspan>
   <tspan x="31.35em">━</tspan>
   <tspan x="31.90em">━</tspan>
   <tspan x="32.45em">┛</tspan>
  </tspan>
 </text>
</svg>