<svg xmlns="http://www.w3.org/2000/svg" width="38.50em" height="5.65em">
 <style>svg {
  dominant-baseline: hanging;
  font-size: 1rem;
}
</style>
 <g shape-rendering="crispEdges">
  <rect x="0.00em" y="0.00em" width="38.50em" height="5.65em" fill="#000000" />
  <rect x="0.00em" y="0.00em" width="38.50em" height="1.13em" fill="#000000" />
  <rect x="0.00em" y="1.13em" width="38.50em" height="1.13em" fill="#000000" />
  <rect x="0.00em" y="2.26em" width="38.50em" height="1.13em" fill="#000000" />
  <rect x="0.00em" y="3.39em" width="38.50em" height="1.13em" fill="#000000" />
  <rect x="0.00em" y="4.52em" width="38.50em" height="1.13em" fill="#000000" />
 </g>
 <text fill="#ffffff" font-family="monospace">
  <tspan y="0.00em">
   <tspan x="0.00em">╭</tspan>
   <tspan x="0.55em">─</tspan>
   <tspan x="1.65em">T</tspan>
   <tspan x="2.20em">o</tspan>
   <tspan x="2.75em">p</tspan>
   <tspan x="3.30em">-</tspan>
   <tspan x="3.85em">L</tspan>
   <tspan x="4.40em">e</tspan>
   <tspan x="4.95em">f</tspan>
   <tspan x="5.50em">t</tspan>
   <tspan x="6.60em">T</tspan>
   <tspan x="7.15em">i</tspan>
   <tspan x="7.70em">t</tspan>
   <tspan x="8.25em">l</tspan>
   <tspan x="8.80em">e</tspan>
   <tspan x="9.90em">─</tspan>
   <tspan x="10.45em">─</tspan>
   <tspan x="11.00em">─</tspan>
   <tspan x="11.55em">─</tspan>
   <tspan x="12.10em">─</tspan>
   <tspan x="12.65em">─</tspan>
   <tspan x="13.20em">─</tspan>
   <tspan x="13.75em">─</tspan>
   <tspan x="14.85em">T</tspan>
   <tspan x="15.40em">o</tspan>
   <tspan x="15.95em">p</tspan>
   <tspan x="16.50em">-</tspan>
   <tspan x="17.05em">C</tspan>
   <tspan x="17.60em">e</tspan>
   <tspan x="18.15em">n</tspan>
   <tspan x="18.70em">t</tspan>
   <tspan x="19.25em">e</tspan>
   <tspan x="19.80em">r</tspan>
   <tspan x="20.90em">T</tspan>
   <tspan x="21.45em">i</tspan>
   <tspan x="22.00em">t</tspan>
   <tspan x="22.55em">l</tspan>
   <tspan x="23.10em">e</tspan>
   <tspan x="24.20em">─</tspan>
   <tspan x="24.75em">─</tspan>
   <tspan x="25.30em">─</tspan>
   <tspan x="25.85em">─</tspan>
   <tspan x="26.40em">─</tspan>
   <tspan x="26.95em">─</tspan>
   <tspan x="27.50em">─</tspan>
   <tspan x="28.60em">T</tspan>
   <tspan x="29.15em">o</tspan>
   <tspan x="29.70em">p</tspan>
   <tspan x="30.25em">-</tspan>
   <tspan x="30.80em">R</tspan>
   <tspan x="31.35em">i</tspan>
   <tspan x="31.90em">g</tspan>
   <tspan x="32.45em">h</tspan>
   <tspan x="33.00em">t</tspan>
   <tspan x="34.10em">T</tspan>
   <tspan x="34.65em">i</tspan>
   <tspan x="35.20em">t</tspan>
   <tspan x="35.75em">l</tspan>
   <tspan x="36.30em">e</tspan>
   <tspan x="37.40em">─</tspan>
   <tspan x="37.95em">╮</tspan>
  </tspan>
  <tspan y="1.13em">
   <tspan x="0.00em">│</tspan>
   <tspan x="37.95em">│</tspan>
  </tspan>
  <tspan y="2.26em">
   <tspan x="0.00em">│</tspan>
   <tspan x="3.85em">L</tspan>
   <tspan x="4.40em">o</tspan>
   <tspan x="4.95em">r</tspan>
   <tspan x="5.50em">e</tspan>
   <tspan x="6.05em">m</tspan>
   <tspan x="7.15em">i</tspan>
   <tspan x="7.70em">p</tspan>
   <tspan x="8.25em">s</tspan>
   <tspan x="8.80em">u</tspan>
   <tspan x="9.35em">m</tspan>
   <tspan x="10.45em">d</tspan>
   <tspan x="11.00em">o</tspan>
   <tspan x="11.55em">l</tspan>
   <tspan x="12.10em">o</tspan>
   <tspan x="12.65em">r</tspan>
   <tspan x="13.75em">s</tspan>
   <tspan x="14.30em">i</tspan>
   <tspan x="14.85em">t</tspan>
   <tspan x="15.95em">a</tspan>
   <tspan x="16.50em">m</tspan>
   <tspan x="17.05em">e</tspan>
   <tspan x="17.60em">t</tspan>
   <tspan x="18.15em">,</tspan>
   <tspan x="19.25em">c</tspan>
   <tspan x="19.80em">o</tspan>
   <tspan x="20.35em">n</tspan>
   <tspan x="20.90em">s</tspan>
   <tspan x="21.45em">e</tspan>
   <tspan x="22.00em">c</tspan>
   <tspan x="22.55em">t</tspan>
   <tspan x="23.10em">e</tspan>
   <tspan x="23.65em">t</tspan>
   <tspan x="24.20em">u</tspan>
   <tspan x="24.75em">r</tspan>
   <tspan x="25.85em">a</tspan>
   <tspan x="26.40em">d</tspan>
   <tspan x="26.95em">i</tspan>
   <tspan x="27.50em">p</tspan>
   <tspan x="28.05em">i</tspan>
   <tspan x="28.60em">s</tspan>
   <tspan x="29.15em">c</tspan>
   <tspan x="29.70em">i</tspan>
   <tspan x="30.25em">n</tspan>
   <tspan x="30.80em">g</tspan>
   <tspan x="31.90em">e</tspan>
   <tspan x="32.45em">l</tspan>
   <tspan x="33.00em">i</tspan>
   <tspan x="33.55em">t</tspan>
   <tspan x="34.10em">.</tspan>
   <tspan x="37.95em">│</tspan>
  </tspan>
  <tspan y="3.39em">
   <tspan x="0.00em">│</tspan>
   <tspan x="37.95em">│</tspan>
  </tspan>
  <tspan y="4.52em">
   <tspan x="0.00em">╰</tspan>
   <tspan x="0.55em">─</tspan>
   <tspan x="1.65em">B</tspan>
   <tspan x="2.20em">o</tspan>
   <tspan x="2.75em">t</tspan>
   <tspan x="3.30em">t</tspan>
   <tspan x="3.85em">o</tspan>
   <tspan x="4.40em">m</tspan>
   <tspan x="4.95em">-</tspan>
   <tspan x="5.50em">L</tspan>
   <tspan x="6.05em">e</tspan>
   <tspan x="6.60em">f</tspan>
   <tspan x="7.15em">t</tspan>
   <tspan x="8.25em">T</tspan>
   <tspan x="8.80em">i</tspan>
   <tspan x="9.35em">t</tspan>
   <tspan x="9.90em">l</tspan>
   <tspan x="10.45em">e</tspan>
   <tspan x="11.55em">─</tspan>
   <tspan x="12.10em">─</tspan>
   <tspan x="12.65em">─</tspan>
   <tspan x="13.75em">B</tspan>
   <tspan x="14.30em">o</tspan>
   <tspan x="14.85em">t</tspan>
   <tspan x="15.40em">t</tspan>
   <tspan x="15.95em">o</tspan>
   <tspan x="16.50em">m</tspan>
   <tspan x="17.05em">-</tspan>
   <tspan x="17.60em">C</tspan>
   <tspan x="18.15em">e</tspan>
   <tspan x="18.70em">n</tspan>
   <tspan x="19.25em">t</tspan>
   <tspan x="19.80em">e</tspan>
   <tspan x="20.35em">r</tspan>
   <tspan x="21.45em">T</tspan>
   <tspan x="22.00em">i</tspan>
   <tspan x="22.55em">t</tspan>
   <tspan x="23.10em">l</tspan>
   <tspan x="23.65em">e</tspan>
   <tspan x="24.75em">─</tspan>
   <tspan x="25.30em">─</tspan>
   <tspan x="25.85em">─</tspan>
   <tspan x="26.95em">B</tspan>
   <tspan x="27.50em">o</tspan>
   <tspan x="28.05em">t</tspan>
   <tspan x="28.60em">t</tspan>
   <tspan x="29.15em">o</tspan>
   <tspan x="29.70em">m</tspan>
   <tspan x="30.25em">-</tspan>
   <tspan x="30.80em">R</tspan>
   <tspan x="31.35em">i</tspan>
   <tspan x="31.90em">g</tspan>
   <tspan x="32.45em">h</tspan>
   <tspan x="33.00em">t</tspan>
   <tspan x="34.10em">T</tspan>
   <tspan x="34.65em">i</tspan>
   <tspan x="35.20em">t</tspan>
   <tspan x="35.75em">l</tspan>
   <tspan x="36.30em">e</tspan>
   <tspan x="37.40em">─</tspan>
   <tspan x="37.95em">╯</tspan>
  </tspan>
 </text>
</svg>