<svg xmlns="http://www.w3.org/2000/svg" width="66.00em" height="15.82em">
 <style>svg {
  dominant-baseline: hanging;
  font-size: 1rem;
}
</style>
 <g shape-rendering="crispEdges">
  <rect x="0.00em" y="0.00em" width="66.00em" height="15.82em" fill="#000000" />
  <rect x="0.00em" y="0.00em" width="66.00em" height="1.13em" fill="#000000" />
  <rect x="0.00em" y="1.13em" width="66.00em" height="1.13em" fill="#000000" />
  <rect x="0.00em" y="2.26em" width="66.00em" height="1.13em" fill="#000000" />
  <rect x="0.00em" y="3.39em" width="66.00em" height="1.13em" fill="#000000" />
  <rect x="0.00em" y="4.52em" width="66.00em" height="1.13em" fill="#000000" />
  <rect x="0.00em" y="5.65em" width="66.00em" height="1.13em" fill="#000000" />
  <rect x="0.00em" y="6.78em" width="66.00em" height="1.13em" fill="#000000" />
  <rect x="0.00em" y="7.91em" width="66.00em" height="1.13em" fill="#000000" />
  <rect x="0.00em" y="9.04em" width="66.00em" height="1.13em" fill="#000000" />
  <rect x="0.00em" y="10.17em" width="66.00em" height="1.13em" fill="#000000" />
  <rect x="0.00em" y="11.30em" width="66.00em" height="1.13em" fill="#000000" />
  <rect x="0.00em" y="12.43em" width="66.00em" height="1.13em" fill="#000000" />
  <rect x="0.00em" y="13.56em" width="66.00em" height="1.13em" fill="#000000" />
  <rect x="0.00em" y="14.69em" width="66.00em" height="1.13em" fill="#000000" />
 </g>
 <text fill="#ffffff" font-family="monospace">
  <tspan y="0.00em">
   <tspan x="0.00em">┌</tspan>
   <tspan x="0.55em">─</tspan>
   <tspan x="1.65em">n</tspan>
   <tspan x="2.20em">o</tspan>
   <tspan x="2.75em">n</tspan>
   <tspan x="3.30em">e</tspan>
   <tspan x="4.40em">─</tspan>
   <tspan x="4.95em">─</tspan>
   <tspan x="5.50em">─</tspan>
   <tspan x="6.05em">─</tspan>
   <tspan x="6.60em">─</tspan>
   <tspan x="7.15em">─</tspan>
   <tspan x="7.70em">─</tspan>
   <tspan x="8.25em">─</tspan>
   <tspan x="8.80em">─</tspan>
   <tspan x="9.35em">─</tspan>
   <tspan x="9.90em">─</tspan>
   <tspan x="10.45em">─</tspan>
   <tspan x="11.00em">─</tspan>
   <tspan x="11.55em">─</tspan>
   <tspan x="12.10em">─</tspan>
   <tspan x="12.65em">─</tspan>
   <tspan x="13.20em">─</tspan>
   <tspan x="13.75em">─</tspan>
   <tspan x="14.30em">─</tspan>
   <tspan x="14.85em">─</tspan>
   <tspan x="15.40em">─</tspan>
   <tspan x="15.95em">┐</tspan>
   <tspan x="16.50em">┌</tspan>
   <tspan x="17.05em">─</tspan>
   <tspan x="18.15em">s</tspan>
   <tspan x="18.70em">t</tspan>
   <tspan x="19.25em">a</tspan>
   <tspan x="19.80em">b</tspan>
   <tspan x="20.35em">l</tspan>
   <tspan x="20.90em">e</tspan>
   <tspan x="22.00em">─</tspan>
   <tspan x="22.55em">─</tspan>
   <tspan x="23.10em">─</tspan>
   <tspan x="23.65em">─</tspan>
   <tspan x="24.20em">─</tspan>
   <tspan x="24.75em">─</tspan>
   <tspan x="25.30em">─</tspan>
   <tspan x="25.85em">─</tspan>
   <tspan x="26.40em">─</tspan>
   <tspan x="26.95em">─</tspan>
   <tspan x="27.50em">─</tspan>
   <tspan x="28.05em">─</tspan>
   <tspan x="28.60em">─</tspan>
   <tspan x="29.15em">─</tspan>
   <tspan x="29.70em">─</tspan>
   <tspan x="30.25em">─</tspan>
   <tspan x="30.80em">─</tspan>
   <tspan x="31.35em">─</tspan>
   <tspan x="31.90em">─</tspan>
   <tspan x="32.45em">┐</tspan>
   <tspan x="33.00em">┌</tspan>
   <tspan x="33.55em">─</tspan>
   <tspan x="34.65em">p</tspan>
   <tspan x="35.20em">r</tspan>
   <tspan x="35.75em">e</tspan>
   <tspan x="36.30em">t</tspan>
   <tspan x="36.85em">t</tspan>
   <tspan x="37.40em">y</tspan>
   <tspan x="38.50em">─</tspan>
   <tspan x="39.05em">─</tspan>
   <tspan x="39.60em">─</tspan>
   <tspan x="40.15em">─</tspan>
   <tspan x="40.70em">─</tspan>
   <tspan x="41.25em">─</tspan>
   <tspan x="41.80em">─</tspan>
   <tspan x="42.35em">─</tspan>
   <tspan x="42.90em">─</tspan>
   <tspan x="43.45em">─</tspan>
   <tspan x="44.00em">─</tspan>
   <tspan x="44.55em">─</tspan>
   <tspan x="45.10em">─</tspan>
   <tspan x="45.65em">─</tspan>
   <tspan x="46.20em">─</tspan>
   <tspan x="46.75em">─</tspan>
   <tspan x="47.30em">─</tspan>
   <tspan x="47.85em">─</tspan>
   <tspan x="48.40em">─</tspan>
   <tspan x="48.95em">┐</tspan>
   <tspan x="49.50em">┌</tspan>
   <tspan x="50.05em">─</tspan>
   <tspan x="51.15em">b</tspan>
   <tspan x="51.70em">a</tspan>
   <tspan x="52.25em">l</tspan>
   <tspan x="52.80em">a</tspan>
   <tspan x="53.35em">n</tspan>
   <tspan x="53.90em">c</tspan>
   <tspan x="54.45em">e</tspan>
   <tspan x="55.55em">─</tspan>
   <tspan x="56.10em">─</tspan>
   <tspan x="56.65em">─</tspan>
   <tspan x="57.20em">─</tspan>
   <tspan x="57.75em">─</tspan>
   <tspan x="58.30em">─</tspan>
   <tspan x="58.85em">─</tspan>
   <tspan x="59.40em">─</tspan>
   <tspan x="59.95em">─</tspan>
   <tspan x="60.50em">─</tspan>
   <tspan x="61.05em">─</tspan>
   <tspan x="61.60em">─</tspan>
   <tspan x="62.15em">─</tspan>
   <tspan x="62.70em">─</tspan>
   <tspan x="63.25em">─</tspan>
   <tspan x="63.80em">─</tspan>
   <tspan x="64.35em">─</tspan>
   <tspan x="64.90em">─</tspan>
   <tspan x="65.45em">┐</tspan>
  </tspan>
  <tspan y="1.13em">
   <tspan x="0.00em">│</tspan>
   <tspan x="1.10em">I</tspan>
   <tspan x="1.65em">t</tspan>
   <tspan x="2.75em">w</tspan>
   <tspan x="3.30em">a</tspan>
   <tspan x="3.85em">s</tspan>
   <tspan x="4.95em">t</tspan>
   <tspan x="5.50em">h</tspan>
   <tspan x="6.05em">e</tspan>
   <tspan x="7.15em">b</tspan>
   <tspan x="7.70em">e</tspan>
   <tspan x="8.25em">s</tspan>
   <tspan x="8.80em">t</tspan>
   <tspan x="9.90em">o</tspan>
   <tspan x="10.45em">f</tspan>
   <tspan x="11.55em">t</tspan>
   <tspan x="12.10em">i</tspan>
   <tspan x="12.65em">m</tspan>
   <tspan x="13.20em">e</tspan>
   <tspan x="13.75em">s</tspan>
   <tspan x="14.30em">,</tspan>
   <tspan x="15.95em">│</tspan>
   <tspan x="16.50em">│</tspan>
   <tspan x="17.60em">I</tspan>
   <tspan x="18.15em">t</tspan>
   <tspan x="19.25em">w</tspan>
   <tspan x="19.80em">a</tspan>
   <tspan x="20.35em">s</tspan>
   <tspan x="21.45em">t</tspan>
   <tspan x="22.00em">h</tspan>
   <tspan x="22.55em">e</tspan>
   <tspan x="23.65em">b</tspan>
   <tspan x="24.20em">e</tspan>
   <tspan x="24.75em">s</tspan>
   <tspan x="25.30em">t</tspan>
   <tspan x="26.40em">o</tspan>
   <tspan x="26.95em">f</tspan>
   <tspan x="28.05em">t</tspan>
   <tspan x="28.60em">i</tspan>
   <tspan x="29.15em">m</tspan>
   <tspan x="29.70em">e</tspan>
   <tspan x="30.25em">s</tspan>
   <tspan x="30.80em">,</tspan>
   <tspan x="32.45em">│</tspan>
   <tspan x="33.00em">│</tspan>
   <tspan x="34.10em">I</tspan>
   <tspan x="34.65em">t</tspan>
   <tspan x="35.75em">w</tspan>
   <tspan x="36.30em">a</tspan>
   <tspan x="36.85em">s</tspan>
   <tspan x="37.95em">t</tspan>
   <tspan x="38.50em">h</tspan>
   <tspan x="39.05em">e</tspan>
   <tspan x="40.15em">b</tspan>
   <tspan x="40.70em">e</tspan>
   <tspan x="41.25em">s</tspan>
   <tspan x="41.80em">t</tspan>
   <tspan x="42.90em">o</tspan>
   <tspan x="43.45em">f</tspan>
   <tspan x="44.55em">t</tspan>
   <tspan x="45.10em">i</tspan>
   <tspan x="45.65em">m</tspan>
   <tspan x="46.20em">e</tspan>
   <tspan x="46.75em">s</tspan>
   <tspan x="47.30em">,</tspan>
   <tspan x="48.95em">│</tspan>
   <tspan x="49.50em">│</tspan>
   <tspan x="50.60em">I</tspan>
   <tspan x="51.15em">t</tspan>
   <tspan x="52.25em">w</tspan>
   <tspan x="52.80em">a</tspan>
   <tspan x="53.35em">s</tspan>
   <tspan x="54.45em">t</tspan>
   <tspan x="55.00em">h</tspan>
   <tspan x="55.55em">e</tspan>
   <tspan x="56.65em">b</tspan>
   <tspan x="57.20em">e</tspan>
   <tspan x="57.75em">s</tspan>
   <tspan x="58.30em">t</tspan>
   <tspan x="59.40em">o</tspan>
   <tspan x="59.95em">f</tspan>
   <tspan x="65.45em">│</tspan>
  </tspan>
  <tspan y="2.26em">
   <tspan x="0.00em">│</tspan>
   <tspan x="15.95em">│</tspan>
   <tspan x="16.50em">│</tspan>
   <tspan x="17.60em">i</tspan>
   <tspan x="18.15em">t</tspan>
   <tspan x="19.25em">w</tspan>
   <tspan x="19.80em">a</tspan>
   <tspan x="20.35em">s</tspan>
   <tspan x="21.45em">t</tspan>
   <tspan x="22.00em">h</tspan>
   <tspan x="22.55em">e</tspan>
   <tspan x="23.65em">w</tspan>
   <tspan x="24.20em">o</tspan>
   <tspan x="24.75em">r</tspan>
   <tspan x="25.30em">s</tspan>
   <tspan x="25.85em">t</tspan>
   <tspan x="26.95em">o</tspan>
   <tspan x="27.50em">f</tspan>
   <tspan x="28.60em">t</tspan>
   <tspan x="29.15em">i</tspan>
   <tspan x="29.70em">m</tspan>
   <tspan x="30.25em">e</tspan>
   <tspan x="30.80em">s</tspan>
   <tspan x="31.35em">,</tspan>
   <tspan x="32.45em">│</tspan>
   <tspan x="33.00em">│</tspan>
   <tspan x="34.10em">i</tspan>
   <tspan x="34.65em">t</tspan>
   <tspan x="35.75em">w</tspan>
   <tspan x="36.30em">a</tspan>
   <tspan x="36.85em">s</tspan>
   <tspan x="37.95em">t</tspan>
   <tspan x="38.50em">h</tspan>
   <tspan x="39.05em">e</tspan>
   <tspan x="40.15em">w</tspan>
   <tspan x="40.70em">o</tspan>
   <tspan x="41.25em">r</tspan>
   <tspan x="41.80em">s</tspan>
   <tspan x="42.35em">t</tspan>
   <tspan x="43.45em">o</tspan>
   <tspan x="44.00em">f</tspan>
   <tspan x="48.95em">│</tspan>
   <tspan x="49.50em">│</tspan>
   <tspan x="50.60em">t</tspan>
   <tspan x="51.15em">i</tspan>
   <tspan x="51.70em">m</tspan>
   <tspan x="52.25em">e</tspan>
   <tspan x="52.80em">s</tspan>
   <tspan x="53.35em">,</tspan>
   <tspan x="54.45em">i</tspan>
   <tspan x="55.00em">t</tspan>
   <tspan x="56.10em">w</tspan>
   <tspan x="56.65em">a</tspan>
   <tspan x="57.20em">s</tspan>
   <tspan x="58.30em">t</tspan>
   <tspan x="58.85em">h</tspan>
   <tspan x="59.40em">e</tspan>
   <tspan x="60.50em">w</tspan>
   <tspan x="61.05em">o</tspan>
   <tspan x="61.60em">r</tspan>
   <tspan x="62.15em">s</tspan>
   <tspan x="62.70em">t</tspan>
   <tspan x="65.45em">│</tspan>
  </tspan>
  <tspan y="3.39em">
   <tspan x="0.00em">│</tspan>
   <tspan x="15.95em">│</tspan>
   <tspan x="16.50em">│</tspan>
   <tspan x="17.60em">i</tspan>
   <tspan x="18.15em">t</tspan>
   <tspan x="19.25em">w</tspan>
   <tspan x="19.80em">a</tspan>
   <tspan x="20.35em">s</tspan>
   <tspan x="21.45em">t</tspan>
   <tspan x="22.00em">h</tspan>
   <tspan x="22.55em">e</tspan>
   <tspan x="23.65em">a</tspan>
   <tspan x="24.20em">g</tspan>
   <tspan x="24.75em">e</tspan>
   <tspan x="25.85em">o</tspan>
   <tspan x="26.40em">f</tspan>
   <tspan x="27.50em">w</tspan>
   <tspan x="28.05em">i</tspan>
   <tspan x="28.60em">s</tspan>
   <tspan x="29.15em">d</tspan>
   <tspan x="29.70em">o</tspan>
   <tspan x="30.25em">m</tspan>
   <tspan x="30.80em">,</tspan>
   <tspan x="32.45em">│</tspan>
   <tspan x="33.00em">│</tspan>
   <tspan x="34.10em">t</tspan>
   <tspan x="34.65em">i</tspan>
   <tspan x="35.20em">m</tspan>
   <tspan x="35.75em">e</tspan>
   <tspan x="36.30em">s</tspan>
   <tspan x="36.85em">,</tspan>
   <tspan x="37.95em">i</tspan>
   <tspan x="38.50em">t</tspan>
   <tspan x="39.60em">w</tspan>
   <tspan x="40.15em">a</tspan>
   <tspan x="40.70em">s</tspan>
   <tspan x="41.80em">t</tspan>
   <tspan x="42.35em">h</tspan>
   <tspan x="42.90em">e</tspan>
   <tspan x="44.00em">a</tspan>
   <tspan x="44.55em">g</tspan>
   <tspan x="45.10em">e</tspan>
   <tspan x="46.20em">o</tspan>
   <tspan x="46.75em">f</tspan>
   <tspan x="48.95em">│</tspan>
   <tspan x="49.50em">│</tspan>
   <tspan x="50.60em">o</tspan>
   <tspan x="51.15em">f</tspan>
   <tspan x="52.25em">t</tspan>
   <tspan x="52.80em">i</tspan>
   <tspan x="53.35em">m</tspan>
   <tspan x="53.90em">e</tspan>
   <tspan x="54.45em">s</tspan>
   <tspan x="55.00em">,</tspan>
   <tspan x="56.10em">i</tspan>
   <tspan x="56.65em">t</tspan>
   <tspan x="57.75em">w</tspan>
   <tspan x="58.30em">a</tspan>
   <tspan x="58.85em">s</tspan>
   <tspan x="59.95em">t</tspan>
   <tspan x="60.50em">h</tspan>
   <tspan x="61.05em">e</tspan>
   <tspan x="65.45em">│</tspan>
  </tspan>
  <tspan y="4.52em">
   <tspan x="0.00em">│</tspan>
   <tspan x="15.95em">│</tspan>
   <tspan x="16.50em">│</tspan>
   <tspan x="17.60em">i</tspan>
   <tspan x="18.15em">t</tspan>
   <tspan x="19.25em">w</tspan>
   <tspan x="19.80em">a</tspan>
   <tspan x="20.35em">s</tspan>
   <tspan x="21.45em">t</tspan>
   <tspan x="22.00em">h</tspan>
   <tspan x="22.55em">e</tspan>
   <tspan x="23.65em">a</tspan>
   <tspan x="24.20em">g</tspan>
   <tspan x="24.75em">e</tspan>
   <tspan x="25.85em">o</tspan>
   <tspan x="26.40em">f</tspan>
   <tspan x="32.45em">│</tspan>
   <tspan x="33.00em">│</tspan>
   <tspan x="34.10em">w</tspan>
   <tspan x="34.65em">i</tspan>
   <tspan x="35.20em">s</tspan>
   <tspan x="35.75em">d</tspan>
   <tspan x="36.30em">o</tspan>
   <tspan x="36.85em">m</tspan>
   <tspan x="37.40em">,</tspan>
   <tspan x="38.50em">i</tspan>
   <tspan x="39.05em">t</tspan>
   <tspan x="40.15em">w</tspan>
   <tspan x="40.70em">a</tspan>
   <tspan x="41.25em">s</tspan>
   <tspan x="42.35em">t</tspan>
   <tspan x="42.90em">h</tspan>
   <tspan x="43.45em">e</tspan>
   <tspan x="44.55em">a</tspan>
   <tspan x="45.10em">g</tspan>
   <tspan x="45.65em">e</tspan>
   <tspan x="46.75em">o</tspan>
   <tspan x="47.30em">f</tspan>
   <tspan x="48.95em">│</tspan>
   <tspan x="49.50em">│</tspan>
   <tspan x="50.60em">a</tspan>
   <tspan x="51.15em">g</tspan>
   <tspan x="51.70em">e</tspan>
   <tspan x="52.80em">o</tspan>
   <tspan x="53.35em">f</tspan>
   <tspan x="54.45em">w</tspan>
   <tspan x="55.00em">i</tspan>
   <tspan x="55.55em">s</tspan>
   <tspan x="56.10em">d</tspan>
   <tspan x="56.65em">o</tspan>
   <tspan x="57.20em">m</tspan>
   <tspan x="57.75em">,</tspan>
   <tspan x="58.85em">i</tspan>
   <tspan x="59.40em">t</tspan>
   <tspan x="60.50em">w</tspan>
   <tspan x="61.05em">a</tspan>
   <tspan x="61.60em">s</tspan>
   <tspan x="65.45em">│</tspan>
  </tspan>
  <tspan y="5.65em">
   <tspan x="0.00em">│</tspan>
   <tspan x="15.95em">│</tspan>
   <tspan x="16.50em">│</tspan>
   <tspan x="17.60em">f</tspan>
   <tspan x="18.15em">o</tspan>
   <tspan x="18.70em">o</tspan>
   <tspan x="19.25em">l</tspan>
   <tspan x="19.80em">i</tspan>
   <tspan x="20.35em">s</tspan>
   <tspan x="20.90em">h</tspan>
   <tspan x="21.45em">n</tspan>
   <tspan x="22.00em">e</tspan>
   <tspan x="22.55em">s</tspan>
   <tspan x="23.10em">s</tspan>
   <tspan x="23.65em">.</tspan>
   <tspan x="32.45em">│</tspan>
   <tspan x="33.00em">│</tspan>
   <tspan x="34.10em">f</tspan>
   <tspan x="34.65em">o</tspan>
   <tspan x="35.20em">o</tspan>
   <tspan x="35.75em">l</tspan>
   <tspan x="36.30em">i</tspan>
   <tspan x="36.85em">s</tspan>
   <tspan x="37.40em">h</tspan>
   <tspan x="37.95em">n</tspan>
   <tspan x="38.50em">e</tspan>
   <tspan x="39.05em">s</tspan>
   <tspan x="39.60em">s</tspan>
   <tspan x="40.15em">.</tspan>
   <tspan x="48.95em">│</tspan>
   <tspan x="49.50em">│</tspan>
   <tspan x="50.60em">t</tspan>
   <tspan x="51.15em">h</tspan>
   <tspan x="51.70em">e</tspan>
   <tspan x="52.80em">a</tspan>
   <tspan x="53.35em">g</tspan>
   <tspan x="53.90em">e</tspan>
   <tspan x="55.00em">o</tspan>
   <tspan x="55.55em">f</tspan>
   <tspan x="56.65em">f</tspan>
   <tspan x="57.20em">o</tspan>
   <tspan x="57.75em">o</tspan>
   <tspan x="58.30em">l</tspan>
   <tspan x="58.85em">i</tspan>
   <tspan x="59.40em">s</tspan>
   <tspan x="59.95em">h</tspan>
   <tspan x="60.50em">n</tspan>
   <tspan x="61.05em">e</tspan>
   <tspan x="61.60em">s</tspan>
   <tspan x="62.15em">s</tspan>
   <tspan x="62.70em">.</tspan>
   <tspan x="65.45em">│</tspan>
  </tspan>
  <tspan y="6.78em">
   <tspan x="0.00em">│</tspan>
   <tspan x="15.95em">│</tspan>
   <tspan x="16.50em">│</tspan>
   <tspan x="32.45em">│</tspan>
   <tspan x="33.00em">│</tspan>
   <tspan x="48.95em">│</tspan>
   <tspan x="49.50em">│</tspan>
   <tspan x="65.45em">│</tspan>
  </tspan>
  <tspan y="7.91em">
   <tspan x="0.00em">│</tspan>
   <tspan x="15.95em">│</tspan>
   <tspan x="16.50em">│</tspan>
   <tspan x="32.45em">│</tspan>
   <tspan x="33.00em">│</tspan>
   <tspan x="48.95em">│</tspan>
   <tspan x="49.50em">│</tspan>
   <tspan x="65.45em">│</tspan>
  </tspan>
  <tspan y="9.04em">
   <tspan x="0.00em">│</tspan>
   <tspan x="15.95em">│</tspan>
   <tspan x="16.50em">│</tspan>
   <tspan x="32.45em">│</tspan>
   <tspan x="33.00em">│</tspan>
   <tspan x="48.95em">│</tspan>
   <tspan x="49.50em">│</tspan>
   <tspan x="65.45em">│</tspan>
  </tspan>
  <tspan y="10.17em">
   <tspan x="0.00em">│</tspan>
   <tspan x="15.95em">│</tspan>
   <tspan x="16.50em">│</tspan>
   <tspan x="32.45em">│</tspan>
   <tspan x="33.00em">│</tspan>
   <tspan x="48.95em">│</tspan>
   <tspan x="49.50em">│</tspan>
   <tspan x="65.45em">│</tspan>
  </tspan>
  <tspan y="11.30em">
   <tspan x="0.00em">│</tspan>
   <tspan x="15.95em">│</tspan>
   <tspan x="16.50em">│</tspan>
   <tspan x="32.45em">│</tspan>
   <tspan x="33.00em">│</tspan>
   <tspan x="48.95em">│</tspan>
   <tspan x="49.50em">│</tspan>
   <tspan x="65.45em">│</tspan>
  </tspan>
  <tspan y="12.43em">
   <tspan x="0.00em">│</tspan>
   <tspan x="15.95em">│</tspan>
   <tspan x="16.50em">│</tspan>
   <tspan x="32.45em">│</tspan>
   <tspan x="33.00em">│</tspan>
   <tspan x="48.95em">│</tspan>
   <tspan x="49.50em">│</tspan>
   <tspan x="65.45em">│</tspan>
  </tspan>
  <tspan y="13.56em">
   <tspan x="0.00em">│</tspan>
   <tspan x="15.95em">│</tspan>
   <tspan x="16.50em">│</tspan>
   <tspan x="32.45em">│</tspan>
   <tspan x="33.00em">│</tspan>
   <tspan x="48.95em">│</tspan>
   <tspan x="49.50em">│</tspan>
   <tspan x="65.45em">│</tspan>
  </tspan>
  <tspan y="14.69em">
   <tspan x="0.00em">└</tspan>
   <tspan x="0.55em">─</tspan>
   <tspan x="1.10em">─</tspan>
   <tspan x="1.65em">─</tspan>
   <tspan x="2.20em">─</tspan>
   <tspan x="2.75em">─</tspan>
   <tspan x="3.30em">─</tspan>
   <tspan x="3.85em">─</tspan>
   <tspan x="4.40em">─</tspan>
   <tspan x="4.95em">─</tspan>
   <tspan x="5.50em">─</tspan>
   <tspan x="6.05em">─</tspan>
   <tspan x="6.60em">─</tspan>
   <tspan x="7.15em">─</tspan>
   <tspan x="7.70em">─</tspan>
   <tspan x="8.25em">─</tspan>
   <tspan x="8.80em">─</tspan>
   <tspan x="9.35em">─</tspan>
   <tspan x="9.90em">─</tspan>
   <tspan x="10.45em">─</tspan>
   <tspan x="11.00em">─</tspan>
   <tspan x="11.55em">─</tspan>
   <tspan x="12.10em">─</tspan>
   <tspan x="12.65em">─</tspan>
   <tspan x="13.20em">─</tspan>
   <tspan x="13.75em">─</tspan>
   <tspan x="14.30em">─</tspan>
   <tspan x="14.85em">─</tspan>
   <tspan x="15.40em">─</tspan>
   <tspan x="15.95em">┘</tspan>
   <tspan x="16.50em">└</tspan>
   <tspan x="17.05em">─</tspan>
   <tspan x="17.60em">─</tspan>
   <tspan x="18.15em">─</tspan>
   <tspan x="18.70em">─</tspan>
   <tspan x="19.25em">─</tspan>
   <tspan x="19.80em">─</tspan>
   <tspan x="20.35em">─</tspan>
   <tspan x="20.90em">─</tspan>
   <tspan x="21.45em">─</tspan>
   <tspan x="22.00em">─</tspan>
   <tspan x="22.55em">─</tspan>
   <tspan x="23.10em">─</tspan>
   <tspan x="23.65em">─</tspan>
   <tspan x="24.20em">─</tspan>
   <tspan x="24.75em">─</tspan>
   <tspan x="25.30em">─</tspan>
   <tspan x="25.85em">─</tspan>
   <tspan x="26.40em">─</tspan>
   <tspan x="26.95em">─</tspan>
   <tspan x="27.50em">─</tspan>
   <tspan x="28.05em">─</tspan>
   <tspan x="28.60em">─</tspan>
   <tspan x="29.15em">─</tspan>
   <tspan x="29.70em">─</tspan>
   <tspan x="30.25em">─</tspan>
   <tspan x="30.80em">─</tspan>
   <tspan x="31.35em">─</tspan>
   <tspan x="31.90em">─</tspan>
   <tspan x="32.45em">┘</tspan>
   <tspan x="33.00em">└</tspan>
   <tspan x="33.55em">─</tspan>
   <tspan x="34.10em">─</tspan>
   <tspan x="34.65em">─</tspan>
   <tspan x="35.20em">─</tspan>
   <tspan x="35.75em">─</tspan>
   <tspan x="36.30em">─</tspan>
   <tspan x="36.85em">─</tspan>
   <tspan x="37.40em">─</tspan>
   <tspan x="37.95em">─</tspan>
   <tspan x="38.50em">─</tspan>
   <tspan x="39.05em">─</tspan>
   <tspan x="39.60em">─</tspan>
   <tspan x="40.15em">─</tspan>
   <tspan x="40.70em">─</tspan>
   <tspan x="41.25em">─</tspan>
   <tspan x="41.80em">─</tspan>
   <tspan x="42.35em">─</tspan>
   <tspan x="42.90em">─</tspan>
   <tspan x="43.45em">─</tspan>
   <tspan x="44.00em">─</tspan>
   <tspan x="44.55em">─</tspan>
   <tspan x="45.10em">─</tspan>
   <tspan x="45.65em">─</tspan>
   <tspan x="46.20em">─</tspan>
   <tspan x="46.75em">─</tspan>
   <tspan x="47.30em">─</tspan>
   <tspan x="47.85em">─</tspan>
   <tspan x="48.40em">─</tspan>
   <tspan x="48.95em">┘</tspan>
   <tspan x="49.50em">└</tspan>
   <tspan x="50.05em">─</tspan>
   <tspan x="50.60em">─</tspan>
   <tspan x="51.15em">─</tspan>
   <tspan x="51.70em">─</tspan>
   <tspan x="52.25em">─</tspan>
   <tspan x="52.80em">─</tspan>
   <tspan x="53.35em">─</tspan>
   <tspan x="53.90em">─</tspan>
   <tspan x="54.45em">─</tspan>
   <tspan x="55.00em">─</tspan>
   <tspan x="55.55em">─</tspan>
   <tspan x="56.10em">─</tspan>
   <tspan x="56.65em">─</tspan>
   <tspan x="57.20em">─</tspan>
   <tspan x="57.75em">─</tspan>
   <tspan x="58.30em">─</tspan>
   <tspan x="58.85em">─</tspan>
   <tspan x="59.40em">─</tspan>
   <tspan x="59.95em">─</tspan>
   <tspan x="60.50em">─</tspan>
   <tspan x="61.05em">─</tspan>
   <tspan x="61.60em">─</tspan>
   <tspan x="62.15em">─</tspan>
   <tspan x="62.70em">─</tspan>
   <tspan x="63.25em">─</tspan>
   <tspan x="63.80em">─</tspan>
   <tspan x="64.35em">─</tspan>
   <tspan x="64.90em">─</tspan>
   <tspan x="65.45em">┘</tspan>
  </tspan>
 </text>
</svg>