<svg xmlns="http://www.w3.org/2000/svg" width="33.00em" height="28.25em">
 <style>svg {
  dominant-baseline: hanging;
  font-size: 1rem;
}
</style>
 <g shape-rendering="crispEdges">
  <rect x="0.00em" y="0.00em" width="33.00em" height="28.25em" fill="#000000" />
  <rect x="0.00em" y="0.00em" width="33.00em" height="1.13em" fill="#000000" />
  <rect x="0.00em" y="1.13em" width="33.00em" height="1.13em" fill="#000000" />
  <rect x="0.00em" y="2.26em" width="33.00em" height="1.13em" fill="#000000" />
  <rect x="0.00em" y="3.39em" width="33.00em" height="1.13em" fill="#000000" />
  <rect x="0.00em" y="4.52em" width="33.00em" height="1.13em" fill="#000000" />
  <rect x="0.00em" y="5.65em" width="33.00em" height="1.13em" fill="#000000" />
  <rect x="0.00em" y="6.78em" width="33.00em" height="1.13em" fill="#000000" />
  <rect x="0.00em" y="7.91em" width="33.00em" height="1.13em" fill="#000000" />
  <rect x="0.00em" y="9.04em" width="33.00em" height="1.13em" fill="#000000" />
  <rect x="0.00em" y="10.17em" width="33.00em" height="1.13em" fill="#000000" />
  <rect x="0.00em" y="11.30em" width="33.00em" height="1.13em" fill="#000000" />
  <rect x="0.00em" y="12.43em" width="33.00em" height="1.13em" fill="#000000" />
  <rect x="0.00em" y="13.56em" width="33.00em" height="1.13em" fill="#000000" />
  <rect x="0.00em" y="14.69em" width="33.00em" height="1.13em" fill="#000000" />
  <rect x="0.00em" y="15.82em" width="33.00em" height="1.13em" fill="#000000" />
  <rect x="0.00em" y="16.95em" width="33.00em" height="1.13em" fill="#000000" />
  <rect x="0.00em" y="18.08em" width="33.00em" height="1.13em" fill="#000000" />
  <rect x="0.00em" y="19.21em" width="33.00em" height="1.13em" fill="#000000" />
  <rect x="0.00em" y="20.34em" width="33.00em" height="1.13em" fill="#000000" />
  <rect x="0.00em" y="21.47em" width="33.00em" height="1.13em" fill="#000000" />
  <rect x="0.00em" y="22.60em" width="33.00em" height="1.13em" fill="#000000" />
  <rect x="0.00em" y="23.73em" width="33.00em" height="1.13em" fill="#000000" />
  <rect x="0.00em" y="24.86em" width="33.00em" height="1.13em" fill="#000000" />
  <rect x="0.00em" y="25.99em" width="33.00em" height="1.13em" fill="#000000" />
  <rect x="0.00em" y="27.12em" width="33.00em" height="1.13em" fill="#000000" />
 </g>
 <text fill="#ffffff" font-family="monospace">
  <tspan y="0.00em">
   <tspan x="0.00em">┏</tspan>
   <tspan x="0.55em">━</tspan>
   <tspan x="1.10em">━</tspan>
   <tspan x="1.65em">━</tspan>
   <tspan x="2.20em">━</tspan>
   <tspan x="2.75em">━</tspan>
   <tspan x="3.30em">━</tspan>
   <tspan x="3.85em">━</tspan>
   <tspan x="4.40em">━</tspan>
   <tspan x="4.95em">━</tspan>
   <tspan x="5.50em">━</tspan>
   <tspan x="6.05em">━</tspan>
   <tspan x="6.60em">━</tspan>
   <tspan x="7.15em">━</tspan>
   <tspan x="7.70em">━</tspan>
   <tspan x="8.25em">━</tspan>
   <tspan x="8.80em">━</tspan>
   <tspan x="9.35em">━</tspan>
   <tspan x="9.90em">━</tspan>
   <tspan x="10.45em">━</tspan>
   <tspan x="11.00em">━</tspan>
   <tspan x="11.55em">━</tspan>
   <tspan x="12.10em">━</tspan>
   <tspan x="12.65em">━</tspan>
   <tspan x="13.20em">━</tspan>
   <tspan x="13.75em">━</tspan>
   <tspan x="14.30em">━</tspan>
   <tspan x="14.85em">━</tspan>
   <tspan x="15.40em">━</tspan>
   <tspan x="15.95em">━</tspan>
   <tspan x="16.50em">━</tspan>
   <tspan x="17.05em">━</tspan>
   <tspan x="17.60em">━</tspan>
   <tspan x="18.15em">━</tspan>
   <tspan x="18.70em">━</tspan>
   <tspan x="19.25em">━</tspan>
   <tspan x="19.80em">━</tspan>
   <tspan x="20.35em">━</tspan>
   <tspan x="20.90em">━</tspan>
   <tspan x="21.45em">━</tspan>
   <tspan x="22.00em">━</tspan>
   <tspan x="22.55em">━</tspan>
   <tspan x="23.10em">━</tspan>
   <tspan x="23.65em">━</tspan>
   <tspan x="24.20em">━</tspan>
   <tspan x="24.75em">━</tspan>
   <tspan x="25.30em">━</tspan>
   <tspan x="25.85em">━</tspan>
   <tspan x="26.40em">━</tspan>
   <tspan x="26.95em">━</tspan>
   <tspan x="27.50em">━</tspan>
   <tspan x="28.05em">━</tspan>
   <tspan x="28.60em">━</tspan>
   <tspan x="29.15em">━</tspan>
   <tspan x="29.70em">━</tspan>
   <tspan x="30.25em">━</tspan>
   <tspan x="30.80em">━</tspan>
   <tspan x="31.35em">━</tspan>
   <tspan x="31.90em">━</tspan>
   <tspan x="32.45em">┓</tspan>
  </tspan>
  <tspan y="1.13em">
   <tspan x="0.00em">┃</tspan>
   <tspan x="0.55em">t</tspan>
   <tspan x="15.95em">r</tspan>
   <tspan x="31.90em">t</tspan>
   <tspan x="32.45em">┃</tspan>
  </tspan>
  <tspan y="2.26em">
   <tspan x="0.00em">┃</tspan>
   <tspan x="32.45em">┃</tspan>
  </tspan>
  <tspan y="3.39em">
   <tspan x="0.00em">┃</tspan>
   <tspan x="32.45em">┃</tspan>
  </tspan>
  <tspan y="4.52em">
   <tspan x="0.00em">┃</tspan>
   <tspan x="2.20em">)</tspan>
   <tspan x="32.45em">┃</tspan>
  </tspan>
  <tspan y="5.65em">
   <tspan x="0.00em">┃</tspan>
   <tspan x="32.45em">┃</tspan>
  </tspan>
  <tspan y="6.78em">
   <tspan x="0.00em">┃</tspan>
   <tspan x="32.45em">┃</tspan>
  </tspan>
  <tspan y="7.91em">
   <tspan x="0.00em">┃</tspan>
   <tspan x="32.45em">┃</tspan>
  </tspan>
  <tspan y="9.04em">
   <tspan x="0.00em">┃</tspan>
   <tspan x="14.85em">)</tspan>
   <tspan x="32.45em">┃</tspan>
  </tspan>
  <tspan y="10.17em">
   <tspan x="0.00em">┃</tspan>
   <tspan x="32.45em">┃</tspan>
  </tspan>
  <tspan y="11.30em">
   <tspan x="0.00em">┃</tspan>
   <tspan x="32.45em">┃</tspan>
  </tspan>
  <tspan y="12.43em">
   <tspan x="0.00em">┃</tspan>
   <tspan x="32.45em">┃</tspan>
  </tspan>
  <tspan y="13.56em">
   <tspan x="0.00em">┃</tspan>
   <tspan x="0.55em">t</tspan>
   <tspan x="15.95em">r</tspan>
   <tspan x="31.90em">t</tspan>
   <tspan x="32.45em">┃</tspan>
  </tspan>
  <tspan y="14.69em">
   <tspan x="0.00em">┃</tspan>
   <tspan x="32.45em">┃</tspan>
  </tspan>
  <tspan y="15.82em">
   <tspan x="0.00em">┃</tspan>
   <tspan x="32.45em">┃</tspan>
  </tspan>
  <tspan y="16.95em">
   <tspan x="0.00em">┃</tspan>
   <tspan x="32.45em">┃</tspan>
  </tspan>
  <tspan y="18.08em">
   <tspan x="0.00em">┃</tspan>
   <tspan x="32.45em">┃</tspan>
  </tspan>
  <tspan y="19.21em">
   <tspan x="0.00em">┃</tspan>
   <tspan x="32.45em">┃</tspan>
  </tspan>
  <tspan y="20.34em">
   <tspan x="0.00em">┃</tspan>
   <tspan x="32.45em">┃</tspan>
  </tspan>
  <tspan y="21.47em">
   <tspan x="0.00em">┃</tspan>
   <tspan x="31.90em">)</tspan>
   <tspan x="32.45em">┃</tspan>
  </tspan>
  <tspan y="22.60em">
   <tspan x="0.00em">┃</tspan>
   <tspan x="32.45em">┃</tspan>
  </tspan>
  <tspan y="23.73em">
   <tspan x="0.00em">┃</tspan>
   <tspan x="32.45em">┃</tspan>
  </tspan>
  <tspan y="24.86em">
   <tspan x="0.00em">┃</tspan>
   <tspan x="32.45em">┃</tspan>
  </tspan>
  <tspan y="25.99em">
   <tspan x="0.00em">┃</tspan>
   <tspan x="0.55em">t</tspan>
   <tspan x="15.95em">r</tspan>
   <tspan x="31.90em">t</tspan>
   <tspan x="32.45em">┃</tspan>
  </tspan>
  <tspan y="27.12em">
   <tspan x="0.00em">┗</tspan>
   <tspan x="0.55em">━</tspan>
   <tspan x="1.10em">━</tspan>
   <tspan x="1.65em">━</tspan>
   <tspan x="2.20em">━</tspan>
   <tspan x="2.75em">━</tspan>
   <tspan x="3.30em">━</tspan>
   <tspan x="3.85em">━</tspan>
   <tspan x="4.40em">━</tspan>
   <tspan x="4.95em">━</tspan>
   <tspan x="5.50em">━</tspan>
   <tspan x="6.05em">━</tspan>
   <tspan x="6.60em">━</tspan>
   <tspan x="7.15em">━</tspan>
   <tspan x="7.70em">━</tspan>
   <tspan x="8.25em">━</tspan>
   <tspan x="8.80em">━</tspan>
   <tspan x="9.35em">━</tspan>
   <tspan x="9.90em">━</tspan>
   <tspan x="10.45em">━</tspan>
   <tspan x="11.00em">━</tspan>
   <tspan x="11.55em">━</tspan>
   <tspan x="12.10em">━</tspan>
   <tspan x="12.65em">━</tspan>
   <tspan x="13.20em">━</tspan>
   <tspan x="13.75em">━</tspan>
   <tspan x="14.30em">━</tspan>
   <tspan x="14.85em">━</tspan>
   <tspan x="15.40em">━</tspan>
   <tspan x="15.95em">━</tspan>
   <tspan x="16.50em">━</tspan>
   <tspan x="17.05em">━</tspan>
   <tspan x="17.60em">━</tspan>
   <tspan x="18.15em">━</tspan>
   <tspan x="18.70em">━</tspan>
   <tspan x="19.25em">━</tspan>
   <tspan x="19.80em">━</tspan>
   <tspan x="20.35em">━</tspan>
   <tspan x="20.90em">━</tspan>
   <tspan x="21.45em">━</tspan>
   <tspan x="22.00em">━</tspan>
   <tspan x="22.55em">━</tspan>
   <tspan x="23.10em">━</tspan>
   <tspan x="23.65em">━</tspan>
   <tspan x="24.20em">━</tspan>
   <tspan x="24.75em">━</tspan>
   <tspan x="25.30em">━</tspan>
   <tspan x="25.85em">━</tspan>
   <tspan x="26.40em">━</tspan>
   <tspan x="26.95em">━</tspan>
   <tspan x="27.50em">━</tspan>
   <tspan x="28.05em">━</tspan>
   <tspan x="28.60em">━</tspan>
   <tspan x="29.15em">━</tspan>
   <tspan x="29.70em">━</tspan>
   <tspan x="30.25em">━</tspan>
   <tspan x="30.80em">━</tspan>
   <tspan x="31.35em">━</tspan>
   <tspan x="31.90em">━</tspan>
   <tspan x="32.45em">┛</tspan>
  </tspan>
 </text>
</svg>