<svg xmlns="http://www.w3.org/2000/svg" width="33.00em" height="33.90em">
 <style>svg {
  dominant-baseline: hanging;
  font-size: 1rem;
}
</style>
 <g shape-rendering="crispEdges">
  <rect x="0.00em" y="0.00em" width="33.00em" height="33.90em" fill="#000000" />
  <rect x="0.00em" y="0.00em" width="6.05em" height="1.13em" fill="#000000" />
  <rect x="6.05em" y="0.00em" width="3.85em" height="1.13em" fill="#dc2626" />
  <rect x="9.90em" y="0.00em" width="23.10em" height="1.13em" fill="#000000" />
  <rect x="0.00em" y="1.13em" width="6.05em" height="1.13em" fill="#000000" />
  <rect x="6.05em" y="1.13em" width="0.55em" height="1.13em" fill="#dc2626" />
  <rect x="6.60em" y="1.13em" width="2.75em" height="1.13em" fill="#000000" />
  <rect x="9.35em" y="1.13em" width="0.55em" height="1.13em" fill="#dc2626" />
  <rect x="9.90em" y="1.13em" width="23.10em" height="1.13em" fill="#000000" />
  <rect x="0.00em" y="2.26em" width="6.05em" height="1.13em" fill="#000000" />
  <rect x="6.05em" y="2.26em" width="0.55em" height="1.13em" fill="#dc2626" />
  <rect x="6.60em" y="2.26em" width="2.75em" height="1.13em" fill="#000000" />
  <rect x="9.35em" y="2.26em" width="0.55em" height="1.13em" fill="#dc2626" />
  <rect x="9.90em" y="2.26em" width="23.10em" height="1.13em" fill="#000000" />
  <rect x="0.00em" y="3.39em" width="6.05em" height="1.13em" fill="#000000" />
  <rect x="6.05em" y="3.39em" width="0.55em" height="1.13em" fill="#dc2626" />
  <rect x="6.60em" y="3.39em" width="2.75em" height="1.13em" fill="#000000" />
  <rect x="9.35em" y="3.39em" width="0.55em" height="1.13em" fill="#dc2626" />
  <rect x="9.90em" y="3.39em" width="23.10em" height="1.13em" fill="#000000" />
  <rect x="0.00em" y="4.52em" width="6.05em" height="1.13em" fill="#000000" />
  <rect x="6.05em" y="4.52em" width="0.55em" height="1.13em" fill="#dc2626" />
  <rect x="6.60em" y="4.52em" width="2.75em" height="1.13em" fill="#000000" />
  <rect x="9.35em" y="4.52em" width="0.55em" height="1.13em" fill="#dc2626" />
  <rect x="9.90em" y="4.52em" width="23.10em" height="1.13em" fill="#000000" />
  <rect x="0.00em" y="5.65em" width="6.05em" height="1.13em" fill="#000000" />
  <rect x="6.05em" y="5.65em" width="0.55em" height="1.13em" fill="#dc2626" />
  <rect x="6.60em" y="5.65em" width="2.75em" height="1.13em" fill="#000000" />
  <rect x="9.35em" y="5.65em" width="0.55em" height="1.13em" fill="#dc2626" />
  <rect x="9.90em" y="5.65em" width="23.10em" height="1.13em" fill="#000000" />
  <rect x="0.00em" y="6.78em" width="6.05em" height="1.13em" fill="#000000" />
  <rect x="6.05em" y="6.78em" width="3.85em" height="1.13em" fill="#dc2626" />
  <rect x="9.90em" y="6.78em" width="23.10em" height="1.13em" fill="#000000" />
  <rect x="0.00em" y="7.91em" width="0.55em" height="1.13em" fill="#000000" />
  <rect x="0.55em" y="7.91em" width="3.85em" height="1.13em" fill="#dc2626" />
  <rect x="4.40em" y="7.91em" width="28.60em" height="1.13em" fill="#000000" />
  <rect x="0.00em" y="9.04em" width="0.55em" height="1.13em" fill="#000000" />
  <rect x="0.55em" y="9.04em" width="0.55em" height="1.13em" fill="#dc2626" />
  <rect x="1.10em" y="9.04em" width="2.75em" height="1.13em" fill="#000000" />
  <rect x="3.85em" y="9.04em" width="0.55em" height="1.13em" fill="#dc2626" />
  <rect x="4.40em" y="9.04em" width="28.60em" height="1.13em" fill="#000000" />
  <rect x="0.00em" y="10.17em" width="0.55em" height="1.13em" fill="#000000" />
  <rect x="0.55em" y="10.17em" width="0.55em" height="1.13em" fill="#dc2626" />
  <rect x="1.10em" y="10.17em" width="2.75em" height="1.13em" fill="#000000" />
  <rect x="3.85em" y="10.17em" width="0.55em" height="1.13em" fill="#dc2626" />
  <rect x="4.40em" y="10.17em" width="28.60em" height="1.13em" fill="#000000" />
  <rect x="0.00em" y="11.30em" width="0.55em" height="1.13em" fill="#000000" />
  <rect x="0.55em" y="11.30em" width="0.55em" height="1.13em" fill="#dc2626" />
  <rect x="1.10em" y="11.30em" width="2.75em" height="1.13em" fill="#000000" />
  <rect x="3.85em" y="11.30em" width="0.55em" height="1.13em" fill="#dc2626" />
  <rect x="4.40em" y="11.30em" width="14.30em" height="1.13em" fill="#000000" />
  <rect x="18.70em" y="11.30em" width="3.85em" height="1.13em" fill="#dc2626" />
  <rect x="22.55em" y="11.30em" width="10.45em" height="1.13em" fill="#000000" />
  <rect x="0.00em" y="12.43em" width="0.55em" height="1.13em" fill="#000000" />
  <rect x="0.55em" y="12.43em" width="0.55em" height="1.13em" fill="#dc2626" />
  <rect x="1.10em" y="12.43em" width="2.75em" height="1.13em" fill="#000000" />
  <rect x="3.85em" y="12.43em" width="0.55em" height="1.13em" fill="#dc2626" />
  <rect x="4.40em" y="12.43em" width="14.30em" height="1.13em" fill="#000000" />
  <rect x="18.70em" y="12.43em" width="0.55em" height="1.13em" fill="#dc2626" />
  <rect x="19.25em" y="12.43em" width="2.75em" height="1.13em" fill="#000000" />
  <rect x="22.00em" y="12.43em" width="0.55em" height="1.13em" fill="#dc2626" />
  <rect x="22.55em" y="12.43em" width="10.45em" height="1.13em" fill="#000000" />
  <rect x="0.00em" y="13.56em" width="0.55em" height="1.13em" fill="#000000" />
  <rect x="0.55em" y="13.56em" width="0.55em" height="1.13em" fill="#dc2626" />
  <rect x="1.10em" y="13.56em" width="2.75em" height="1.13em" fill="#000000" />
  <rect x="3.85em" y="13.56em" width="0.55em" height="1.13em" fill="#dc2626" />
  <rect x="4.40em" y="13.56em" width="14.30em" height="1.13em" fill="#000000" />
  <rect x="18.70em" y="13.56em" width="0.55em" height="1.13em" fill="#dc2626" />
  <rect x="19.25em" y="13.56em" width="2.75em" height="1.13em" fill="#000000" />
  <rect x="22.00em" y="13.56em" width="0.55em" height="1.13em" fill="#dc2626" />
  <rect x="22.55em" y="13.56em" width="10.45em" height="1.13em" fill="#000000" />
  <rect x="0.00em" y="14.69em" width="0.55em" height="1.13em" fill="#000000" />
  <rect x="0.55em" y="14.69em" width="3.85em" height="1.13em" fill="#dc2626" />
  <rect x="4.40em" y="14.69em" width="14.30em" height="1.13em" fill="#000000" />
  <rect x="18.70em" y="14.69em" width="0.55em" height="1.13em" fill="#dc2626" />
  <rect x="19.25em" y="14.69em" width="2.75em" height="1.13em" fill="#000000" />
  <rect x="22.00em" y="14.69em" width="0.55em" height="1.13em" fill="#dc2626" />
  <rect x="22.55em" y="14.69em" width="10.45em" height="1.13em" fill="#000000" />
  <rect x="0.00em" y="15.82em" width="18.70em" height="1.13em" fill="#000000" />
  <rect x="18.70em" y="15.82em" width="0.55em" height="1.13em" fill="#dc2626" />
  <rect x="19.25em" y="15.82em" width="2.75em" height="1.13em" fill="#000000" />
  <rect x="22.00em" y="15.82em" width="0.55em" height="1.13em" fill="#dc2626" />
  <rect x="22.55em" y="15.82em" width="10.45em" height="1.13em" fill="#000000" />
  <rect x="0.00em" y="16.95em" width="6.05em" height="1.13em" fill="#000000" />
  <rect x="6.05em" y="16.95em" width="3.85em" height="1.13em" fill="#d97706" />
  <rect x="9.90em" y="16.95em" width="8.80em" height="1.13em" fill="#000000" />
  <rect x="18.70em" y="16.95em" width="0.55em" height="1.13em" fill="#dc2626" />
  <rect x="19.25em" y="16.95em" width="2.75em" height="1.13em" fill="#000000" />
  <rect x="22.00em" y="16.95em" width="0.55em" height="1.13em" fill="#dc2626" />
  <rect x="22.55em" y="16.95em" width="10.45em" height="1.13em" fill="#000000" />
  <rect x="0.00em" y="18.08em" width="6.05em" height="1.13em" fill="#000000" />
  <rect x="6.05em" y="18.08em" width="0.55em" height="1.13em" fill="#d97706" />
  <rect x="6.60em" y="18.08em" width="2.75em" height="1.13em" fill="#000000" />
  <rect x="9.35em" y="18.08em" width="0.55em" height="1.13em" fill="#d97706" />
  <rect x="9.90em" y="18.08em" width="8.80em" height="1.13em" fill="#000000" />
  <rect x="18.70em" y="18.08em" width="3.85em" height="1.13em" fill="#dc2626" />
  <rect x="22.55em" y="18.08em" width="10.45em" height="1.13em" fill="#000000" />
  <rect x="0.00em" y="19.21em" width="6.05em" height="1.13em" fill="#000000" />
  <rect x="6.05em" y="19.21em" width="0.55em" height="1.13em" fill="#d97706" />
  <rect x="6.60em" y="19.21em" width="2.75em" height="1.13em" fill="#000000" />
  <rect x="9.35em" y="19.21em" width="0.55em" height="1.13em" fill="#d97706" />
  <rect x="9.90em" y="19.21em" width="23.10em" height="1.13em" fill="#000000" />
  <rect x="0.00em" y="20.34em" width="6.05em" height="1.13em" fill="#000000" />
  <rect x="6.05em" y="20.34em" width="0.55em" height="1.13em" fill="#d97706" />
  <rect x="6.60em" y="20.34em" width="2.75em" height="1.13em" fill="#000000" />
  <rect x="9.35em" y="20.34em" width="0.55em" height="1.13em" fill="#d97706" />
  <rect x="9.90em" y="20.34em" width="23.10em" height="1.13em" fill="#000000" />
  <rect x="0.00em" y="21.47em" width="6.05em" height="1.13em" fill="#000000" />
  <rect x="6.05em" y="21.47em" width="0.55em" height="1.13em" fill="#d97706" />
  <rect x="6.60em" y="21.47em" width="2.75em" height="1.13em" fill="#000000" />
  <rect x="9.35em" y="21.47em" width="0.55em" height="1.13em" fill="#d97706" />
  <rect x="9.90em" y="21.47em" width="23.10em" height="1.13em" fill="#000000" />
  <rect x="0.00em" y="22.60em" width="6.05em" height="1.13em" fill="#000000" />
  <rect x="6.05em" y="22.60em" width="0.55em" height="1.13em" fill="#d97706" />
  <rect x="6.60em" y="22.60em" width="2.75em" height="1.13em" fill="#000000" />
  <rect x="9.35em" y="22.60em" width="0.55em" height="1.13em" fill="#d97706" />
  <rect x="9.90em" y="22.60em" width="23.10em" height="1.13em" fill="#000000" />
  <rect x="0.00em" y="23.73em" width="6.05em" height="1.13em" fill="#000000" />
  <rect x="6.05em" y="23.73em" width="3.85em" height="1.13em" fill="#d97706" />
  <rect x="9.90em" y="23.73em" width="23.10em" height="1.13em" fill="#000000" />
  <rect x="0.00em" y="24.86em" width="0.55em" height="1.13em" fill="#000000" />
  <rect x="0.55em" y="24.86em" width="3.85em" height="1.13em" fill="#d97706" />
  <rect x="4.40em" y="24.86em" width="28.60em" height="1.13em" fill="#000000" />
  <rect x="0.00em" y="25.99em" width="0.55em" height="1.13em" fill="#000000" />
  <rect x="0.55em" y="25.99em" width="0.55em" height="1.13em" fill="#d97706" />
  <rect x="1.10em" y="25.99em" width="2.75em" height="1.13em" fill="#000000" />
  <rect x="3.85em" y="25.99em" width="0.55em" height="1.13em" fill="#d97706" />
  <rect x="4.40em" y="25.99em" width="28.60em" height="1.13em" fill="#000000" />
  <rect x="0.00em" y="27.12em" width="0.55em" height="1.13em" fill="#000000" />
  <rect x="0.55em" y="27.12em" width="0.55em" height="1.13em" fill="#d97706" />
  <rect x="1.10em" y="27.12em" width="2.75em" height="1.13em" fill="#000000" />
  <rect x="3.85em" y="27.12em" width="0.55em" height="1.13em" fill="#d97706" />
  <rect x="4.40em" y="27.12em" width="28.60em" height="1.13em" fill="#000000" />
  <rect x="0.00em" y="28.25em" width="0.55em" height="1.13em" fill="#000000" />
  <rect x="0.55em" y="28.25em" width="0.55em" height="1.13em" fill="#d97706" />
  <rect x="1.10em" y="28.25em" width="2.75em" height="1.13em" fill="#000000" />
  <rect x="3.85em" y="28.25em" width="0.55em" height="1.13em" fill="#d97706" />
  <rect x="4.40em" y="28.25em" width="14.30em" height="1.13em" fill="#000000" />
  <rect x="18.70em" y="28.25em" width="3.85em" height="1.13em" fill="#d97706" />
  <rect x="22.55em" y="28.25em" width="10.45em" height="1.13em" fill="#000000" />
  <rect x="0.00em" y="29.38em" width="0.55em" height="1.13em" fill="#000000" />
  <rect x="0.55em" y="29.38em" width="0.55em" height="1.13em" fill="#d97706" />
  <rect x="1.10em" y="29.38em" width="2.75em" height="1.13em" fill="#000000" />
  <rect x="3.85em" y="29.38em" width="0.55em" height="1.13em" fill="#d97706" />
  <rect x="4.40em" y="29.38em" width="14.30em" height="1.13em" fill="#000000" />
  <rect x="18.70em" y="29.38em" width="0.55em" height="1.13em" fill="#d97706" />
  <rect x="19.25em" y="29.38em" width="2.75em" height="1.13em" fill="#000000" />
  <rect x="22.00em" y="29.38em" width="0.55em" height="1.13em" fill="#d97706" />
  <rect x="22.55em" y="29.38em" width="10.45em" height="1.13em" fill="#000000" />
  <rect x="0.00em" y="30.51em" width="0.55em" height="1.13em" fill="#000000" />
  <rect x="0.55em" y="30.51em" width="0.55em" height="1.13em" fill="#d97706" />
  <rect x="1.10em" y="30.51em" width="2.75em" height="1.13em" fill="#000000" />
  <rect x="3.85em" y="30.51em" width="0.55em" height="1.13em" fill="#d97706" />
  <rect x="4.40em" y="30.51em" width="14.30em" height="1.13em" fill="#000000" />
  <rect x="18.70em" y="30.51em" width="0.55em" height="1.13em" fill="#d97706" />
  <rect x="19.25em" y="30.51em" width="2.75em" height="1.13em" fill="#000000" />
  <rect x="22.00em" y="30.51em" width="0.55em" height="1.13em" fill="#d97706" />
  <rect x="22.55em" y="30.51em" width="10.45em" height="1.13em" fill="#000000" />
  <rect x="0.00em" y="31.64em" width="0.55em" height="1.13em" fill="#000000" />
  <rect x="0.55em" y="31.64em" width="3.85em" height="1.13em" fill="#d97706" />
  <rect x="4.40em" y="31.64em" width="14.30em" height="1.13em" fill="#000000" />
  <rect x="18.70em" y="31.64em" width="0.55em" height="1.13em" fill="#d97706" />
  <rect x="19.25em" y="31.64em" width="2.75em" height="1.13em" fill="#000000" />
  <rect x="22.00em" y="31.64em" width="0.55em" height="1.13em" fill="#d97706" />
  <rect x="22.55em" y="31.64em" width="10.45em" height="1.13em" fill="#000000" />
  <rect x="0.00em" y="32.77em" width="18.70em" height="1.13em" fill="#000000" />
  <rect x="18.70em" y="32.77em" width="0.55em" height="1.13em" fill="#d97706" />
  <rect x="19.25em" y="32.77em" width="2.75em" height="1.13em" fill="#000000" />
  <rect x="22.00em" y="32.77em" width="0.55em" height="1.13em" fill="#d97706" />
  <rect x="22.55em" y="32.77em" width="10.45em" height="1.13em" fill="#000000" />
 </g>
 <text fill="#ffffff" font-family="monospace">
  <tspan y="0.00em" />
  <tspan y="1.13em">
   <tspan x="6.60em">┌</tspan>
   <tspan x="7.15em">─</tspan>
   <tspan x="7.70em">─</tspan>
   <tspan x="8.25em">─</tspan>
   <tspan x="8.80em">┐</tspan>
  </tspan>
  <tspan y="2.26em">
   <tspan x="6.60em">│</tspan>
   <tspan x="8.80em">│</tspan>
  </tspan>
  <tspan y="3.39em">
   <tspan x="6.60em">│</tspan>
   <tspan x="7.70em">)</tspan>
   <tspan x="8.80em">│</tspan>
  </tspan>
  <tspan y="4.52em">
   <tspan x="6.60em">│</tspan>
   <tspan x="8.80em">│</tspan>
  </tspan>
  <tspan y="5.65em">
   <tspan x="6.60em">└</tspan>
   <tspan x="7.15em">─</tspan>
   <tspan x="7.70em">─</tspan>
   <tspan x="8.25em">─</tspan>
   <tspan x="8.80em">┘</tspan>
  </tspan>
  <tspan y="6.78em">
   <tspan x="0.00em">┏</tspan>
   <tspan x="0.55em">━</tspan>
   <tspan x="1.10em">┓</tspan>
  </tspan>
  <tspan y="7.91em">
   <tspan x="0.00em">┃</tspan>
  </tspan>
  <tspan y="9.04em">
   <tspan x="0.00em">┗</tspan>
   <tspan x="1.10em">┌</tspan>
   <tspan x="1.65em">─</tspan>
   <tspan x="2.20em">─</tspan>
   <tspan x="2.75em">─</tspan>
   <tspan x="3.30em">┐</tspan>
  </tspan>
  <tspan y="10.17em">
   <tspan x="1.10em">│</tspan>
   <tspan x="3.30em">│</tspan>
  </tspan>
  <tspan y="11.30em">
   <tspan x="1.10em">│</tspan>
   <tspan x="2.20em">)</tspan>
   <tspan x="3.30em">│</tspan>
  </tspan>
  <tspan y="12.43em">
   <tspan x="1.10em">│</tspan>
   <tspan x="3.30em">│</tspan>
   <tspan x="19.25em">┌</tspan>
   <tspan x="19.80em">─</tspan>
   <tspan x="20.35em">─</tspan>
   <tspan x="20.90em">─</tspan>
   <tspan x="21.45em">┐</tspan>
  </tspan>
  <tspan y="13.56em">
   <tspan x="1.10em">└</tspan>
   <tspan x="1.65em">─</tspan>
   <tspan x="2.20em">─</tspan>
   <tspan x="2.75em">─</tspan>
   <tspan x="3.30em">┘</tspan>
   <tspan x="19.25em">│</tspan>
   <tspan x="21.45em">│</tspan>
  </tspan>
  <tspan y="14.69em">
   <tspan x="19.25em">│</tspan>
   <tspan x="20.35em">)</tspan>
   <tspan x="21.45em">│</tspan>
  </tspan>
  <tspan y="15.82em">
   <tspan x="19.25em">│</tspan>
   <tspan x="21.45em">│</tspan>
  </tspan>
  <tspan y="16.95em">
   <tspan x="19.25em">└</tspan>
   <tspan x="19.80em">─</tspan>
   <tspan x="20.35em">─</tspan>
   <tspan x="20.90em">─</tspan>
   <tspan x="21.45em">┘</tspan>
  </tspan>
  <tspan y="18.08em">
   <tspan x="6.60em">┌</tspan>
   <tspan x="7.15em">─</tspan>
   <tspan x="7.70em">─</tspan>
   <tspan x="8.25em">─</tspan>
   <tspan x="8.80em">┐</tspan>
  </tspan>
  <tspan y="19.21em">
   <tspan x="6.60em">│</tspan>
   <tspan x="8.80em">│</tspan>
  </tspan>
  <tspan y="20.34em">
   <tspan x="6.60em">│</tspan>
   <tspan x="7.70em">)</tspan>
   <tspan x="8.80em">│</tspan>
  </tspan>
  <tspan y="21.47em">
   <tspan x="6.60em">│</tspan>
   <tspan x="8.80em">│</tspan>
  </tspan>
  <tspan y="22.60em">
   <tspan x="6.60em">└</tspan>
   <tspan x="7.15em">─</tspan>
   <tspan x="7.70em">─</tspan>
   <tspan x="8.25em">─</tspan>
   <tspan x="8.80em">┘</tspan>
  </tspan>
  <tspan y="23.73em">
   <tspan x="0.00em">┏</tspan>
   <tspan x="0.55em">━</tspan>
   <tspan x="1.10em">┓</tspan>
  </tspan>
  <tspan y="24.86em">
   <tspan x="0.00em">┃</tspan>
  </tspan>
  <tspan y="25.99em">
   <tspan x="0.00em">┗</tspan>
   <tspan x="1.10em">┌</tspan>
   <tspan x="1.65em">─</tspan>
   <tspan x="2.20em">─</tspan>
   <tspan x="2.75em">─</tspan>
   <tspan x="3.30em">┐</tspan>
  </tspan>
  <tspan y="27.12em">
   <tspan x="1.10em">│</tspan>
   <tspan x="3.30em">│</tspan>
  </tspan>
  <tspan y="28.25em">
   <tspan x="1.10em">│</tspan>
   <tspan x="2.20em">)</tspan>
   <tspan x="3.30em">│</tspan>
  </tspan>
  <tspan y="29.38em">
   <tspan x="1.10em">│</tspan>
   <tspan x="3.30em">│</tspan>
   <tspan x="19.25em">┌</tspan>
   <tspan x="19.80em">─</tspan>
   <tspan x="20.35em">─</tspan>
   <tspan x="20.90em">─</tspan>
   <tspan x="21.45em">┐</tspan>
  </tspan>
  <tspan y="30.51em">
   <tspan x="1.10em">└</tspan>
   <tspan x="1.65em">─</tspan>
   <tspan x="2.20em">─</tspan>
   <tspan x="2.75em">─</tspan>
   <tspan x="3.30em">┘</tspan>
   <tspan x="19.25em">│</tspan>
   <tspan x="21.45em">│</tspan>
  </tspan>
  <tspan y="31.64em">
   <tspan x="19.25em">│</tspan>
   <tspan x="20.35em">)</tspan>
   <tspan x="21.45em">│</tspan>
  </tspan>
  <tspan y="32.77em">
   <tspan x="19.25em">│</tspan>
   <tspan x="21.45em">│</tspan>
  </tspan>
 </text>
</svg>