<svg xmlns="http://www.w3.org/2000/svg" width="33.00em" height="33.90em">
 <style>svg {
  dominant-baseline: hanging;
  font-size: 1rem;
}
</style>
 <g shape-rendering="crispEdges">
  <rect x="0.00em" y="0.00em" width="33.00em" height="33.90em" fill="#000000" />
  <rect x="0.00em" y="0.00em" width="13.20em" height="1.13em" fill="#dc2626" />
  <rect x="13.20em" y="0.00em" width="19.80em" height="1.13em" fill="#000000" />
  <rect x="0.00em" y="1.13em" width="0.55em" height="1.13em" fill="#dc2626" />
  <rect x="0.55em" y="1.13em" width="12.10em" height="1.13em" fill="#1e40af" />
  <rect x="12.65em" y="1.13em" width="0.55em" height="1.13em" fill="#dc2626" />
  <rect x="13.20em" y="1.13em" width="19.80em" height="1.13em" fill="#000000" />
  <rect x="0.00em" y="2.26em" width="0.55em" height="1.13em" fill="#dc2626" />
  <rect x="0.55em" y="2.26em" width="0.55em" height="1.13em" fill="#1e40af" />
  <rect x="1.10em" y="2.26em" width="11.00em" height="1.13em" fill="#f59e0b" />
  <rect x="12.10em" y="2.26em" width="0.55em" height="1.13em" fill="#1e40af" />
  <rect x="12.65em" y="2.26em" width="0.55em" height="1.13em" fill="#dc2626" />
  <rect x="13.20em" y="2.26em" width="19.80em" height="1.13em" fill="#000000" />
  <rect x="0.00em" y="3.39em" width="0.55em" height="1.13em" fill="#dc2626" />
  <rect x="0.55em" y="3.39em" width="0.55em" height="1.13em" fill="#1e40af" />
  <rect x="1.10em" y="3.39em" width="0.55em" height="1.13em" fill="#f59e0b" />
  <rect x="11.55em" y="3.39em" width="0.55em" height="1.13em" fill="#f59e0b" />
  <rect x="12.10em" y="3.39em" width="0.55em" height="1.13em" fill="#1e40af" />
  <rect x="12.65em" y="3.39em" width="0.55em" height="1.13em" fill="#dc2626" />
  <rect x="18.15em" y="3.39em" width="13.75em" height="1.13em" fill="#dc2626" />
  <rect x="31.90em" y="3.39em" width="1.10em" height="1.13em" fill="#000000" />
  <rect x="0.00em" y="4.52em" width="0.55em" height="1.13em" fill="#dc2626" />
  <rect x="0.55em" y="4.52em" width="0.55em" height="1.13em" fill="#1e40af" />
  <rect x="1.10em" y="4.52em" width="11.00em" height="1.13em" fill="#f59e0b" />
  <rect x="12.10em" y="4.52em" width="0.55em" height="1.13em" fill="#1e40af" />
  <rect x="12.65em" y="4.52em" width="0.55em" height="1.13em" fill="#dc2626" />
  <rect x="18.15em" y="4.52em" width="0.55em" height="1.13em" fill="#dc2626" />
  <rect x="18.70em" y="4.52em" width="12.65em" height="1.13em" fill="#1e40af" />
  <rect x="31.35em" y="4.52em" width="0.55em" height="1.13em" fill="#dc2626" />
  <rect x="31.90em" y="4.52em" width="1.10em" height="1.13em" fill="#000000" />
  <rect x="0.00em" y="5.65em" width="0.55em" height="1.13em" fill="#dc2626" />
  <rect x="0.55em" y="5.65em" width="12.10em" height="1.13em" fill="#1e40af" />
  <rect x="12.65em" y="5.65em" width="0.55em" height="1.13em" fill="#dc2626" />
  <rect x="18.15em" y="5.65em" width="0.55em" height="1.13em" fill="#dc2626" />
  <rect x="18.70em" y="5.65em" width="0.55em" height="1.13em" fill="#1e40af" />
  <rect x="19.25em" y="5.65em" width="11.55em" height="1.13em" fill="#f59e0b" />
  <rect x="30.80em" y="5.65em" width="0.55em" height="1.13em" fill="#1e40af" />
  <rect x="31.35em" y="5.65em" width="0.55em" height="1.13em" fill="#dc2626" />
  <rect x="31.90em" y="5.65em" width="1.10em" height="1.13em" fill="#000000" />
  <rect x="0.00em" y="6.78em" width="13.20em" height="1.13em" fill="#dc2626" />
  <rect x="18.15em" y="6.78em" width="0.55em" height="1.13em" fill="#dc2626" />
  <rect x="18.70em" y="6.78em" width="0.55em" height="1.13em" fill="#1e40af" />
  <rect x="19.25em" y="6.78em" width="0.55em" height="1.13em" fill="#f59e0b" />
  <rect x="30.25em" y="6.78em" width="0.55em" height="1.13em" fill="#f59e0b" />
  <rect x="30.80em" y="6.78em" width="0.55em" height="1.13em" fill="#1e40af" />
  <rect x="31.35em" y="6.78em" width="0.55em" height="1.13em" fill="#dc2626" />
  <rect x="31.90em" y="6.78em" width="1.10em" height="1.13em" fill="#000000" />
  <rect x="18.15em" y="7.91em" width="0.55em" height="1.13em" fill="#dc2626" />
  <rect x="18.70em" y="7.91em" width="0.55em" height="1.13em" fill="#1e40af" />
  <rect x="19.25em" y="7.91em" width="11.55em" height="1.13em" fill="#f59e0b" />
  <rect x="30.80em" y="7.91em" width="0.55em" height="1.13em" fill="#1e40af" />
  <rect x="31.35em" y="7.91em" width="0.55em" height="1.13em" fill="#dc2626" />
  <rect x="31.90em" y="7.91em" width="1.10em" height="1.13em" fill="#000000" />
  <rect x="18.15em" y="9.04em" width="0.55em" height="1.13em" fill="#dc2626" />
  <rect x="18.70em" y="9.04em" width="12.65em" height="1.13em" fill="#1e40af" />
  <rect x="31.35em" y="9.04em" width="0.55em" height="1.13em" fill="#dc2626" />
  <rect x="31.90em" y="9.04em" width="1.10em" height="1.13em" fill="#000000" />
  <rect x="18.15em" y="10.17em" width="13.75em" height="1.13em" fill="#dc2626" />
  <rect x="31.90em" y="10.17em" width="1.10em" height="1.13em" fill="#000000" />
  <rect x="5.50em" y="11.30em" width="14.30em" height="1.13em" fill="#dc2626" />
  <rect x="19.80em" y="11.30em" width="13.20em" height="1.13em" fill="#000000" />
  <rect x="5.50em" y="12.43em" width="0.55em" height="1.13em" fill="#dc2626" />
  <rect x="6.05em" y="12.43em" width="13.20em" height="1.13em" fill="#1e40af" />
  <rect x="19.25em" y="12.43em" width="0.55em" height="1.13em" fill="#dc2626" />
  <rect x="19.80em" y="12.43em" width="13.20em" height="1.13em" fill="#000000" />
  <rect x="5.50em" y="13.56em" width="0.55em" height="1.13em" fill="#dc2626" />
  <rect x="6.05em" y="13.56em" width="0.55em" height="1.13em" fill="#1e40af" />
  <rect x="6.60em" y="13.56em" width="12.10em" height="1.13em" fill="#f59e0b" />
  <rect x="18.70em" y="13.56em" width="0.55em" height="1.13em" fill="#1e40af" />
  <rect x="19.25em" y="13.56em" width="0.55em" height="1.13em" fill="#dc2626" />
  <rect x="19.80em" y="13.56em" width="13.20em" height="1.13em" fill="#000000" />
  <rect x="5.50em" y="14.69em" width="0.55em" height="1.13em" fill="#dc2626" />
  <rect x="6.05em" y="14.69em" width="0.55em" height="1.13em" fill="#1e40af" />
  <rect x="6.60em" y="14.69em" width="0.55em" height="1.13em" fill="#f59e0b" />
  <rect x="18.15em" y="14.69em" width="0.55em" height="1.13em" fill="#f59e0b" />
  <rect x="18.70em" y="14.69em" width="0.55em" height="1.13em" fill="#1e40af" />
  <rect x="19.25em" y="14.69em" width="0.55em" height="1.13em" fill="#dc2626" />
  <rect x="19.80em" y="14.69em" width="13.20em" height="1.13em" fill="#000000" />
  <rect x="5.50em" y="15.82em" width="0.55em" height="1.13em" fill="#dc2626" />
  <rect x="6.05em" y="15.82em" width="0.55em" height="1.13em" fill="#1e40af" />
  <rect x="6.60em" y="15.82em" width="12.10em" height="1.13em" fill="#f59e0b" />
  <rect x="18.70em" y="15.82em" width="0.55em" height="1.13em" fill="#1e40af" />
  <rect x="19.25em" y="15.82em" width="0.55em" height="1.13em" fill="#dc2626" />
  <rect x="19.80em" y="15.82em" width="13.20em" height="1.13em" fill="#000000" />
  <rect x="5.50em" y="16.95em" width="0.55em" height="1.13em" fill="#dc2626" />
  <rect x="6.05em" y="16.95em" width="13.20em" height="1.13em" fill="#1e40af" />
  <rect x="19.25em" y="16.95em" width="0.55em" height="1.13em" fill="#dc2626" />
  <rect x="19.80em" y="16.95em" width="13.20em" height="1.13em" fill="#000000" />
  <rect x="5.50em" y="18.08em" width="14.30em" height="1.13em" fill="#dc2626" />
  <rect x="19.80em" y="18.08em" width="13.20em" height="1.13em" fill="#000000" />
  <rect x="0.00em" y="19.21em" width="33.00em" height="1.13em" fill="#000000" />
  <rect x="0.00em" y="20.34em" width="33.00em" height="1.13em" fill="#000000" />
  <rect x="0.00em" y="21.47em" width="33.00em" height="1.13em" fill="#000000" />
  <rect x="16.50em" y="22.60em" width="14.30em" height="1.13em" fill="#dc2626" />
  <rect x="30.80em" y="22.60em" width="2.20em" height="1.13em" fill="#000000" />
  <rect x="16.50em" y="23.73em" width="0.55em" height="1.13em" fill="#dc2626" />
  <rect x="17.05em" y="23.73em" width="13.20em" height="1.13em" fill="#1e40af" />
  <rect x="30.25em" y="23.73em" width="0.55em" height="1.13em" fill="#dc2626" />
  <rect x="30.80em" y="23.73em" width="2.20em" height="1.13em" fill="#000000" />
  <rect x="16.50em" y="24.86em" width="0.55em" height="1.13em" fill="#dc2626" />
  <rect x="17.05em" y="24.86em" width="0.55em" height="1.13em" fill="#1e40af" />
  <rect x="17.60em" y="24.86em" width="12.10em" height="1.13em" fill="#f59e0b" />
  <rect x="29.70em" y="24.86em" width="0.55em" height="1.13em" fill="#1e40af" />
  <rect x="30.25em" y="24.86em" width="0.55em" height="1.13em" fill="#dc2626" />
  <rect x="30.80em" y="24.86em" width="2.20em" height="1.13em" fill="#000000" />
  <rect x="16.50em" y="25.99em" width="0.55em" height="1.13em" fill="#dc2626" />
  <rect x="17.05em" y="25.99em" width="0.55em" height="1.13em" fill="#1e40af" />
  <rect x="17.60em" y="25.99em" width="0.55em" height="1.13em" fill="#f59e0b" />
  <rect x="29.15em" y="25.99em" width="0.55em" height="1.13em" fill="#f59e0b" />
  <rect x="29.70em" y="25.99em" width="0.55em" height="1.13em" fill="#1e40af" />
  <rect x="30.25em" y="25.99em" width="0.55em" height="1.13em" fill="#dc2626" />
  <rect x="30.80em" y="25.99em" width="2.20em" height="1.13em" fill="#000000" />
  <rect x="16.50em" y="27.12em" width="0.55em" height="1.13em" fill="#dc2626" />
  <rect x="17.05em" y="27.12em" width="0.55em" height="1.13em" fill="#1e40af" />
  <rect x="17.60em" y="27.12em" width="12.10em" height="1.13em" fill="#f59e0b" />
  <rect x="29.70em" y="27.12em" width="0.55em" height="1.13em" fill="#1e40af" />
  <rect x="30.25em" y="27.12em" width="0.55em" height="1.13em" fill="#dc2626" />
  <rect x="30.80em" y="27.12em" width="2.20em" height="1.13em" fill="#000000" />
  <rect x="8.25em" y="28.25em" width="14.30em" height="1.13em" fill="#dc2626" />
  <rect x="22.55em" y="28.25em" width="7.70em" height="1.13em" fill="#1e40af" />
  <rect x="30.25em" y="28.25em" width="0.55em" height="1.13em" fill="#dc2626" />
  <rect x="30.80em" y="28.25em" width="2.20em" height="1.13em" fill="#000000" />
  <rect x="8.25em" y="29.38em" width="0.55em" height="1.13em" fill="#dc2626" />
  <rect x="8.80em" y="29.38em" width="13.20em" height="1.13em" fill="#1e40af" />
  <rect x="22.00em" y="29.38em" width="8.80em" height="1.13em" fill="#dc2626" />
  <rect x="30.80em" y="29.38em" width="2.20em" height="1.13em" fill="#000000" />
  <rect x="8.25em" y="30.51em" width="0.55em" height="1.13em" fill="#dc2626" />
  <rect x="8.80em" y="30.51em" width="0.55em" height="1.13em" fill="#1e40af" />
  <rect x="9.35em" y="30.51em" width="12.10em" height="1.13em" fill="#f59e0b" />
  <rect x="21.45em" y="30.51em" width="0.55em" height="1.13em" fill="#1e40af" />
  <rect x="22.00em" y="30.51em" width="0.55em" height="1.13em" fill="#dc2626" />
  <rect x="22.55em" y="30.51em" width="10.45em" height="1.13em" fill="#000000" />
  <rect x="8.25em" y="31.64em" width="0.55em" height="1.13em" fill="#dc2626" />
  <rect x="8.80em" y="31.64em" width="0.55em" height="1.13em" fill="#1e40af" />
  <rect x="9.35em" y="31.64em" width="0.55em" height="1.13em" fill="#f59e0b" />
  <rect x="20.90em" y="31.64em" width="0.55em" height="1.13em" fill="#f59e0b" />
  <rect x="21.45em" y="31.64em" width="0.55em" height="1.13em" fill="#1e40af" />
  <rect x="22.00em" y="31.64em" width="0.55em" height="1.13em" fill="#dc2626" />
  <rect x="22.55em" y="31.64em" width="10.45em" height="1.13em" fill="#000000" />
  <rect x="8.25em" y="32.77em" width="0.55em" height="1.13em" fill="#dc2626" />
  <rect x="8.80em" y="32.77em" width="0.55em" height="1.13em" fill="#1e40af" />
  <rect x="9.35em" y="32.77em" width="12.10em" height="1.13em" fill="#f59e0b" />
  <rect x="21.45em" y="32.77em" width="0.55em" height="1.13em" fill="#1e40af" />
  <rect x="22.00em" y="32.77em" width="0.55em" height="1.13em" fill="#dc2626" />
  <rect x="22.55em" y="32.77em" width="10.45em" height="1.13em" fill="#000000" />
 </g>
 <text fill="#ffffff" font-family="monospace">
  <tspan y="0.00em" />
  <tspan y="1.13em">
   <tspan x="0.55em">┏</tspan>
   <tspan x="1.10em">━</tspan>
   <tspan x="1.65em">━</tspan>
   <tspan x="2.20em">━</tspan>
   <tspan x="2.75em">━</tspan>
   <tspan x="3.30em">━</tspan>
   <tspan x="3.85em">━</tspan>
   <tspan x="4.40em">━</tspan>
   <tspan x="4.95em">━</tspan>
   <tspan x="5.50em">━</tspan>
   <tspan x="6.05em">━</tspan>
   <tspan x="6.60em">━</tspan>
   <tspan x="7.15em">━</tspan>
   <tspan x="7.70em">━</tspan>
   <tspan x="8.25em">━</tspan>
   <tspan x="8.80em">━</tspan>
   <tspan x="9.35em">━</tspan>
   <tspan x="9.90em">━</tspan>
   <tspan x="10.45em">━</tspan>
   <tspan x="11.00em">━</tspan>
   <tspan x="11.55em">━</tspan>
   <tspan x="12.10em">┓</tspan>
  </tspan>
  <tspan y="2.26em">
   <tspan x="0.55em">┃</tspan>
   <tspan x="12.10em">┃</tspan>
  </tspan>
  <tspan y="3.39em">
   <tspan x="0.55em">┃</tspan>
   <tspan x="1.65em">a</tspan>
   <tspan x="2.20em">b</tspan>
   <tspan x="2.75em">s</tspan>
   <tspan x="3.30em">o</tspan>
   <tspan x="3.85em">l</tspan>
   <tspan x="4.40em">u</tspan>
   <tspan x="4.95em">t</tspan>
   <tspan x="5.50em">e</tspan>
   <tspan x="6.05em">(</tspan>
   <tspan x="6.60em">x</tspan>
   <tspan x="7.15em">=</tspan>
   <tspan x="7.70em">0</tspan>
   <tspan x="8.25em">,</tspan>
   <tspan x="9.35em">y</tspan>
   <tspan x="9.90em">=</tspan>
   <tspan x="10.45em">0</tspan>
   <tspan x="11.00em">)</tspan>
   <tspan x="12.10em">┃</tspan>
  </tspan>
  <tspan y="4.52em">
   <tspan x="0.55em">┃</tspan>
   <tspan x="12.10em">┃</tspan>
   <tspan x="18.70em">┏</tspan>
   <tspan x="19.25em">━</tspan>
   <tspan x="19.80em">━</tspan>
   <tspan x="20.35em">━</tspan>
   <tspan x="20.90em">━</tspan>
   <tspan x="21.45em">━</tspan>
   <tspan x="22.00em">━</tspan>
   <tspan x="22.55em">━</tspan>
   <tspan x="23.10em">━</tspan>
   <tspan x="23.65em">━</tspan>
   <tspan x="24.20em">━</tspan>
   <tspan x="24.75em">━</tspan>
   <tspan x="25.30em">━</tspan>
   <tspan x="25.85em">━</tspan>
   <tspan x="26.40em">━</tspan>
   <tspan x="26.95em">━</tspan>
   <tspan x="27.50em">━</tspan>
   <tspan x="28.05em">━</tspan>
   <tspan x="28.60em">━</tspan>
   <tspan x="29.15em">━</tspan>
   <tspan x="29.70em">━</tspan>
   <tspan x="30.25em">━</tspan>
   <tspan x="30.80em">┓</tspan>
  </tspan>
  <tspan y="5.65em">
   <tspan x="0.55em">┗</tspan>
   <tspan x="1.10em">━</tspan>
   <tspan x="1.65em">━</tspan>
   <tspan x="2.20em">━</tspan>
   <tspan x="2.75em">━</tspan>
   <tspan x="3.30em">━</tspan>
   <tspan x="3.85em">━</tspan>
   <tspan x="4.40em">━</tspan>
   <tspan x="4.95em">━</tspan>
   <tspan x="5.50em">━</tspan>
   <tspan x="6.05em">━</tspan>
   <tspan x="6.60em">━</tspan>
   <tspan x="7.15em">━</tspan>
   <tspan x="7.70em">━</tspan>
   <tspan x="8.25em">━</tspan>
   <tspan x="8.80em">━</tspan>
   <tspan x="9.35em">━</tspan>
   <tspan x="9.90em">━</tspan>
   <tspan x="10.45em">━</tspan>
   <tspan x="11.00em">━</tspan>
   <tspan x="11.55em">━</tspan>
   <tspan x="12.10em">┛</tspan>
   <tspan x="18.70em">┃</tspan>
   <tspan x="30.80em">┃</tspan>
  </tspan>
  <tspan y="6.78em">
   <tspan x="18.70em">┃</tspan>
   <tspan x="19.80em">a</tspan>
   <tspan x="20.35em">b</tspan>
   <tspan x="20.90em">s</tspan>
   <tspan x="21.45em">o</tspan>
   <tspan x="22.00em">l</tspan>
   <tspan x="22.55em">u</tspan>
   <tspan x="23.10em">t</tspan>
   <tspan x="23.65em">e</tspan>
   <tspan x="24.20em">(</tspan>
   <tspan x="24.75em">x</tspan>
   <tspan x="25.30em">=</tspan>
   <tspan x="25.85em">3</tspan>
   <tspan x="26.40em">3</tspan>
   <tspan x="26.95em">,</tspan>
   <tspan x="28.05em">y</tspan>
   <tspan x="28.60em">=</tspan>
   <tspan x="29.15em">3</tspan>
   <tspan x="29.70em">)</tspan>
   <tspan x="30.80em">┃</tspan>
  </tspan>
  <tspan y="7.91em">
   <tspan x="18.70em">┃</tspan>
   <tspan x="30.80em">┃</tspan>
  </tspan>
  <tspan y="9.04em">
   <tspan x="18.70em">┗</tspan>
   <tspan x="19.25em">━</tspan>
   <tspan x="19.80em">━</tspan>
   <tspan x="20.35em">━</tspan>
   <tspan x="20.90em">━</tspan>
   <tspan x="21.45em">━</tspan>
   <tspan x="22.00em">━</tspan>
   <tspan x="22.55em">━</tspan>
   <tspan x="23.10em">━</tspan>
   <tspan x="23.65em">━</tspan>
   <tspan x="24.20em">━</tspan>
   <tspan x="24.75em">━</tspan>
   <tspan x="25.30em">━</tspan>
   <tspan x="25.85em">━</tspan>
   <tspan x="26.40em">━</tspan>
   <tspan x="26.95em">━</tspan>
   <tspan x="27.50em">━</tspan>
   <tspan x="28.05em">━</tspan>
   <tspan x="28.60em">━</tspan>
   <tspan x="29.15em">━</tspan>
   <tspan x="29.70em">━</tspan>
   <tspan x="30.25em">━</tspan>
   <tspan x="30.80em">┛</tspan>
  </tspan>
  <tspan y="10.17em" />
  <tspan y="11.30em" />
  <tspan y="12.43em">
   <tspan x="6.05em">┏</tspan>
   <tspan x="6.60em">━</tspan>
   <tspan x="7.15em">━</tspan>
   <tspan x="7.70em">━</tspan>
   <tspan x="8.25em">━</tspan>
   <tspan x="8.80em">━</tspan>
   <tspan x="9.35em">━</tspan>
   <tspan x="9.90em">━</tspan>
   <tspan x="10.45em">━</tspan>
   <tspan x="11.00em">━</tspan>
   <tspan x="11.55em">━</tspan>
   <tspan x="12.10em">━</tspan>
   <tspan x="12.65em">━</tspan>
   <tspan x="13.20em">━</tspan>
   <tspan x="13.75em">━</tspan>
   <tspan x="14.30em">━</tspan>
   <tspan x="14.85em">━</tspan>
   <tspan x="15.40em">━</tspan>
   <tspan x="15.95em">━</tspan>
   <tspan x="16.50em">━</tspan>
   <tspan x="17.05em">━</tspan>
   <tspan x="17.60em">━</tspan>
   <tspan x="18.15em">━</tspan>
   <tspan x="18.70em">┓</tspan>
  </tspan>
  <tspan y="13.56em">
   <tspan x="6.05em">┃</tspan>
   <tspan x="18.70em">┃</tspan>
  </tspan>
  <tspan y="14.69em">
   <tspan x="6.05em">┃</tspan>
   <tspan x="7.15em">a</tspan>
   <tspan x="7.70em">b</tspan>
   <tspan x="8.25em">s</tspan>
   <tspan x="8.80em">o</tspan>
   <tspan x="9.35em">l</tspan>
   <tspan x="9.90em">u</tspan>
   <tspan x="10.45em">t</tspan>
   <tspan x="11.00em">e</tspan>
   <tspan x="11.55em">(</tspan>
   <tspan x="12.10em">x</tspan>
   <tspan x="12.65em">=</tspan>
   <tspan x="13.20em">1</tspan>
   <tspan x="13.75em">0</tspan>
   <tspan x="14.30em">,</tspan>
   <tspan x="15.40em">y</tspan>
   <tspan x="15.95em">=</tspan>
   <tspan x="16.50em">1</tspan>
   <tspan x="17.05em">0</tspan>
   <tspan x="17.60em">)</tspan>
   <tspan x="18.70em">┃</tspan>
  </tspan>
  <tspan y="15.82em">
   <tspan x="6.05em">┃</tspan>
   <tspan x="18.70em">┃</tspan>
  </tspan>
  <tspan y="16.95em">
   <tspan x="6.05em">┗</tspan>
   <tspan x="6.60em">━</tspan>
   <tspan x="7.15em">━</tspan>
   <tspan x="7.70em">━</tspan>
   <tspan x="8.25em">━</tspan>
   <tspan x="8.80em">━</tspan>
   <tspan x="9.35em">━</tspan>
   <tspan x="9.90em">━</tspan>
   <tspan x="10.45em">━</tspan>
   <tspan x="11.00em">━</tspan>
   <tspan x="11.55em">━</tspan>
   <tspan x="12.10em">━</tspan>
   <tspan x="12.65em">━</tspan>
   <tspan x="13.20em">━</tspan>
   <tspan x="13.75em">━</tspan>
   <tspan x="14.30em">━</tspan>
   <tspan x="14.85em">━</tspan>
   <tspan x="15.40em">━</tspan>
   <tspan x="15.95em">━</tspan>
   <tspan x="16.50em">━</tspan>
   <tspan x="17.05em">━</tspan>
   <tspan x="17.60em">━</tspan>
   <tspan x="18.15em">━</tspan>
   <tspan x="18.70em">┛</tspan>
  </tspan>
  <tspan y="18.08em" />
  <tspan y="19.21em" />
  <tspan y="20.34em" />
  <tspan y="21.47em" />
  <tspan y="22.60em" />
  <tspan y="23.73em">
   <tspan x="17.05em">┏</tspan>
   <tspan x="17.60em">━</tspan>
   <tspan x="18.15em">━</tspan>
   <tspan x="18.70em">━</tspan>
   <tspan x="19.25em">━</tspan>
   <tspan x="19.80em">━</tspan>
   <tspan x="20.35em">━</tspan>
   <tspan x="20.90em">━</tspan>
   <tspan x="21.45em">━</tspan>
   <tspan x="22.00em">━</tspan>
   <tspan x="22.55em">━</tspan>
   <tspan x="23.10em">━</tspan>
   <tspan x="23.65em">━</tspan>
   <tspan x="24.20em">━</tspan>
   <tspan x="24.75em">━</tspan>
   <tspan x="25.30em">━</tspan>
   <tspan x="25.85em">━</tspan>
   <tspan x="26.40em">━</tspan>
   <tspan x="26.95em">━</tspan>
   <tspan x="27.50em">━</tspan>
   <tspan x="28.05em">━</tspan>
   <tspan x="28.60em">━</tspan>
   <tspan x="29.15em">━</tspan>
   <tspan x="29.70em">┓</tspan>
  </tspan>
  <tspan y="24.86em">
   <tspan x="17.05em">┃</tspan>
   <tspan x="29.70em">┃</tspan>
  </tspan>
  <tspan y="25.99em">
   <tspan x="17.05em">┃</tspan>
   <tspan x="18.15em">a</tspan>
   <tspan x="18.70em">b</tspan>
   <tspan x="19.25em">s</tspan>
   <tspan x="19.80em">o</tspan>
   <tspan x="20.35em">l</tspan>
   <tspan x="20.90em">u</tspan>
   <tspan x="21.45em">t</tspan>
   <tspan x="22.00em">e</tspan>
   <tspan x="22.55em">(</tspan>
   <tspan x="23.10em">x</tspan>
   <tspan x="23.65em">=</tspan>
   <tspan x="24.20em">3</tspan>
   <tspan x="24.75em">0</tspan>
   <tspan x="25.30em">,</tspan>
   <tspan x="26.40em">y</tspan>
   <tspan x="26.95em">=</tspan>
   <tspan x="27.50em">2</tspan>
   <tspan x="28.05em">0</tspan>
   <tspan x="28.60em">)</tspan>
   <tspan x="29.70em">┃</tspan>
  </tspan>
  <tspan y="27.12em">
   <tspan x="17.05em">┃</tspan>
   <tspan x="29.70em">┃</tspan>
  </tspan>
  <tspan y="28.25em">
   <tspan x="22.55em">━</tspan>
   <tspan x="23.10em">━</tspan>
   <tspan x="23.65em">━</tspan>
   <tspan x="24.20em">━</tspan>
   <tspan x="24.75em">━</tspan>
   <tspan x="25.30em">━</tspan>
   <tspan x="25.85em">━</tspan>
   <tspan x="26.40em">━</tspan>
   <tspan x="26.95em">━</tspan>
   <tspan x="27.50em">━</tspan>
   <tspan x="28.05em">━</tspan>
   <tspan x="28.60em">━</tspan>
   <tspan x="29.15em">━</tspan>
   <tspan x="29.70em">┛</tspan>
  </tspan>
  <tspan y="29.38em">
   <tspan x="8.80em">┏</tspan>
   <tspan x="9.35em">━</tspan>
   <tspan x="9.90em">━</tspan>
   <tspan x="10.45em">━</tspan>
   <tspan x="11.00em">━</tspan>
   <tspan x="11.55em">━</tspan>
   <tspan x="12.10em">━</tspan>
   <tspan x="12.65em">━</tspan>
   <tspan x="13.20em">━</tspan>
   <tspan x="13.75em">━</tspan>
   <tspan x="14.30em">━</tspan>
   <tspan x="14.85em">━</tspan>
   <tspan x="15.40em">━</tspan>
   <tspan x="15.95em">━</tspan>
   <tspan x="16.50em">━</tspan>
   <tspan x="17.05em">━</tspan>
   <tspan x="17.60em">━</tspan>
   <tspan x="18.15em">━</tspan>
   <tspan x="18.70em">━</tspan>
   <tspan x="19.25em">━</tspan>
   <tspan x="19.80em">━</tspan>
   <tspan x="20.35em">━</tspan>
   <tspan x="20.90em">━</tspan>
   <tspan x="21.45em">┓</tspan>
  </tspan>
  <tspan y="30.51em">
   <tspan x="8.80em">┃</tspan>
   <tspan x="21.45em">┃</tspan>
  </tspan>
  <tspan y="31.64em">
   <tspan x="8.80em">┃</tspan>
   <tspan x="9.90em">a</tspan>
   <tspan x="10.45em">b</tspan>
   <tspan x="11.00em">s</tspan>
   <tspan x="11.55em">o</tspan>
   <tspan x="12.10em">l</tspan>
   <tspan x="12.65em">u</tspan>
   <tspan x="13.20em">t</tspan>
   <tspan x="13.75em">e</tspan>
   <tspan x="14.30em">(</tspan>
   <tspan x="14.85em">x</tspan>
   <tspan x="15.40em">=</tspan>
   <tspan x="15.95em">1</tspan>
   <tspan x="16.50em">5</tspan>
   <tspan x="17.05em">,</tspan>
   <tspan x="18.15em">y</tspan>
   <tspan x="18.70em">=</tspan>
   <tspan x="19.25em">2</tspan>
   <tspan x="19.80em">5</tspan>
   <tspan x="20.35em">)</tspan>
   <tspan x="21.45em">┃</tspan>
  </tspan>
  <tspan y="32.77em">
   <tspan x="8.80em">┃</tspan>
   <tspan x="21.45em">┃</tspan>
  </tspan>
 </text>
</svg>