<svg xmlns="http://www.w3.org/2000/svg" width="16.50em" height="13.56em">
 <style>svg {
  dominant-baseline: hanging;
  font-size: 1rem;
}
</style>
 <g shape-rendering="crispEdges">
  <rect x="0.00em" y="0.00em" width="16.50em" height="13.56em" fill="#000000" />
  <rect x="0.00em" y="0.00em" width="16.50em" height="1.13em" fill="#3b82f6" />
  <rect x="0.00em" y="1.13em" width="1.10em" height="1.13em" fill="#3b82f6" />
  <rect x="1.10em" y="1.13em" width="14.30em" height="1.13em" fill="#ef4444" />
  <rect x="15.40em" y="1.13em" width="1.10em" height="1.13em" fill="#3b82f6" />
  <rect x="0.00em" y="2.26em" width="1.10em" height="1.13em" fill="#3b82f6" />
  <rect x="1.10em" y="2.26em" width="0.55em" height="1.13em" fill="#ef4444" />
  <rect x="1.65em" y="2.26em" width="13.20em" height="1.13em" fill="#ec4899" />
  <rect x="14.85em" y="2.26em" width="0.55em" height="1.13em" fill="#ef4444" />
  <rect x="15.40em" y="2.26em" width="1.10em" height="1.13em" fill="#3b82f6" />
  <rect x="0.00em" y="3.39em" width="1.10em" height="1.13em" fill="#3b82f6" />
  <rect x="1.10em" y="3.39em" width="0.55em" height="1.13em" fill="#ef4444" />
  <rect x="1.65em" y="3.39em" width="1.10em" height="1.13em" fill="#ec4899" />
  <rect x="2.75em" y="3.39em" width="11.00em" height="1.13em" fill="#22c55e" />
  <rect x="13.75em" y="3.39em" width="1.10em" height="1.13em" fill="#ec4899" />
  <rect x="14.85em" y="3.39em" width="0.55em" height="1.13em" fill="#ef4444" />
  <rect x="15.40em" y="3.39em" width="1.10em" height="1.13em" fill="#3b82f6" />
  <rect x="0.00em" y="4.52em" width="1.10em" height="1.13em" fill="#3b82f6" />
  <rect x="1.10em" y="4.52em" width="0.55em" height="1.13em" fill="#ef4444" />
  <rect x="1.65em" y="4.52em" width="1.10em" height="1.13em" fill="#ec4899" />
  <rect x="2.75em" y="4.52em" width="11.00em" height="1.13em" fill="#22c55e" />
  <rect x="13.75em" y="4.52em" width="1.10em" height="1.13em" fill="#ec4899" />
  <rect x="14.85em" y="4.52em" width="0.55em" height="1.13em" fill="#ef4444" />
  <rect x="15.40em" y="4.52em" width="1.10em" height="1.13em" fill="#3b82f6" />
  <rect x="0.00em" y="5.65em" width="1.10em" height="1.13em" fill="#3b82f6" />
  <rect x="1.10em" y="5.65em" width="0.55em" height="1.13em" fill="#ef4444" />
  <rect x="1.65em" y="5.65em" width="1.10em" height="1.13em" fill="#ec4899" />
  <rect x="2.75em" y="5.65em" width="11.00em" height="1.13em" fill="#22c55e" />
  <rect x="13.75em" y="5.65em" width="1.10em" height="1.13em" fill="#ec4899" />
  <rect x="14.85em" y="5.65em" width="0.55em" height="1.13em" fill="#ef4444" />
  <rect x="15.40em" y="5.65em" width="1.10em" height="1.13em" fill="#3b82f6" />
  <rect x="0.00em" y="6.78em" width="1.10em" height="1.13em" fill="#3b82f6" />
  <rect x="1.10em" y="6.78em" width="0.55em" height="1.13em" fill="#ef4444" />
  <rect x="1.65em" y="6.78em" width="1.10em" height="1.13em" fill="#ec4899" />
  <rect x="2.75em" y="6.78em" width="11.00em" height="1.13em" fill="#22c55e" />
  <rect x="13.75em" y="6.78em" width="1.10em" height="1.13em" fill="#ec4899" />
  <rect x="14.85em" y="6.78em" width="0.55em" height="1.13em" fill="#ef4444" />
  <rect x="15.40em" y="6.78em" width="1.10em" height="1.13em" fill="#3b82f6" />
  <rect x="0.00em" y="7.91em" width="1.10em" height="1.13em" fill="#3b82f6" />
  <rect x="1.10em" y="7.91em" width="0.55em" height="1.13em" fill="#ef4444" />
  <rect x="1.65em" y="7.91em" width="1.10em" height="1.13em" fill="#ec4899" />
  <rect x="2.75em" y="7.91em" width="11.00em" height="1.13em" fill="#22c55e" />
  <rect x="13.75em" y="7.91em" width="1.10em" height="1.13em" fill="#ec4899" />
  <rect x="14.85em" y="7.91em" width="0.55em" height="1.13em" fill="#ef4444" />
  <rect x="15.40em" y="7.91em" width="1.10em" height="1.13em" fill="#3b82f6" />
  <rect x="0.00em" y="9.04em" width="1.10em" height="1.13em" fill="#3b82f6" />
  <rect x="1.10em" y="9.04em" width="0.55em" height="1.13em" fill="#ef4444" />
  <rect x="1.65em" y="9.04em" width="1.10em" height="1.13em" fill="#ec4899" />
  <rect x="2.75em" y="9.04em" width="11.00em" height="1.13em" fill="#22c55e" />
  <rect x="13.75em" y="9.04em" width="1.10em" height="1.13em" fill="#ec4899" />
  <rect x="14.85em" y="9.04em" width="0.55em" height="1.13em" fill="#ef4444" />
  <rect x="15.40em" y="9.04em" width="1.10em" height="1.13em" fill="#3b82f6" />
  <rect x="0.00em" y="10.17em" width="1.10em" height="1.13em" fill="#3b82f6" />
  <rect x="1.10em" y="10.17em" width="0.55em" height="1.13em" fill="#ef4444" />
  <rect x="1.65em" y="10.17em" width="13.20em" height="1.13em" fill="#ec4899" />
  <rect x="14.85em" y="10.17em" width="0.55em" height="1.13em" fill="#ef4444" />
  <rect x="15.40em" y="10.17em" width="1.10em" height="1.13em" fill="#3b82f6" />
  <rect x="0.00em" y="11.30em" width="1.10em" height="1.13em" fill="#3b82f6" />
  <rect x="1.10em" y="11.30em" width="14.30em" height="1.13em" fill="#ef4444" />
  <rect x="15.40em" y="11.30em" width="1.10em" height="1.13em" fill="#3b82f6" />
  <rect x="0.00em" y="12.43em" width="16.50em" height="1.13em" fill="#3b82f6" />
 </g>
 <text fill="#ffffff" font-family="monospace">
  <tspan y="0.00em" />
  <tspan y="1.13em">
   <tspan x="1.10em">╭</tspan>
   <tspan x="1.65em">─</tspan>
   <tspan x="2.20em">─</tspan>
   <tspan x="2.75em">─</tspan>
   <tspan x="3.30em">─</tspan>
   <tspan x="3.85em">─</tspan>
   <tspan x="4.40em">─</tspan>
   <tspan x="4.95em">─</tspan>
   <tspan x="5.50em">─</tspan>
   <tspan x="6.05em">─</tspan>
   <tspan x="6.60em">─</tspan>
   <tspan x="7.15em">─</tspan>
   <tspan x="7.70em">─</tspan>
   <tspan x="8.25em">─</tspan>
   <tspan x="8.80em">─</tspan>
   <tspan x="9.35em">─</tspan>
   <tspan x="9.90em">─</tspan>
   <tspan x="10.45em">─</tspan>
   <tspan x="11.00em">─</tspan>
   <tspan x="11.55em">─</tspan>
   <tspan x="12.10em">─</tspan>
   <tspan x="12.65em">─</tspan>
   <tspan x="13.20em">─</tspan>
   <tspan x="13.75em">─</tspan>
   <tspan x="14.30em">─</tspan>
   <tspan x="14.85em">╮</tspan>
  </tspan>
  <tspan y="2.26em">
   <tspan x="1.10em">│</tspan>
   <tspan x="14.85em">│</tspan>
  </tspan>
  <tspan y="3.39em">
   <tspan x="1.10em">│</tspan>
   <tspan x="14.85em">│</tspan>
  </tspan>
  <tspan y="4.52em">
   <tspan x="1.10em">│</tspan>
   <tspan x="14.85em">│</tspan>
  </tspan>
  <tspan y="5.65em">
   <tspan x="1.10em">│</tspan>
   <tspan x="14.85em">│</tspan>
  </tspan>
  <tspan y="6.78em">
   <tspan x="1.10em">│</tspan>
   <tspan x="14.85em">│</tspan>
  </tspan>
  <tspan y="7.91em">
   <tspan x="1.10em">│</tspan>
   <tspan x="14.85em">│</tspan>
  </tspan>
  <tspan y="9.04em">
   <tspan x="1.10em">│</tspan>
   <tspan x="14.85em">│</tspan>
  </tspan>
  <tspan y="10.17em">
   <tspan x="1.10em">│</tspan>
   <tspan x="14.85em">│</tspan>
  </tspan>
  <tspan y="11.30em">
   <tspan x="1.10em">╰</tspan>
   <tspan x="1.65em">─</tspan>
   <tspan x="2.20em">─</tspan>
   <tspan x="2.75em">─</tspan>
   <tspan x="3.30em">─</tspan>
   <tspan x="3.85em">─</tspan>
   <tspan x="4.40em">─</tspan>
   <tspan x="4.95em">─</tspan>
   <tspan x="5.50em">─</tspan>
   <tspan x="6.05em">─</tspan>
   <tspan x="6.60em">─</tspan>
   <tspan x="7.15em">─</tspan>
   <tspan x="7.70em">─</tspan>
   <tspan x="8.25em">─</tspan>
   <tspan x="8.80em">─</tspan>
   <tspan x="9.35em">─</tspan>
   <tspan x="9.90em">─</tspan>
   <tspan x="10.45em">─</tspan>
   <tspan x="11.00em">─</tspan>
   <tspan x="11.55em">─</tspan>
   <tspan x="12.10em">─</tspan>
   <tspan x="12.65em">─</tspan>
   <tspan x="13.20em">─</tspan>
   <tspan x="13.75em">─</tspan>
   <tspan x="14.30em">─</tspan>
   <tspan x="14.85em">╯</tspan>
  </tspan>
  <tspan y="12.43em" />
 </text>
</svg>