<svg xmlns="http://www.w3.org/2000/svg" width="38.50em" height="33.90em">
 <style>svg {
  dominant-baseline: hanging;
  font-size: 1rem;
}
</style>
 <g shape-rendering="crispEdges">
  <rect x="0.00em" y="0.00em" width="38.50em" height="33.90em" fill="#000000" />
  <rect x="0.00em" y="1.13em" width="0.55em" height="1.13em" fill="#dc2626" />
  <rect x="0.55em" y="1.13em" width="18.15em" height="1.13em" fill="#1e40af" />
  <rect x="18.70em" y="1.13em" width="1.10em" height="1.13em" fill="#dc2626" />
  <rect x="19.80em" y="1.13em" width="18.15em" height="1.13em" fill="#1e40af" />
  <rect x="0.00em" y="2.26em" width="0.55em" height="1.13em" fill="#dc2626" />
  <rect x="0.55em" y="2.26em" width="0.55em" height="1.13em" fill="#1e40af" />
  <rect x="1.10em" y="2.26em" width="17.05em" height="1.13em" fill="#f59e0b" />
  <rect x="18.15em" y="2.26em" width="0.55em" height="1.13em" fill="#1e40af" />
  <rect x="18.70em" y="2.26em" width="1.10em" height="1.13em" fill="#dc2626" />
  <rect x="19.80em" y="2.26em" width="0.55em" height="1.13em" fill="#1e40af" />
  <rect x="20.35em" y="2.26em" width="17.05em" height="1.13em" fill="#f59e0b" />
  <rect x="37.40em" y="2.26em" width="0.55em" height="1.13em" fill="#1e40af" />
  <rect x="0.00em" y="3.39em" width="0.55em" height="1.13em" fill="#dc2626" />
  <rect x="0.55em" y="3.39em" width="0.55em" height="1.13em" fill="#1e40af" />
  <rect x="1.10em" y="3.39em" width="0.55em" height="1.13em" fill="#f59e0b" />
  <rect x="17.60em" y="3.39em" width="0.55em" height="1.13em" fill="#f59e0b" />
  <rect x="18.15em" y="3.39em" width="0.55em" height="1.13em" fill="#1e40af" />
  <rect x="18.70em" y="3.39em" width="1.10em" height="1.13em" fill="#dc2626" />
  <rect x="19.80em" y="3.39em" width="0.55em" height="1.13em" fill="#1e40af" />
  <rect x="20.35em" y="3.39em" width="0.55em" height="1.13em" fill="#f59e0b" />
  <rect x="36.85em" y="3.39em" width="0.55em" height="1.13em" fill="#f59e0b" />
  <rect x="37.40em" y="3.39em" width="0.55em" height="1.13em" fill="#1e40af" />
  <rect x="0.00em" y="4.52em" width="0.55em" height="1.13em" fill="#dc2626" />
  <rect x="0.55em" y="4.52em" width="0.55em" height="1.13em" fill="#1e40af" />
  <rect x="1.10em" y="4.52em" width="17.05em" height="1.13em" fill="#f59e0b" />
  <rect x="18.15em" y="4.52em" width="0.55em" height="1.13em" fill="#1e40af" />
  <rect x="18.70em" y="4.52em" width="1.10em" height="1.13em" fill="#dc2626" />
  <rect x="19.80em" y="4.52em" width="0.55em" height="1.13em" fill="#1e40af" />
  <rect x="20.35em" y="4.52em" width="17.05em" height="1.13em" fill="#f59e0b" />
  <rect x="37.40em" y="4.52em" width="0.55em" height="1.13em" fill="#1e40af" />
  <rect x="0.00em" y="5.65em" width="0.55em" height="1.13em" fill="#dc2626" />
  <rect x="0.55em" y="5.65em" width="18.15em" height="1.13em" fill="#1e40af" />
  <rect x="18.70em" y="5.65em" width="1.10em" height="1.13em" fill="#dc2626" />
  <rect x="19.80em" y="5.65em" width="18.15em" height="1.13em" fill="#1e40af" />
 </g>
 <text fill="#ffffff" font-family="monospace">
  <tspan y="0.00em" />
  <tspan y="1.13em">
   <tspan x="0.55em">┏</tspan>
   <tspan x="1.10em">━</tspan>
   <tspan x="1.65em">━</tspan>
   <tspan x="2.20em">━</tspan>
   <tspan x="2.75em">━</tspan>
   <tspan x="3.30em">━</tspan>
   <tspan x="3.85em">━</tspan>
   <tspan x="4.40em">━</tspan>
   <tspan x="4.95em">━</tspan>
   <tspan x="5.50em">━</tspan>
   <tspan x="6.05em">━</tspan>
   <tspan x="6.60em">━</tspan>
   <tspan x="7.15em">━</tspan>
   <tspan x="7.70em">━</tspan>
   <tspan x="8.25em">━</tspan>
   <tspan x="8.80em">━</tspan>
   <tspan x="9.35em">━</tspan>
   <tspan x="9.90em">━</tspan>
   <tspan x="10.45em">━</tspan>
   <tspan x="11.00em">━</tspan>
   <tspan x="11.55em">━</tspan>
   <tspan x="12.10em">━</tspan>
   <tspan x="12.65em">━</tspan>
   <tspan x="13.20em">━</tspan>
   <tspan x="13.75em">━</tspan>
   <tspan x="14.30em">━</tspan>
   <tspan x="14.85em">━</tspan>
   <tspan x="15.40em">━</tspan>
   <tspan x="15.95em">━</tspan>
   <tspan x="16.50em">━</tspan>
   <tspan x="17.05em">━</tspan>
   <tspan x="17.60em">━</tspan>
   <tspan x="18.15em">┓</tspan>
   <tspan x="19.80em">┏</tspan>
   <tspan x="20.35em">━</tspan>
   <tspan x="20.90em">━</tspan>
   <tspan x="21.45em">━</tspan>
   <tspan x="22.00em">━</tspan>
   <tspan x="22.55em">━</tspan>
   <tspan x="23.10em">━</tspan>
   <tspan x="23.65em">━</tspan>
   <tspan x="24.20em">━</tspan>
   <tspan x="24.75em">━</tspan>
   <tspan x="25.30em">━</tspan>
   <tspan x="25.85em">━</tspan>
   <tspan x="26.40em">━</tspan>
   <tspan x="26.95em">━</tspan>
   <tspan x="27.50em">━</tspan>
   <tspan x="28.05em">━</tspan>
   <tspan x="28.60em">━</tspan>
   <tspan x="29.15em">━</tspan>
   <tspan x="29.70em">━</tspan>
   <tspan x="30.25em">━</tspan>
   <tspan x="30.80em">━</tspan>
   <tspan x="31.35em">━</tspan>
   <tspan x="31.90em">━</tspan>
   <tspan x="32.45em">━</tspan>
   <tspan x="33.00em">━</tspan>
   <tspan x="33.55em">━</tspan>
   <tspan x="34.10em">━</tspan>
   <tspan x="34.65em">━</tspan>
   <tspan x="35.20em">━</tspan>
   <tspan x="35.75em">━</tspan>
   <tspan x="36.30em">━</tspan>
   <tspan x="36.85em">━</tspan>
   <tspan x="37.40em">┓</tspan>
  </tspan>
  <tspan y="2.26em">
   <tspan x="0.55em">┃</tspan>
   <tspan x="18.15em">┃</tspan>
   <tspan x="19.80em">┃</tspan>
   <tspan x="37.40em">┃</tspan>
  </tspan>
  <tspan y="3.39em">
   <tspan x="0.55em">┃</tspan>
   <tspan x="1.65em">r</tspan>
   <tspan x="2.20em">e</tspan>
   <tspan x="2.75em">l</tspan>
   <tspan x="3.30em">a</tspan>
   <tspan x="3.85em">t</tspan>
   <tspan x="4.40em">i</tspan>
   <tspan x="4.95em">v</tspan>
   <tspan x="5.50em">e</tspan>
   <tspan x="6.05em">(</tspan>
   <tspan x="6.60em">x</tspan>
   <tspan x="7.15em">=</tspan>
   <tspan x="7.70em">0</tspan>
   <tspan x="8.25em">,</tspan>
   <tspan x="9.35em">y</tspan>
   <tspan x="9.90em">=</tspan>
   <tspan x="10.45em">0</tspan>
   <tspan x="11.00em">)</tspan>
   <tspan x="18.15em">┃</tspan>
   <tspan x="19.80em">┃</tspan>
   <tspan x="20.90em">r</tspan>
   <tspan x="21.45em">e</tspan>
   <tspan x="22.00em">l</tspan>
   <tspan x="22.55em">a</tspan>
   <tspan x="23.10em">t</tspan>
   <tspan x="23.65em">i</tspan>
   <tspan x="24.20em">v</tspan>
   <tspan x="24.75em">e</tspan>
   <tspan x="25.30em">(</tspan>
   <tspan x="25.85em">x</tspan>
   <tspan x="26.40em">=</tspan>
   <tspan x="26.95em">0</tspan>
   <tspan x="27.50em">,</tspan>
   <tspan x="28.60em">y</tspan>
   <tspan x="29.15em">=</tspan>
   <tspan x="29.70em">0</tspan>
   <tspan x="30.25em">)</tspan>
   <tspan x="37.40em">┃</tspan>
  </tspan>
  <tspan y="4.52em">
   <tspan x="0.55em">┃</tspan>
   <tspan x="18.15em">┃</tspan>
   <tspan x="19.80em">┃</tspan>
   <tspan x="37.40em">┃</tspan>
  </tspan>
  <tspan y="5.65em">
   <tspan x="0.55em">┗</tspan>
   <tspan x="1.10em">━</tspan>
   <tspan x="1.65em">━</tspan>
   <tspan x="2.20em">━</tspan>
   <tspan x="2.75em">━</tspan>
   <tspan x="3.30em">━</tspan>
   <tspan x="3.85em">━</tspan>
   <tspan x="4.40em">━</tspan>
   <tspan x="4.95em">━</tspan>
   <tspan x="5.50em">━</tspan>
   <tspan x="6.05em">━</tspan>
   <tspan x="6.60em">━</tspan>
   <tspan x="7.15em">━</tspan>
   <tspan x="7.70em">━</tspan>
   <tspan x="8.25em">━</tspan>
   <tspan x="8.80em">━</tspan>
   <tspan x="9.35em">━</tspan>
   <tspan x="9.90em">━</tspan>
   <tspan x="10.45em">━</tspan>
   <tspan x="11.00em">━</tspan>
   <tspan x="11.55em">━</tspan>
   <tspan x="12.10em">━</tspan>
   <tspan x="12.65em">━</tspan>
   <tspan x="13.20em">━</tspan>
   <tspan x="13.75em">━</tspan>
   <tspan x="14.30em">━</tspan>
   <tspan x="14.85em">━</tspan>
   <tspan x="15.40em">━</tspan>
   <tspan x="15.95em">━</tspan>
   <tspan x="16.50em">━</tspan>
   <tspan x="17.05em">━</tspan>
   <tspan x="17.60em">━</tspan>
   <tspan x="18.15em">┛</tspan>
   <tspan x="19.80em">┗</tspan>
   <tspan x="20.35em">━</tspan>
   <tspan x="20.90em">━</tspan>
   <tspan x="21.45em">━</tspan>
   <tspan x="22.00em">━</tspan>
   <tspan x="22.55em">━</tspan>
   <tspan x="23.10em">━</tspan>
   <tspan x="23.65em">━</tspan>
   <tspan x="24.20em">━</tspan>
   <tspan x="24.75em">━</tspan>
   <tspan x="25.30em">━</tspan>
   <tspan x="25.85em">━</tspan>
   <tspan x="26.40em">━</tspan>
   <tspan x="26.95em">━</tspan>
   <tspan x="27.50em">━</tspan>
   <tspan x="28.05em">━</tspan>
   <tspan x="28.60em">━</tspan>
   <tspan x="29.15em">━</tspan>
   <tspan x="29.70em">━</tspan>
   <tspan x="30.25em">━</tspan>
   <tspan x="30.80em">━</tspan>
   <tspan x="31.35em">━</tspan>
   <tspan x="31.90em">━</tspan>
   <tspan x="32.45em">━</tspan>
   <tspan x="33.00em">━</tspan>
   <tspan x="33.55em">━</tspan>
   <tspan x="34.10em">━</tspan>
   <tspan x="34.65em">━</tspan>
   <tspan x="35.20em">━</tspan>
   <tspan x="35.75em">━</tspan>
   <tspan x="36.30em">━</tspan>
   <tspan x="36.85em">━</tspan>
   <tspan x="37.40em">┛</tspan>
  </tspan>
  <tspan y="6.78em" />
  <tspan y="7.91em" />
  <tspan y="9.04em" />
  <tspan y="10.17em" />
  <tspan y="11.30em" />
  <tspan y="12.43em" />
  <tspan y="13.56em" />
  <tspan y="14.69em" />
  <tspan y="15.82em" />
  <tspan y="16.95em" />
  <tspan y="18.08em" />
  <tspan y="19.21em" />
  <tspan y="20.34em" />
  <tspan y="21.47em" />
  <tspan y="22.60em" />
  <tspan y="23.73em" />
  <tspan y="24.86em" />
  <tspan y="25.99em" />
  <tspan y="27.12em" />
  <tspan y="28.25em" />
  <tspan y="29.38em" />
  <tspan y="30.51em" />
  <tspan y="31.64em" />
  <tspan y="32.77em" />
 </text>
</svg>