<svg xmlns="http://www.w3.org/2000/svg" width="44.00em" height="33.90em">
 <style>svg {
  dominant-baseline: hanging;
  font-size: 1rem;
}
</style>
 <g shape-rendering="crispEdges">
  <rect x="0.00em" y="0.00em" width="44.00em" height="33.90em" fill="#000000" />
  <rect x="0.00em" y="0.00em" width="13.20em" height="1.13em" fill="#dc2626" />
  <rect x="13.20em" y="0.00em" width="13.75em" height="1.13em" fill="#000000" />
  <rect x="26.95em" y="0.00em" width="0.55em" height="1.13em" fill="#dc2626" />
  <rect x="27.50em" y="0.00em" width="12.10em" height="1.13em" fill="#000000" />
  <rect x="39.60em" y="0.00em" width="0.55em" height="1.13em" fill="#dc2626" />
  <rect x="40.15em" y="0.00em" width="3.85em" height="1.13em" fill="#000000" />
  <rect x="0.00em" y="1.13em" width="0.55em" height="1.13em" fill="#dc2626" />
  <rect x="0.55em" y="1.13em" width="12.10em" height="1.13em" fill="#000000" />
  <rect x="12.65em" y="1.13em" width="0.55em" height="1.13em" fill="#dc2626" />
  <rect x="13.20em" y="1.13em" width="13.75em" height="1.13em" fill="#000000" />
  <rect x="26.95em" y="1.13em" width="0.55em" height="1.13em" fill="#dc2626" />
  <rect x="27.50em" y="1.13em" width="12.10em" height="1.13em" fill="#000000" />
  <rect x="39.60em" y="1.13em" width="0.55em" height="1.13em" fill="#dc2626" />
  <rect x="40.15em" y="1.13em" width="3.85em" height="1.13em" fill="#000000" />
  <rect x="0.00em" y="2.26em" width="0.55em" height="1.13em" fill="#dc2626" />
  <rect x="0.55em" y="2.26em" width="12.10em" height="1.13em" fill="#000000" />
  <rect x="12.65em" y="2.26em" width="0.55em" height="1.13em" fill="#dc2626" />
  <rect x="13.20em" y="2.26em" width="13.75em" height="1.13em" fill="#000000" />
  <rect x="26.95em" y="2.26em" width="0.55em" height="1.13em" fill="#dc2626" />
  <rect x="27.50em" y="2.26em" width="12.10em" height="1.13em" fill="#000000" />
  <rect x="39.60em" y="2.26em" width="0.55em" height="1.13em" fill="#dc2626" />
  <rect x="40.15em" y="2.26em" width="3.85em" height="1.13em" fill="#000000" />
  <rect x="0.00em" y="3.39em" width="0.55em" height="1.13em" fill="#dc2626" />
  <rect x="0.55em" y="3.39em" width="12.10em" height="1.13em" fill="#000000" />
  <rect x="12.65em" y="3.39em" width="0.55em" height="1.13em" fill="#dc2626" />
  <rect x="13.20em" y="3.39em" width="13.75em" height="1.13em" fill="#000000" />
  <rect x="26.95em" y="3.39em" width="13.20em" height="1.13em" fill="#dc2626" />
  <rect x="40.15em" y="3.39em" width="3.85em" height="1.13em" fill="#000000" />
  <rect x="0.00em" y="4.52em" width="0.55em" height="1.13em" fill="#dc2626" />
  <rect x="0.55em" y="4.52em" width="12.10em" height="1.13em" fill="#000000" />
  <rect x="12.65em" y="4.52em" width="0.55em" height="1.13em" fill="#dc2626" />
  <rect x="13.20em" y="4.52em" width="30.80em" height="1.13em" fill="#000000" />
  <rect x="0.00em" y="5.65em" width="0.55em" height="1.13em" fill="#dc2626" />
  <rect x="0.55em" y="5.65em" width="12.10em" height="1.13em" fill="#000000" />
  <rect x="12.65em" y="5.65em" width="14.30em" height="1.13em" fill="#dc2626" />
  <rect x="26.95em" y="5.65em" width="17.05em" height="1.13em" fill="#000000" />
  <rect x="0.00em" y="6.78em" width="13.75em" height="1.13em" fill="#dc2626" />
  <rect x="13.75em" y="6.78em" width="12.65em" height="1.13em" fill="#000000" />
  <rect x="26.40em" y="6.78em" width="0.55em" height="1.13em" fill="#dc2626" />
  <rect x="26.95em" y="6.78em" width="17.05em" height="1.13em" fill="#000000" />
  <rect x="0.00em" y="7.91em" width="13.20em" height="1.13em" fill="#000000" />
  <rect x="13.20em" y="7.91em" width="0.55em" height="1.13em" fill="#dc2626" />
  <rect x="13.75em" y="7.91em" width="12.65em" height="1.13em" fill="#000000" />
  <rect x="26.40em" y="7.91em" width="0.55em" height="1.13em" fill="#dc2626" />
  <rect x="26.95em" y="7.91em" width="17.05em" height="1.13em" fill="#000000" />
  <rect x="0.00em" y="9.04em" width="13.20em" height="1.13em" fill="#000000" />
  <rect x="13.20em" y="9.04em" width="0.55em" height="1.13em" fill="#dc2626" />
  <rect x="13.75em" y="9.04em" width="12.65em" height="1.13em" fill="#000000" />
  <rect x="26.40em" y="9.04em" width="0.55em" height="1.13em" fill="#dc2626" />
  <rect x="26.95em" y="9.04em" width="17.05em" height="1.13em" fill="#000000" />
  <rect x="0.00em" y="10.17em" width="13.20em" height="1.13em" fill="#000000" />
  <rect x="13.20em" y="10.17em" width="0.55em" height="1.13em" fill="#dc2626" />
  <rect x="13.75em" y="10.17em" width="12.65em" height="1.13em" fill="#000000" />
  <rect x="26.40em" y="10.17em" width="0.55em" height="1.13em" fill="#dc2626" />
  <rect x="26.95em" y="10.17em" width="17.05em" height="1.13em" fill="#000000" />
  <rect x="0.00em" y="11.30em" width="13.20em" height="1.13em" fill="#000000" />
  <rect x="13.20em" y="11.30em" width="0.55em" height="1.13em" fill="#dc2626" />
  <rect x="13.75em" y="11.30em" width="12.65em" height="1.13em" fill="#000000" />
  <rect x="26.40em" y="11.30em" width="0.55em" height="1.13em" fill="#dc2626" />
  <rect x="26.95em" y="11.30em" width="17.05em" height="1.13em" fill="#000000" />
  <rect x="0.00em" y="12.43em" width="13.20em" height="1.13em" fill="#d97706" />
  <rect x="13.20em" y="12.43em" width="13.20em" height="1.13em" fill="#dc2626" />
  <rect x="26.40em" y="12.43em" width="13.20em" height="1.13em" fill="#d97706" />
  <rect x="39.60em" y="12.43em" width="4.40em" height="1.13em" fill="#000000" />
  <rect x="0.00em" y="13.56em" width="0.55em" height="1.13em" fill="#d97706" />
  <rect x="0.55em" y="13.56em" width="12.10em" height="1.13em" fill="#000000" />
  <rect x="12.65em" y="13.56em" width="0.55em" height="1.13em" fill="#d97706" />
  <rect x="13.20em" y="13.56em" width="13.20em" height="1.13em" fill="#000000" />
  <rect x="26.40em" y="13.56em" width="0.55em" height="1.13em" fill="#d97706" />
  <rect x="26.95em" y="13.56em" width="12.10em" height="1.13em" fill="#000000" />
  <rect x="39.05em" y="13.56em" width="0.55em" height="1.13em" fill="#d97706" />
  <rect x="39.60em" y="13.56em" width="4.40em" height="1.13em" fill="#000000" />
  <rect x="0.00em" y="14.69em" width="0.55em" height="1.13em" fill="#d97706" />
  <rect x="0.55em" y="14.69em" width="12.10em" height="1.13em" fill="#000000" />
  <rect x="12.65em" y="14.69em" width="0.55em" height="1.13em" fill="#d97706" />
  <rect x="13.20em" y="14.69em" width="13.20em" height="1.13em" fill="#000000" />
  <rect x="26.40em" y="14.69em" width="0.55em" height="1.13em" fill="#d97706" />
  <rect x="26.95em" y="14.69em" width="12.10em" height="1.13em" fill="#000000" />
  <rect x="39.05em" y="14.69em" width="0.55em" height="1.13em" fill="#d97706" />
  <rect x="39.60em" y="14.69em" width="4.40em" height="1.13em" fill="#000000" />
  <rect x="0.00em" y="15.82em" width="0.55em" height="1.13em" fill="#d97706" />
  <rect x="0.55em" y="15.82em" width="12.10em" height="1.13em" fill="#000000" />
  <rect x="12.65em" y="15.82em" width="0.55em" height="1.13em" fill="#d97706" />
  <rect x="13.20em" y="15.82em" width="1.65em" height="1.13em" fill="#000000" />
  <rect x="14.85em" y="15.82em" width="12.10em" height="1.13em" fill="#d97706" />
  <rect x="26.95em" y="15.82em" width="12.10em" height="1.13em" fill="#000000" />
  <rect x="39.05em" y="15.82em" width="0.55em" height="1.13em" fill="#d97706" />
  <rect x="39.60em" y="15.82em" width="4.40em" height="1.13em" fill="#000000" />
  <rect x="0.00em" y="16.95em" width="0.55em" height="1.13em" fill="#d97706" />
  <rect x="0.55em" y="16.95em" width="12.10em" height="1.13em" fill="#000000" />
  <rect x="12.65em" y="16.95em" width="0.55em" height="1.13em" fill="#d97706" />
  <rect x="13.20em" y="16.95em" width="1.65em" height="1.13em" fill="#000000" />
  <rect x="14.85em" y="16.95em" width="0.55em" height="1.13em" fill="#d97706" />
  <rect x="15.40em" y="16.95em" width="11.00em" height="1.13em" fill="#000000" />
  <rect x="26.40em" y="16.95em" width="0.55em" height="1.13em" fill="#d97706" />
  <rect x="26.95em" y="16.95em" width="12.10em" height="1.13em" fill="#000000" />
  <rect x="39.05em" y="16.95em" width="0.55em" height="1.13em" fill="#d97706" />
  <rect x="39.60em" y="16.95em" width="4.40em" height="1.13em" fill="#000000" />
  <rect x="0.00em" y="18.08em" width="0.55em" height="1.13em" fill="#d97706" />
  <rect x="0.55em" y="18.08em" width="12.10em" height="1.13em" fill="#000000" />
  <rect x="12.65em" y="18.08em" width="0.55em" height="1.13em" fill="#d97706" />
  <rect x="13.20em" y="18.08em" width="1.65em" height="1.13em" fill="#000000" />
  <rect x="14.85em" y="18.08em" width="0.55em" height="1.13em" fill="#d97706" />
  <rect x="15.40em" y="18.08em" width="11.00em" height="1.13em" fill="#000000" />
  <rect x="26.40em" y="18.08em" width="0.55em" height="1.13em" fill="#d97706" />
  <rect x="26.95em" y="18.08em" width="12.10em" height="1.13em" fill="#000000" />
  <rect x="39.05em" y="18.08em" width="0.55em" height="1.13em" fill="#d97706" />
  <rect x="39.60em" y="18.08em" width="4.40em" height="1.13em" fill="#000000" />
  <rect x="0.00em" y="19.21em" width="13.20em" height="1.13em" fill="#d97706" />
  <rect x="13.20em" y="19.21em" width="1.65em" height="1.13em" fill="#000000" />
  <rect x="14.85em" y="19.21em" width="0.55em" height="1.13em" fill="#d97706" />
  <rect x="15.40em" y="19.21em" width="11.00em" height="1.13em" fill="#000000" />
  <rect x="26.40em" y="19.21em" width="13.20em" height="1.13em" fill="#d97706" />
  <rect x="39.60em" y="19.21em" width="4.40em" height="1.13em" fill="#000000" />
  <rect x="0.00em" y="20.34em" width="14.85em" height="1.13em" fill="#000000" />
  <rect x="14.85em" y="20.34em" width="0.55em" height="1.13em" fill="#d97706" />
  <rect x="15.40em" y="20.34em" width="11.55em" height="1.13em" fill="#000000" />
  <rect x="26.95em" y="20.34em" width="13.20em" height="1.13em" fill="#6d28d9" />
  <rect x="40.15em" y="20.34em" width="3.85em" height="1.13em" fill="#000000" />
  <rect x="0.00em" y="21.47em" width="14.85em" height="1.13em" fill="#000000" />
  <rect x="14.85em" y="21.47em" width="0.55em" height="1.13em" fill="#d97706" />
  <rect x="15.40em" y="21.47em" width="11.55em" height="1.13em" fill="#000000" />
  <rect x="26.95em" y="21.47em" width="0.55em" height="1.13em" fill="#6d28d9" />
  <rect x="27.50em" y="21.47em" width="12.10em" height="1.13em" fill="#000000" />
  <rect x="39.60em" y="21.47em" width="0.55em" height="1.13em" fill="#6d28d9" />
  <rect x="40.15em" y="21.47em" width="3.85em" height="1.13em" fill="#000000" />
  <rect x="0.00em" y="22.60em" width="14.85em" height="1.13em" fill="#000000" />
  <rect x="14.85em" y="22.60em" width="12.10em" height="1.13em" fill="#d97706" />
  <rect x="26.95em" y="22.60em" width="0.55em" height="1.13em" fill="#6d28d9" />
  <rect x="27.50em" y="22.60em" width="12.10em" height="1.13em" fill="#000000" />
  <rect x="39.60em" y="22.60em" width="0.55em" height="1.13em" fill="#6d28d9" />
  <rect x="40.15em" y="22.60em" width="3.85em" height="1.13em" fill="#000000" />
  <rect x="0.00em" y="23.73em" width="26.95em" height="1.13em" fill="#000000" />
  <rect x="26.95em" y="23.73em" width="0.55em" height="1.13em" fill="#6d28d9" />
  <rect x="27.50em" y="23.73em" width="12.10em" height="1.13em" fill="#000000" />
  <rect x="39.60em" y="23.73em" width="0.55em" height="1.13em" fill="#6d28d9" />
  <rect x="40.15em" y="23.73em" width="3.85em" height="1.13em" fill="#000000" />
  <rect x="0.00em" y="24.86em" width="26.95em" height="1.13em" fill="#000000" />
  <rect x="26.95em" y="24.86em" width="0.55em" height="1.13em" fill="#6d28d9" />
  <rect x="27.50em" y="24.86em" width="12.10em" height="1.13em" fill="#000000" />
  <rect x="39.60em" y="24.86em" width="0.55em" height="1.13em" fill="#6d28d9" />
  <rect x="40.15em" y="24.86em" width="3.85em" height="1.13em" fill="#000000" />
  <rect x="0.00em" y="25.99em" width="13.20em" height="1.13em" fill="#6d28d9" />
  <rect x="13.20em" y="25.99em" width="2.75em" height="1.13em" fill="#000000" />
  <rect x="15.95em" y="25.99em" width="11.55em" height="1.13em" fill="#6d28d9" />
  <rect x="27.50em" y="25.99em" width="12.10em" height="1.13em" fill="#000000" />
  <rect x="39.60em" y="25.99em" width="0.55em" height="1.13em" fill="#6d28d9" />
  <rect x="40.15em" y="25.99em" width="3.85em" height="1.13em" fill="#000000" />
  <rect x="0.00em" y="27.12em" width="0.55em" height="1.13em" fill="#6d28d9" />
  <rect x="0.55em" y="27.12em" width="12.10em" height="1.13em" fill="#000000" />
  <rect x="12.65em" y="27.12em" width="0.55em" height="1.13em" fill="#6d28d9" />
  <rect x="13.20em" y="27.12em" width="2.75em" height="1.13em" fill="#000000" />
  <rect x="15.95em" y="27.12em" width="0.55em" height="1.13em" fill="#6d28d9" />
  <rect x="16.50em" y="27.12em" width="10.45em" height="1.13em" fill="#000000" />
  <rect x="26.95em" y="27.12em" width="13.20em" height="1.13em" fill="#6d28d9" />
  <rect x="40.15em" y="27.12em" width="3.85em" height="1.13em" fill="#000000" />
  <rect x="0.00em" y="28.25em" width="0.55em" height="1.13em" fill="#6d28d9" />
  <rect x="0.55em" y="28.25em" width="12.10em" height="1.13em" fill="#000000" />
  <rect x="12.65em" y="28.25em" width="0.55em" height="1.13em" fill="#6d28d9" />
  <rect x="13.20em" y="28.25em" width="2.75em" height="1.13em" fill="#000000" />
  <rect x="15.95em" y="28.25em" width="0.55em" height="1.13em" fill="#6d28d9" />
  <rect x="16.50em" y="28.25em" width="12.65em" height="1.13em" fill="#000000" />
  <rect x="29.15em" y="28.25em" width="0.55em" height="1.13em" fill="#6d28d9" />
  <rect x="29.70em" y="28.25em" width="14.30em" height="1.13em" fill="#000000" />
  <rect x="0.00em" y="29.38em" width="0.55em" height="1.13em" fill="#6d28d9" />
  <rect x="0.55em" y="29.38em" width="12.10em" height="1.13em" fill="#000000" />
  <rect x="12.65em" y="29.38em" width="0.55em" height="1.13em" fill="#6d28d9" />
  <rect x="13.20em" y="29.38em" width="2.75em" height="1.13em" fill="#000000" />
  <rect x="15.95em" y="29.38em" width="0.55em" height="1.13em" fill="#6d28d9" />
  <rect x="16.50em" y="29.38em" width="12.65em" height="1.13em" fill="#000000" />
  <rect x="29.15em" y="29.38em" width="0.55em" height="1.13em" fill="#6d28d9" />
  <rect x="29.70em" y="29.38em" width="14.30em" height="1.13em" fill="#000000" />
  <rect x="0.00em" y="30.51em" width="0.55em" height="1.13em" fill="#6d28d9" />
  <rect x="0.55em" y="30.51em" width="12.10em" height="1.13em" fill="#000000" />
  <rect x="12.65em" y="30.51em" width="0.55em" height="1.13em" fill="#6d28d9" />
  <rect x="13.20em" y="30.51em" width="2.75em" height="1.13em" fill="#000000" />
  <rect x="15.95em" y="30.51em" width="0.55em" height="1.13em" fill="#6d28d9" />
  <rect x="16.50em" y="30.51em" width="12.65em" height="1.13em" fill="#000000" />
  <rect x="29.15em" y="30.51em" width="0.55em" height="1.13em" fill="#6d28d9" />
  <rect x="29.70em" y="30.51em" width="14.30em" height="1.13em" fill="#000000" />
  <rect x="0.00em" y="31.64em" width="0.55em" height="1.13em" fill="#6d28d9" />
  <rect x="0.55em" y="31.64em" width="12.10em" height="1.13em" fill="#000000" />
  <rect x="12.65em" y="31.64em" width="0.55em" height="1.13em" fill="#6d28d9" />
  <rect x="13.20em" y="31.64em" width="2.75em" height="1.13em" fill="#000000" />
  <rect x="15.95em" y="31.64em" width="0.55em" height="1.13em" fill="#6d28d9" />
  <rect x="16.50em" y="31.64em" width="12.65em" height="1.13em" fill="#000000" />
  <rect x="29.15em" y="31.64em" width="0.55em" height="1.13em" fill="#6d28d9" />
  <rect x="29.70em" y="31.64em" width="14.30em" height="1.13em" fill="#000000" />
  <rect x="0.00em" y="32.77em" width="13.20em" height="1.13em" fill="#6d28d9" />
  <rect x="13.20em" y="32.77em" width="2.75em" height="1.13em" fill="#000000" />
  <rect x="15.95em" y="32.77em" width="13.75em" height="1.13em" fill="#6d28d9" />
  <rect x="29.70em" y="32.77em" width="14.30em" height="1.13em" fill="#000000" />
 </g>
 <text fill="#ffffff" font-family="monospace">
  <tspan y="0.00em">
   <tspan x="27.50em">│</tspan>
   <tspan x="28.60em">r</tspan>
   <tspan x="29.15em">e</tspan>
   <tspan x="29.70em">l</tspan>
   <tspan x="30.25em">a</tspan>
   <tspan x="30.80em">t</tspan>
   <tspan x="31.35em">i</tspan>
   <tspan x="31.90em">v</tspan>
   <tspan x="32.45em">e</tspan>
   <tspan x="33.00em">(</tspan>
   <tspan x="33.55em">x</tspan>
   <tspan x="34.10em">=</tspan>
   <tspan x="34.65em">0</tspan>
   <tspan x="35.20em">,</tspan>
   <tspan x="36.30em">y</tspan>
   <tspan x="36.85em">=</tspan>
   <tspan x="37.40em">-</tspan>
   <tspan x="37.95em">3</tspan>
   <tspan x="39.05em">│</tspan>
  </tspan>
  <tspan y="1.13em">
   <tspan x="0.55em">┌</tspan>
   <tspan x="1.10em">─</tspan>
   <tspan x="1.65em">─</tspan>
   <tspan x="2.20em">─</tspan>
   <tspan x="2.75em">─</tspan>
   <tspan x="3.30em">─</tspan>
   <tspan x="3.85em">─</tspan>
   <tspan x="4.40em">─</tspan>
   <tspan x="4.95em">─</tspan>
   <tspan x="5.50em">─</tspan>
   <tspan x="6.05em">─</tspan>
   <tspan x="6.60em">─</tspan>
   <tspan x="7.15em">─</tspan>
   <tspan x="7.70em">─</tspan>
   <tspan x="8.25em">─</tspan>
   <tspan x="8.80em">─</tspan>
   <tspan x="9.35em">─</tspan>
   <tspan x="9.90em">─</tspan>
   <tspan x="10.45em">─</tspan>
   <tspan x="11.00em">─</tspan>
   <tspan x="11.55em">─</tspan>
   <tspan x="12.10em">┐</tspan>
   <tspan x="27.50em">│</tspan>
   <tspan x="39.05em">│</tspan>
  </tspan>
  <tspan y="2.26em">
   <tspan x="0.55em">│</tspan>
   <tspan x="12.10em">│</tspan>
   <tspan x="27.50em">└</tspan>
   <tspan x="28.05em">─</tspan>
   <tspan x="28.60em">─</tspan>
   <tspan x="29.15em">─</tspan>
   <tspan x="29.70em">─</tspan>
   <tspan x="30.25em">─</tspan>
   <tspan x="30.80em">─</tspan>
   <tspan x="31.35em">─</tspan>
   <tspan x="31.90em">─</tspan>
   <tspan x="32.45em">─</tspan>
   <tspan x="33.00em">─</tspan>
   <tspan x="33.55em">─</tspan>
   <tspan x="34.10em">─</tspan>
   <tspan x="34.65em">─</tspan>
   <tspan x="35.20em">─</tspan>
   <tspan x="35.75em">─</tspan>
   <tspan x="36.30em">─</tspan>
   <tspan x="36.85em">─</tspan>
   <tspan x="37.40em">─</tspan>
   <tspan x="37.95em">─</tspan>
   <tspan x="38.50em">─</tspan>
   <tspan x="39.05em">┘</tspan>
  </tspan>
  <tspan y="3.39em">
   <tspan x="0.55em">│</tspan>
   <tspan x="1.65em">r</tspan>
   <tspan x="2.20em">e</tspan>
   <tspan x="2.75em">l</tspan>
   <tspan x="3.30em">a</tspan>
   <tspan x="3.85em">t</tspan>
   <tspan x="4.40em">i</tspan>
   <tspan x="4.95em">v</tspan>
   <tspan x="5.50em">e</tspan>
   <tspan x="6.05em">(</tspan>
   <tspan x="6.60em">x</tspan>
   <tspan x="7.15em">=</tspan>
   <tspan x="7.70em">0</tspan>
   <tspan x="8.25em">,</tspan>
   <tspan x="9.35em">y</tspan>
   <tspan x="9.90em">=</tspan>
   <tspan x="10.45em">0</tspan>
   <tspan x="11.00em">)</tspan>
   <tspan x="12.10em">│</tspan>
  </tspan>
  <tspan y="4.52em">
   <tspan x="0.55em">│</tspan>
   <tspan x="12.10em">│</tspan>
  </tspan>
  <tspan y="5.65em">
   <tspan x="0.55em">└</tspan>
   <tspan x="1.10em">─</tspan>
   <tspan x="1.65em">─</tspan>
   <tspan x="2.20em">─</tspan>
   <tspan x="2.75em">─</tspan>
   <tspan x="3.30em">─</tspan>
   <tspan x="3.85em">─</tspan>
   <tspan x="4.40em">─</tspan>
   <tspan x="4.95em">─</tspan>
   <tspan x="5.50em">─</tspan>
   <tspan x="6.05em">─</tspan>
   <tspan x="6.60em">─</tspan>
   <tspan x="7.15em">─</tspan>
   <tspan x="7.70em">─</tspan>
   <tspan x="8.25em">─</tspan>
   <tspan x="8.80em">─</tspan>
   <tspan x="9.35em">─</tspan>
   <tspan x="9.90em">─</tspan>
   <tspan x="10.45em">─</tspan>
   <tspan x="11.00em">─</tspan>
   <tspan x="11.55em">─</tspan>
   <tspan x="12.10em">┘</tspan>
  </tspan>
  <tspan y="6.78em">
   <tspan x="13.75em">┌</tspan>
   <tspan x="14.30em">─</tspan>
   <tspan x="14.85em">─</tspan>
   <tspan x="15.40em">─</tspan>
   <tspan x="15.95em">─</tspan>
   <tspan x="16.50em">─</tspan>
   <tspan x="17.05em">─</tspan>
   <tspan x="17.60em">─</tspan>
   <tspan x="18.15em">─</tspan>
   <tspan x="18.70em">─</tspan>
   <tspan x="19.25em">─</tspan>
   <tspan x="19.80em">─</tspan>
   <tspan x="20.35em">─</tspan>
   <tspan x="20.90em">─</tspan>
   <tspan x="21.45em">─</tspan>
   <tspan x="22.00em">─</tspan>
   <tspan x="22.55em">─</tspan>
   <tspan x="23.10em">─</tspan>
   <tspan x="23.65em">─</tspan>
   <tspan x="24.20em">─</tspan>
   <tspan x="24.75em">─</tspan>
   <tspan x="25.30em">─</tspan>
   <tspan x="25.85em">┐</tspan>
  </tspan>
  <tspan y="7.91em">
   <tspan x="13.75em">│</tspan>
   <tspan x="25.85em">│</tspan>
  </tspan>
  <tspan y="9.04em">
   <tspan x="13.75em">│</tspan>
   <tspan x="14.85em">r</tspan>
   <tspan x="15.40em">e</tspan>
   <tspan x="15.95em">l</tspan>
   <tspan x="16.50em">a</tspan>
   <tspan x="17.05em">t</tspan>
   <tspan x="17.60em">i</tspan>
   <tspan x="18.15em">v</tspan>
   <tspan x="18.70em">e</tspan>
   <tspan x="19.25em">(</tspan>
   <tspan x="19.80em">x</tspan>
   <tspan x="20.35em">=</tspan>
   <tspan x="20.90em">0</tspan>
   <tspan x="21.45em">,</tspan>
   <tspan x="22.55em">y</tspan>
   <tspan x="23.10em">=</tspan>
   <tspan x="23.65em">5</tspan>
   <tspan x="24.20em">)</tspan>
   <tspan x="25.85em">│</tspan>
  </tspan>
  <tspan y="10.17em">
   <tspan x="13.75em">│</tspan>
   <tspan x="25.85em">│</tspan>
  </tspan>
  <tspan y="11.30em">
   <tspan x="13.75em">└</tspan>
   <tspan x="14.30em">─</tspan>
   <tspan x="14.85em">─</tspan>
   <tspan x="15.40em">─</tspan>
   <tspan x="15.95em">─</tspan>
   <tspan x="16.50em">─</tspan>
   <tspan x="17.05em">─</tspan>
   <tspan x="17.60em">─</tspan>
   <tspan x="18.15em">─</tspan>
   <tspan x="18.70em">─</tspan>
   <tspan x="19.25em">─</tspan>
   <tspan x="19.80em">─</tspan>
   <tspan x="20.35em">─</tspan>
   <tspan x="20.90em">─</tspan>
   <tspan x="21.45em">─</tspan>
   <tspan x="22.00em">─</tspan>
   <tspan x="22.55em">─</tspan>
   <tspan x="23.10em">─</tspan>
   <tspan x="23.65em">─</tspan>
   <tspan x="24.20em">─</tspan>
   <tspan x="24.75em">─</tspan>
   <tspan x="25.30em">─</tspan>
   <tspan x="25.85em">┘</tspan>
  </tspan>
  <tspan y="12.43em" />
  <tspan y="13.56em">
   <tspan x="0.55em">┏</tspan>
   <tspan x="1.10em">━</tspan>
   <tspan x="1.65em">━</tspan>
   <tspan x="2.20em">━</tspan>
   <tspan x="2.75em">━</tspan>
   <tspan x="3.30em">━</tspan>
   <tspan x="3.85em">━</tspan>
   <tspan x="4.40em">━</tspan>
   <tspan x="4.95em">━</tspan>
   <tspan x="5.50em">━</tspan>
   <tspan x="6.05em">━</tspan>
   <tspan x="6.60em">━</tspan>
   <tspan x="7.15em">━</tspan>
   <tspan x="7.70em">━</tspan>
   <tspan x="8.25em">━</tspan>
   <tspan x="8.80em">━</tspan>
   <tspan x="9.35em">━</tspan>
   <tspan x="9.90em">━</tspan>
   <tspan x="10.45em">━</tspan>
   <tspan x="11.00em">━</tspan>
   <tspan x="11.55em">━</tspan>
   <tspan x="12.10em">┓</tspan>
   <tspan x="26.95em">┏</tspan>
   <tspan x="27.50em">━</tspan>
   <tspan x="28.05em">━</tspan>
   <tspan x="28.60em">━</tspan>
   <tspan x="29.15em">━</tspan>
   <tspan x="29.70em">━</tspan>
   <tspan x="30.25em">━</tspan>
   <tspan x="30.80em">━</tspan>
   <tspan x="31.35em">━</tspan>
   <tspan x="31.90em">━</tspan>
   <tspan x="32.45em">━</tspan>
   <tspan x="33.00em">━</tspan>
   <tspan x="33.55em">━</tspan>
   <tspan x="34.10em">━</tspan>
   <tspan x="34.65em">━</tspan>
   <tspan x="35.20em">━</tspan>
   <tspan x="35.75em">━</tspan>
   <tspan x="36.30em">━</tspan>
   <tspan x="36.85em">━</tspan>
   <tspan x="37.40em">━</tspan>
   <tspan x="37.95em">━</tspan>
   <tspan x="38.50em">┓</tspan>
  </tspan>
  <tspan y="14.69em">
   <tspan x="0.55em">┃</tspan>
   <tspan x="12.10em">┃</tspan>
   <tspan x="26.95em">┃</tspan>
   <tspan x="38.50em">┃</tspan>
  </tspan>
  <tspan y="15.82em">
   <tspan x="0.55em">┃</tspan>
   <tspan x="1.65em">r</tspan>
   <tspan x="2.20em">e</tspan>
   <tspan x="2.75em">l</tspan>
   <tspan x="3.30em">a</tspan>
   <tspan x="3.85em">t</tspan>
   <tspan x="4.40em">i</tspan>
   <tspan x="4.95em">v</tspan>
   <tspan x="5.50em">e</tspan>
   <tspan x="6.05em">(</tspan>
   <tspan x="6.60em">x</tspan>
   <tspan x="7.15em">=</tspan>
   <tspan x="7.70em">0</tspan>
   <tspan x="8.25em">,</tspan>
   <tspan x="9.35em">y</tspan>
   <tspan x="9.90em">=</tspan>
   <tspan x="10.45em">0</tspan>
   <tspan x="11.00em">)</tspan>
   <tspan x="12.10em">┃</tspan>
   <tspan x="26.95em">┃</tspan>
   <tspan x="28.05em">r</tspan>
   <tspan x="28.60em">e</tspan>
   <tspan x="29.15em">l</tspan>
   <tspan x="29.70em">a</tspan>
   <tspan x="30.25em">t</tspan>
   <tspan x="30.80em">i</tspan>
   <tspan x="31.35em">v</tspan>
   <tspan x="31.90em">e</tspan>
   <tspan x="32.45em">(</tspan>
   <tspan x="33.00em">x</tspan>
   <tspan x="33.55em">=</tspan>
   <tspan x="34.10em">0</tspan>
   <tspan x="34.65em">,</tspan>
   <tspan x="35.75em">y</tspan>
   <tspan x="36.30em">=</tspan>
   <tspan x="36.85em">0</tspan>
   <tspan x="37.40em">)</tspan>
   <tspan x="38.50em">┃</tspan>
  </tspan>
  <tspan y="16.95em">
   <tspan x="0.55em">┃</tspan>
   <tspan x="12.10em">┃</tspan>
   <tspan x="15.40em">┏</tspan>
   <tspan x="15.95em">━</tspan>
   <tspan x="16.50em">━</tspan>
   <tspan x="17.05em">━</tspan>
   <tspan x="17.60em">━</tspan>
   <tspan x="18.15em">━</tspan>
   <tspan x="18.70em">━</tspan>
   <tspan x="19.25em">━</tspan>
   <tspan x="19.80em">━</tspan>
   <tspan x="20.35em">━</tspan>
   <tspan x="20.90em">━</tspan>
   <tspan x="21.45em">━</tspan>
   <tspan x="22.00em">━</tspan>
   <tspan x="22.55em">━</tspan>
   <tspan x="23.10em">━</tspan>
   <tspan x="23.65em">━</tspan>
   <tspan x="24.20em">━</tspan>
   <tspan x="24.75em">━</tspan>
   <tspan x="25.30em">━</tspan>
   <tspan x="25.85em">━</tspan>
   <tspan x="26.95em">┃</tspan>
   <tspan x="38.50em">┃</tspan>
  </tspan>
  <tspan y="18.08em">
   <tspan x="0.55em">┗</tspan>
   <tspan x="1.10em">━</tspan>
   <tspan x="1.65em">━</tspan>
   <tspan x="2.20em">━</tspan>
   <tspan x="2.75em">━</tspan>
   <tspan x="3.30em">━</tspan>
   <tspan x="3.85em">━</tspan>
   <tspan x="4.40em">━</tspan>
   <tspan x="4.95em">━</tspan>
   <tspan x="5.50em">━</tspan>
   <tspan x="6.05em">━</tspan>
   <tspan x="6.60em">━</tspan>
   <tspan x="7.15em">━</tspan>
   <tspan x="7.70em">━</tspan>
   <tspan x="8.25em">━</tspan>
   <tspan x="8.80em">━</tspan>
   <tspan x="9.35em">━</tspan>
   <tspan x="9.90em">━</tspan>
   <tspan x="10.45em">━</tspan>
   <tspan x="11.00em">━</tspan>
   <tspan x="11.55em">━</tspan>
   <tspan x="12.10em">┛</tspan>
   <tspan x="15.40em">┃</tspan>
   <tspan x="26.95em">┗</tspan>
   <tspan x="27.50em">━</tspan>
   <tspan x="28.05em">━</tspan>
   <tspan x="28.60em">━</tspan>
   <tspan x="29.15em">━</tspan>
   <tspan x="29.70em">━</tspan>
   <tspan x="30.25em">━</tspan>
   <tspan x="30.80em">━</tspan>
   <tspan x="31.35em">━</tspan>
   <tspan x="31.90em">━</tspan>
   <tspan x="32.45em">━</tspan>
   <tspan x="33.00em">━</tspan>
   <tspan x="33.55em">━</tspan>
   <tspan x="34.10em">━</tspan>
   <tspan x="34.65em">━</tspan>
   <tspan x="35.20em">━</tspan>
   <tspan x="35.75em">━</tspan>
   <tspan x="36.30em">━</tspan>
   <tspan x="36.85em">━</tspan>
   <tspan x="37.40em">━</tspan>
   <tspan x="37.95em">━</tspan>
   <tspan x="38.50em">┛</tspan>
  </tspan>
  <tspan y="19.21em">
   <tspan x="15.40em">┃</tspan>
   <tspan x="16.50em">r</tspan>
   <tspan x="17.05em">e</tspan>
   <tspan x="17.60em">l</tspan>
   <tspan x="18.15em">a</tspan>
   <tspan x="18.70em">t</tspan>
   <tspan x="19.25em">i</tspan>
   <tspan x="19.80em">v</tspan>
   <tspan x="20.35em">e</tspan>
   <tspan x="20.90em">(</tspan>
   <tspan x="21.45em">x</tspan>
   <tspan x="22.00em">=</tspan>
   <tspan x="22.55em">3</tspan>
   <tspan x="23.10em">,</tspan>
   <tspan x="24.20em">y</tspan>
   <tspan x="24.75em">=</tspan>
   <tspan x="25.30em">3</tspan>
   <tspan x="25.85em">)</tspan>
  </tspan>
  <tspan y="20.34em">
   <tspan x="15.40em">┃</tspan>
  </tspan>
  <tspan y="21.47em">
   <tspan x="15.40em">┗</tspan>
   <tspan x="15.95em">━</tspan>
   <tspan x="16.50em">━</tspan>
   <tspan x="17.05em">━</tspan>
   <tspan x="17.60em">━</tspan>
   <tspan x="18.15em">━</tspan>
   <tspan x="18.70em">━</tspan>
   <tspan x="19.25em">━</tspan>
   <tspan x="19.80em">━</tspan>
   <tspan x="20.35em">━</tspan>
   <tspan x="20.90em">━</tspan>
   <tspan x="21.45em">━</tspan>
   <tspan x="22.00em">━</tspan>
   <tspan x="22.55em">━</tspan>
   <tspan x="23.10em">━</tspan>
   <tspan x="23.65em">━</tspan>
   <tspan x="24.20em">━</tspan>
   <tspan x="24.75em">━</tspan>
   <tspan x="25.30em">━</tspan>
   <tspan x="25.85em">━</tspan>
   <tspan x="26.40em">━</tspan>
   <tspan x="27.50em">┌</tspan>
   <tspan x="28.05em">─</tspan>
   <tspan x="28.60em">─</tspan>
   <tspan x="29.15em">─</tspan>
   <tspan x="29.70em">─</tspan>
   <tspan x="30.25em">─</tspan>
   <tspan x="30.80em">─</tspan>
   <tspan x="31.35em">─</tspan>
   <tspan x="31.90em">─</tspan>
   <tspan x="32.45em">─</tspan>
   <tspan x="33.00em">─</tspan>
   <tspan x="33.55em">─</tspan>
   <tspan x="34.10em">─</tspan>
   <tspan x="34.65em">─</tspan>
   <tspan x="35.20em">─</tspan>
   <tspan x="35.75em">─</tspan>
   <tspan x="36.30em">─</tspan>
   <tspan x="36.85em">─</tspan>
   <tspan x="37.40em">─</tspan>
   <tspan x="37.95em">─</tspan>
   <tspan x="38.50em">─</tspan>
   <tspan x="39.05em">┐</tspan>
  </tspan>
  <tspan y="22.60em">
   <tspan x="27.50em">│</tspan>
   <tspan x="39.05em">│</tspan>
  </tspan>
  <tspan y="23.73em">
   <tspan x="27.50em">│</tspan>
   <tspan x="28.60em">r</tspan>
   <tspan x="29.15em">e</tspan>
   <tspan x="29.70em">l</tspan>
   <tspan x="30.25em">a</tspan>
   <tspan x="30.80em">t</tspan>
   <tspan x="31.35em">i</tspan>
   <tspan x="31.90em">v</tspan>
   <tspan x="32.45em">e</tspan>
   <tspan x="33.00em">(</tspan>
   <tspan x="33.55em">x</tspan>
   <tspan x="34.10em">=</tspan>
   <tspan x="34.65em">0</tspan>
   <tspan x="35.20em">,</tspan>
   <tspan x="36.30em">y</tspan>
   <tspan x="36.85em">=</tspan>
   <tspan x="37.40em">-</tspan>
   <tspan x="37.95em">5</tspan>
   <tspan x="39.05em">│</tspan>
  </tspan>
  <tspan y="24.86em">
   <tspan x="27.50em">│</tspan>
   <tspan x="39.05em">│</tspan>
  </tspan>
  <tspan y="25.99em">
   <tspan x="27.50em">└</tspan>
   <tspan x="28.05em">─</tspan>
   <tspan x="28.60em">─</tspan>
   <tspan x="29.15em">─</tspan>
   <tspan x="29.70em">─</tspan>
   <tspan x="30.25em">─</tspan>
   <tspan x="30.80em">─</tspan>
   <tspan x="31.35em">─</tspan>
   <tspan x="31.90em">─</tspan>
   <tspan x="32.45em">─</tspan>
   <tspan x="33.00em">─</tspan>
   <tspan x="33.55em">─</tspan>
   <tspan x="34.10em">─</tspan>
   <tspan x="34.65em">─</tspan>
   <tspan x="35.20em">─</tspan>
   <tspan x="35.75em">─</tspan>
   <tspan x="36.30em">─</tspan>
   <tspan x="36.85em">─</tspan>
   <tspan x="37.40em">─</tspan>
   <tspan x="37.95em">─</tspan>
   <tspan x="38.50em">─</tspan>
   <tspan x="39.05em">┘</tspan>
  </tspan>
  <tspan y="27.12em">
   <tspan x="0.55em">┌</tspan>
   <tspan x="1.10em">─</tspan>
   <tspan x="1.65em">─</tspan>
   <tspan x="2.20em">─</tspan>
   <tspan x="2.75em">─</tspan>
   <tspan x="3.30em">─</tspan>
   <tspan x="3.85em">─</tspan>
   <tspan x="4.40em">─</tspan>
   <tspan x="4.95em">─</tspan>
   <tspan x="5.50em">─</tspan>
   <tspan x="6.05em">─</tspan>
   <tspan x="6.60em">─</tspan>
   <tspan x="7.15em">─</tspan>
   <tspan x="7.70em">─</tspan>
   <tspan x="8.25em">─</tspan>
   <tspan x="8.80em">─</tspan>
   <tspan x="9.35em">─</tspan>
   <tspan x="9.90em">─</tspan>
   <tspan x="10.45em">─</tspan>
   <tspan x="11.00em">─</tspan>
   <tspan x="11.55em">─</tspan>
   <tspan x="12.10em">┐</tspan>
   <tspan x="16.50em">┌</tspan>
   <tspan x="17.05em">─</tspan>
   <tspan x="17.60em">─</tspan>
   <tspan x="18.15em">─</tspan>
   <tspan x="18.70em">─</tspan>
   <tspan x="19.25em">─</tspan>
   <tspan x="19.80em">─</tspan>
   <tspan x="20.35em">─</tspan>
   <tspan x="20.90em">─</tspan>
   <tspan x="21.45em">─</tspan>
   <tspan x="22.00em">─</tspan>
   <tspan x="22.55em">─</tspan>
   <tspan x="23.10em">─</tspan>
   <tspan x="23.65em">─</tspan>
   <tspan x="24.20em">─</tspan>
   <tspan x="24.75em">─</tspan>
   <tspan x="25.30em">─</tspan>
   <tspan x="25.85em">─</tspan>
   <tspan x="26.40em">─</tspan>
  </tspan>
  <tspan y="28.25em">
   <tspan x="0.55em">│</tspan>
   <tspan x="12.10em">│</tspan>
   <tspan x="16.50em">│</tspan>
   <tspan x="28.60em">│</tspan>
  </tspan>
  <tspan y="29.38em">
   <tspan x="0.55em">│</tspan>
   <tspan x="1.65em">r</tspan>
   <tspan x="2.20em">e</tspan>
   <tspan x="2.75em">l</tspan>
   <tspan x="3.30em">a</tspan>
   <tspan x="3.85em">t</tspan>
   <tspan x="4.40em">i</tspan>
   <tspan x="4.95em">v</tspan>
   <tspan x="5.50em">e</tspan>
   <tspan x="6.05em">(</tspan>
   <tspan x="6.60em">x</tspan>
   <tspan x="7.15em">=</tspan>
   <tspan x="7.70em">0</tspan>
   <tspan x="8.25em">,</tspan>
   <tspan x="9.35em">y</tspan>
   <tspan x="9.90em">=</tspan>
   <tspan x="10.45em">0</tspan>
   <tspan x="11.00em">)</tspan>
   <tspan x="12.10em">│</tspan>
   <tspan x="16.50em">│</tspan>
   <tspan x="17.60em">r</tspan>
   <tspan x="18.15em">e</tspan>
   <tspan x="18.70em">l</tspan>
   <tspan x="19.25em">a</tspan>
   <tspan x="19.80em">t</tspan>
   <tspan x="20.35em">i</tspan>
   <tspan x="20.90em">v</tspan>
   <tspan x="21.45em">e</tspan>
   <tspan x="22.00em">(</tspan>
   <tspan x="22.55em">x</tspan>
   <tspan x="23.10em">=</tspan>
   <tspan x="23.65em">5</tspan>
   <tspan x="24.20em">,</tspan>
   <tspan x="25.30em">y</tspan>
   <tspan x="25.85em">=</tspan>
   <tspan x="26.40em">0</tspan>
   <tspan x="26.95em">)</tspan>
   <tspan x="28.60em">│</tspan>
  </tspan>
  <tspan y="30.51em">
   <tspan x="0.55em">│</tspan>
   <tspan x="12.10em">│</tspan>
   <tspan x="16.50em">│</tspan>
   <tspan x="28.60em">│</tspan>
  </tspan>
  <tspan y="31.64em">
   <tspan x="0.55em">└</tspan>
   <tspan x="1.10em">─</tspan>
   <tspan x="1.65em">─</tspan>
   <tspan x="2.20em">─</tspan>
   <tspan x="2.75em">─</tspan>
   <tspan x="3.30em">─</tspan>
   <tspan x="3.85em">─</tspan>
   <tspan x="4.40em">─</tspan>
   <tspan x="4.95em">─</tspan>
   <tspan x="5.50em">─</tspan>
   <tspan x="6.05em">─</tspan>
   <tspan x="6.60em">─</tspan>
   <tspan x="7.15em">─</tspan>
   <tspan x="7.70em">─</tspan>
   <tspan x="8.25em">─</tspan>
   <tspan x="8.80em">─</tspan>
   <tspan x="9.35em">─</tspan>
   <tspan x="9.90em">─</tspan>
   <tspan x="10.45em">─</tspan>
   <tspan x="11.00em">─</tspan>
   <tspan x="11.55em">─</tspan>
   <tspan x="12.10em">┘</tspan>
   <tspan x="16.50em">└</tspan>
   <tspan x="17.05em">─</tspan>
   <tspan x="17.60em">─</tspan>
   <tspan x="18.15em">─</tspan>
   <tspan x="18.70em">─</tspan>
   <tspan x="19.25em">─</tspan>
   <tspan x="19.80em">─</tspan>
   <tspan x="20.35em">─</tspan>
   <tspan x="20.90em">─</tspan>
   <tspan x="21.45em">─</tspan>
   <tspan x="22.00em">─</tspan>
   <tspan x="22.55em">─</tspan>
   <tspan x="23.10em">─</tspan>
   <tspan x="23.65em">─</tspan>
   <tspan x="24.20em">─</tspan>
   <tspan x="24.75em">─</tspan>
   <tspan x="25.30em">─</tspan>
   <tspan x="25.85em">─</tspan>
   <tspan x="26.40em">─</tspan>
   <tspan x="26.95em">─</tspan>
   <tspan x="27.50em">─</tspan>
   <tspan x="28.05em">─</tspan>
   <tspan x="28.60em">┘</tspan>
  </tspan>
  <tspan y="32.77em" />
 </text>
</svg>