<svg xmlns="http://www.w3.org/2000/svg" width="16.50em" height="16.95em">
 <style>svg {
  dominant-baseline: hanging;
  font-size: 1rem;
}
</style>
 <g shape-rendering="crispEdges">
  <rect x="0.00em" y="0.00em" width="16.50em" height="16.95em" fill="#000000" />
  <rect x="0.00em" y="0.00em" width="2.75em" height="1.13em" fill="#dc2626" />
  <rect x="2.75em" y="0.00em" width="13.75em" height="1.13em" fill="#000000" />
  <rect x="0.00em" y="1.13em" width="0.55em" height="1.13em" fill="#dc2626" />
  <rect x="0.55em" y="1.13em" width="1.65em" height="1.13em" fill="#000000" />
  <rect x="2.20em" y="1.13em" width="0.55em" height="1.13em" fill="#dc2626" />
  <rect x="2.75em" y="1.13em" width="13.75em" height="1.13em" fill="#000000" />
  <rect x="0.00em" y="2.26em" width="0.55em" height="1.13em" fill="#dc2626" />
  <rect x="0.55em" y="2.26em" width="1.65em" height="1.13em" fill="#000000" />
  <rect x="2.20em" y="2.26em" width="0.55em" height="1.13em" fill="#dc2626" />
  <rect x="2.75em" y="2.26em" width="13.75em" height="1.13em" fill="#000000" />
  <rect x="0.00em" y="3.39em" width="0.55em" height="1.13em" fill="#dc2626" />
  <rect x="0.55em" y="3.39em" width="1.65em" height="1.13em" fill="#000000" />
  <rect x="2.20em" y="3.39em" width="2.75em" height="1.13em" fill="#0d9488" />
  <rect x="4.95em" y="3.39em" width="2.20em" height="1.13em" fill="#000000" />
  <rect x="7.15em" y="3.39em" width="2.75em" height="1.13em" fill="#d97706" />
  <rect x="9.90em" y="3.39em" width="6.60em" height="1.13em" fill="#000000" />
  <rect x="0.00em" y="4.52em" width="2.20em" height="1.13em" fill="#dc2626" />
  <rect x="2.20em" y="4.52em" width="0.55em" height="1.13em" fill="#0d9488" />
  <rect x="2.75em" y="4.52em" width="1.65em" height="1.13em" fill="#000000" />
  <rect x="4.40em" y="4.52em" width="0.55em" height="1.13em" fill="#0d9488" />
  <rect x="4.95em" y="4.52em" width="2.20em" height="1.13em" fill="#000000" />
  <rect x="7.15em" y="4.52em" width="0.55em" height="1.13em" fill="#d97706" />
  <rect x="7.70em" y="4.52em" width="1.65em" height="1.13em" fill="#000000" />
  <rect x="9.35em" y="4.52em" width="0.55em" height="1.13em" fill="#d97706" />
  <rect x="9.90em" y="4.52em" width="6.60em" height="1.13em" fill="#000000" />
  <rect x="0.00em" y="5.65em" width="2.20em" height="1.13em" fill="#000000" />
  <rect x="2.20em" y="5.65em" width="0.55em" height="1.13em" fill="#0d9488" />
  <rect x="2.75em" y="5.65em" width="1.65em" height="1.13em" fill="#000000" />
  <rect x="4.40em" y="5.65em" width="0.55em" height="1.13em" fill="#0d9488" />
  <rect x="4.95em" y="5.65em" width="2.20em" height="1.13em" fill="#000000" />
  <rect x="7.15em" y="5.65em" width="0.55em" height="1.13em" fill="#d97706" />
  <rect x="7.70em" y="5.65em" width="1.65em" height="1.13em" fill="#000000" />
  <rect x="9.35em" y="5.65em" width="0.55em" height="1.13em" fill="#d97706" />
  <rect x="9.90em" y="5.65em" width="6.60em" height="1.13em" fill="#000000" />
  <rect x="0.00em" y="6.78em" width="2.20em" height="1.13em" fill="#000000" />
  <rect x="2.20em" y="6.78em" width="0.55em" height="1.13em" fill="#0d9488" />
  <rect x="2.75em" y="6.78em" width="0.55em" height="1.13em" fill="#000000" />
  <rect x="3.30em" y="6.78em" width="2.75em" height="1.13em" fill="#9333ea" />
  <rect x="6.05em" y="6.78em" width="1.10em" height="1.13em" fill="#000000" />
  <rect x="7.15em" y="6.78em" width="0.55em" height="1.13em" fill="#d97706" />
  <rect x="7.70em" y="6.78em" width="1.65em" height="1.13em" fill="#000000" />
  <rect x="9.35em" y="6.78em" width="0.55em" height="1.13em" fill="#d97706" />
  <rect x="9.90em" y="6.78em" width="6.60em" height="1.13em" fill="#000000" />
  <rect x="0.00em" y="7.91em" width="2.20em" height="1.13em" fill="#000000" />
  <rect x="2.20em" y="7.91em" width="1.10em" height="1.13em" fill="#0d9488" />
  <rect x="3.30em" y="7.91em" width="0.55em" height="1.13em" fill="#9333ea" />
  <rect x="3.85em" y="7.91em" width="1.65em" height="1.13em" fill="#000000" />
  <rect x="5.50em" y="7.91em" width="0.55em" height="1.13em" fill="#9333ea" />
  <rect x="6.05em" y="7.91em" width="1.10em" height="1.13em" fill="#000000" />
  <rect x="7.15em" y="7.91em" width="2.75em" height="1.13em" fill="#d97706" />
  <rect x="9.90em" y="7.91em" width="6.60em" height="1.13em" fill="#000000" />
  <rect x="0.00em" y="9.04em" width="3.30em" height="1.13em" fill="#000000" />
  <rect x="3.30em" y="9.04em" width="0.55em" height="1.13em" fill="#9333ea" />
  <rect x="3.85em" y="9.04em" width="1.65em" height="1.13em" fill="#000000" />
  <rect x="5.50em" y="9.04em" width="0.55em" height="1.13em" fill="#9333ea" />
  <rect x="6.05em" y="9.04em" width="10.45em" height="1.13em" fill="#000000" />
  <rect x="0.00em" y="10.17em" width="3.30em" height="1.13em" fill="#000000" />
  <rect x="3.30em" y="10.17em" width="0.55em" height="1.13em" fill="#9333ea" />
  <rect x="3.85em" y="10.17em" width="1.65em" height="1.13em" fill="#000000" />
  <rect x="5.50em" y="10.17em" width="0.55em" height="1.13em" fill="#9333ea" />
  <rect x="6.05em" y="10.17em" width="10.45em" height="1.13em" fill="#000000" />
  <rect x="0.00em" y="11.30em" width="3.30em" height="1.13em" fill="#000000" />
  <rect x="3.30em" y="11.30em" width="2.75em" height="1.13em" fill="#9333ea" />
  <rect x="6.05em" y="11.30em" width="10.45em" height="1.13em" fill="#000000" />
  <rect x="0.00em" y="12.43em" width="16.50em" height="1.13em" fill="#000000" />
  <rect x="0.00em" y="13.56em" width="16.50em" height="1.13em" fill="#000000" />
  <rect x="0.00em" y="14.69em" width="16.50em" height="1.13em" fill="#000000" />
  <rect x="0.00em" y="15.82em" width="16.50em" height="1.13em" fill="#000000" />
 </g>
 <text fill="#ffffff" font-family="monospace">
  <tspan y="0.00em" />
  <tspan y="1.13em">
   <tspan x="0.55em">╭</tspan>
   <tspan x="1.10em">─</tspan>
   <tspan x="1.65em">╮</tspan>
  </tspan>
  <tspan y="2.26em">
   <tspan x="0.55em">│</tspan>
   <tspan x="1.10em">1</tspan>
   <tspan x="1.65em">│</tspan>
  </tspan>
  <tspan y="3.39em">
   <tspan x="0.55em">╰</tspan>
   <tspan x="1.10em">─</tspan>
   <tspan x="1.65em">╯</tspan>
  </tspan>
  <tspan y="4.52em">
   <tspan x="2.75em">╭</tspan>
   <tspan x="3.30em">─</tspan>
   <tspan x="3.85em">╮</tspan>
   <tspan x="7.70em">╭</tspan>
   <tspan x="8.25em">─</tspan>
   <tspan x="8.80em">╮</tspan>
  </tspan>
  <tspan y="5.65em">
   <tspan x="2.75em">│</tspan>
   <tspan x="3.30em">0</tspan>
   <tspan x="3.85em">│</tspan>
   <tspan x="7.70em">│</tspan>
   <tspan x="8.25em">2</tspan>
   <tspan x="8.80em">│</tspan>
  </tspan>
  <tspan y="6.78em">
   <tspan x="2.75em">╰</tspan>
   <tspan x="7.70em">╰</tspan>
   <tspan x="8.25em">─</tspan>
   <tspan x="8.80em">╯</tspan>
  </tspan>
  <tspan y="7.91em">
   <tspan x="3.85em">╭</tspan>
   <tspan x="4.40em">─</tspan>
   <tspan x="4.95em">╮</tspan>
  </tspan>
  <tspan y="9.04em">
   <tspan x="3.85em">│</tspan>
   <tspan x="4.40em">1</tspan>
   <tspan x="4.95em">│</tspan>
  </tspan>
  <tspan y="10.17em">
   <tspan x="3.85em">╰</tspan>
   <tspan x="4.40em">─</tspan>
   <tspan x="4.95em">╯</tspan>
  </tspan>
  <tspan y="11.30em" />
  <tspan y="12.43em" />
  <tspan y="13.56em" />
  <tspan y="14.69em" />
  <tspan y="15.82em" />
 </text>
</svg>