<svg xmlns="http://www.w3.org/2000/svg" width="33.00em" height="33.90em">
 <style>svg {
  dominant-baseline: hanging;
  font-size: 1rem;
}
</style>
 <g shape-rendering="crispEdges">
  <rect x="0.00em" y="0.00em" width="33.00em" height="33.90em" fill="#000000" />
  <rect x="0.00em" y="0.00em" width="6.05em" height="1.13em" fill="#000000" />
  <rect x="6.05em" y="0.00em" width="0.55em" height="1.13em" fill="#d97706" />
  <rect x="6.60em" y="0.00em" width="18.70em" height="1.13em" fill="#000000" />
  <rect x="25.30em" y="0.00em" width="0.55em" height="1.13em" fill="#d97706" />
  <rect x="25.85em" y="0.00em" width="7.15em" height="1.13em" fill="#000000" />
  <rect x="0.00em" y="1.13em" width="0.55em" height="1.13em" fill="#000000" />
  <rect x="0.55em" y="1.13em" width="5.50em" height="1.13em" fill="#dc2626" />
  <rect x="6.05em" y="1.13em" width="0.55em" height="1.13em" fill="#d97706" />
  <rect x="6.60em" y="1.13em" width="18.70em" height="1.13em" fill="#000000" />
  <rect x="25.30em" y="1.13em" width="0.55em" height="1.13em" fill="#d97706" />
  <rect x="25.85em" y="1.13em" width="7.15em" height="1.13em" fill="#000000" />
  <rect x="0.00em" y="2.26em" width="0.55em" height="1.13em" fill="#000000" />
  <rect x="0.55em" y="2.26em" width="0.55em" height="1.13em" fill="#dc2626" />
  <rect x="1.10em" y="2.26em" width="4.95em" height="1.13em" fill="#000000" />
  <rect x="6.05em" y="2.26em" width="0.55em" height="1.13em" fill="#d97706" />
  <rect x="6.60em" y="2.26em" width="18.70em" height="1.13em" fill="#000000" />
  <rect x="25.30em" y="2.26em" width="0.55em" height="1.13em" fill="#d97706" />
  <rect x="25.85em" y="2.26em" width="7.15em" height="1.13em" fill="#000000" />
  <rect x="0.00em" y="3.39em" width="6.05em" height="1.13em" fill="#000000" />
  <rect x="6.05em" y="3.39em" width="19.80em" height="1.13em" fill="#d97706" />
  <rect x="25.85em" y="3.39em" width="7.15em" height="1.13em" fill="#000000" />
  <rect x="0.00em" y="4.52em" width="0.55em" height="1.13em" fill="#000000" />
  <rect x="0.55em" y="4.52em" width="18.15em" height="1.13em" fill="#d97706" />
  <rect x="18.70em" y="4.52em" width="14.30em" height="1.13em" fill="#dc2626" />
  <rect x="0.00em" y="5.65em" width="0.55em" height="1.13em" fill="#000000" />
  <rect x="0.55em" y="5.65em" width="0.55em" height="1.13em" fill="#d97706" />
  <rect x="1.10em" y="5.65em" width="17.60em" height="1.13em" fill="#000000" />
  <rect x="18.70em" y="5.65em" width="0.55em" height="1.13em" fill="#dc2626" />
  <rect x="19.25em" y="5.65em" width="13.75em" height="1.13em" fill="#000000" />
  <rect x="0.00em" y="6.78em" width="0.55em" height="1.13em" fill="#000000" />
  <rect x="0.55em" y="6.78em" width="0.55em" height="1.13em" fill="#d97706" />
  <rect x="1.10em" y="6.78em" width="17.60em" height="1.13em" fill="#000000" />
  <rect x="18.70em" y="6.78em" width="0.55em" height="1.13em" fill="#dc2626" />
  <rect x="19.25em" y="6.78em" width="13.75em" height="1.13em" fill="#000000" />
  <rect x="0.00em" y="7.91em" width="0.55em" height="1.13em" fill="#000000" />
  <rect x="0.55em" y="7.91em" width="0.55em" height="1.13em" fill="#d97706" />
  <rect x="1.10em" y="7.91em" width="17.60em" height="1.13em" fill="#000000" />
  <rect x="18.70em" y="7.91em" width="14.30em" height="1.13em" fill="#d97706" />
  <rect x="0.00em" y="9.04em" width="0.55em" height="1.13em" fill="#000000" />
  <rect x="0.55em" y="9.04em" width="0.55em" height="1.13em" fill="#d97706" />
  <rect x="1.10em" y="9.04em" width="17.60em" height="1.13em" fill="#000000" />
  <rect x="18.70em" y="9.04em" width="0.55em" height="1.13em" fill="#d97706" />
  <rect x="19.25em" y="9.04em" width="13.75em" height="1.13em" fill="#000000" />
  <rect x="0.00em" y="10.17em" width="0.55em" height="1.13em" fill="#000000" />
  <rect x="0.55em" y="10.17em" width="0.55em" height="1.13em" fill="#d97706" />
  <rect x="1.10em" y="10.17em" width="17.60em" height="1.13em" fill="#000000" />
  <rect x="18.70em" y="10.17em" width="0.55em" height="1.13em" fill="#d97706" />
  <rect x="19.25em" y="10.17em" width="13.75em" height="1.13em" fill="#000000" />
  <rect x="0.00em" y="11.30em" width="0.55em" height="1.13em" fill="#000000" />
  <rect x="0.55em" y="11.30em" width="18.70em" height="1.13em" fill="#d97706" />
  <rect x="19.25em" y="11.30em" width="13.75em" height="1.13em" fill="#000000" />
  <rect x="0.00em" y="12.43em" width="18.70em" height="1.13em" fill="#000000" />
  <rect x="18.70em" y="12.43em" width="0.55em" height="1.13em" fill="#d97706" />
  <rect x="19.25em" y="12.43em" width="13.75em" height="1.13em" fill="#000000" />
  <rect x="0.00em" y="13.56em" width="18.70em" height="1.13em" fill="#000000" />
  <rect x="18.70em" y="13.56em" width="0.55em" height="1.13em" fill="#d97706" />
  <rect x="19.25em" y="13.56em" width="13.75em" height="1.13em" fill="#000000" />
  <rect x="0.00em" y="14.69em" width="18.70em" height="1.13em" fill="#000000" />
  <rect x="18.70em" y="14.69em" width="14.30em" height="1.13em" fill="#d97706" />
  <rect x="0.00em" y="15.82em" width="33.00em" height="1.13em" fill="#000000" />
  <rect x="0.00em" y="16.95em" width="33.00em" height="1.13em" fill="#000000" />
  <rect x="0.00em" y="18.08em" width="33.00em" height="1.13em" fill="#000000" />
  <rect x="0.00em" y="19.21em" width="33.00em" height="1.13em" fill="#000000" />
  <rect x="0.00em" y="20.34em" width="33.00em" height="1.13em" fill="#000000" />
  <rect x="0.00em" y="21.47em" width="33.00em" height="1.13em" fill="#000000" />
  <rect x="0.00em" y="22.60em" width="33.00em" height="1.13em" fill="#000000" />
  <rect x="0.00em" y="23.73em" width="33.00em" height="1.13em" fill="#000000" />
  <rect x="0.00em" y="24.86em" width="33.00em" height="1.13em" fill="#000000" />
  <rect x="0.00em" y="25.99em" width="33.00em" height="1.13em" fill="#000000" />
  <rect x="0.00em" y="27.12em" width="33.00em" height="1.13em" fill="#000000" />
  <rect x="0.00em" y="28.25em" width="33.00em" height="1.13em" fill="#000000" />
  <rect x="0.00em" y="29.38em" width="33.00em" height="1.13em" fill="#000000" />
  <rect x="0.00em" y="30.51em" width="33.00em" height="1.13em" fill="#000000" />
  <rect x="0.00em" y="31.64em" width="33.00em" height="1.13em" fill="#000000" />
  <rect x="0.00em" y="32.77em" width="33.00em" height="1.13em" fill="#000000" />
 </g>
 <text fill="#ffffff" font-family="monospace">
  <tspan y="0.00em">
   <tspan x="0.00em">┏</tspan>
   <tspan x="0.55em">━</tspan>
   <tspan x="1.10em">━</tspan>
   <tspan x="1.65em">━</tspan>
   <tspan x="2.20em">━</tspan>
   <tspan x="2.75em">━</tspan>
   <tspan x="3.30em">━</tspan>
   <tspan x="3.85em">━</tspan>
   <tspan x="4.40em">━</tspan>
   <tspan x="4.95em">━</tspan>
   <tspan x="5.50em">━</tspan>
   <tspan x="6.60em">│</tspan>
   <tspan x="7.70em">i</tspan>
   <tspan x="8.25em">n</tspan>
   <tspan x="8.80em">s</tspan>
   <tspan x="9.35em">e</tspan>
   <tspan x="9.90em">t</tspan>
   <tspan x="10.45em">_</tspan>
   <tspan x="11.00em">l</tspan>
   <tspan x="11.55em">e</tspan>
   <tspan x="12.10em">f</tspan>
   <tspan x="12.65em">t</tspan>
   <tspan x="13.20em">(</tspan>
   <tspan x="13.75em">1</tspan>
   <tspan x="14.30em">0</tspan>
   <tspan x="14.85em">)</tspan>
   <tspan x="15.95em">|</tspan>
   <tspan x="17.05em">i</tspan>
   <tspan x="17.60em">n</tspan>
   <tspan x="18.15em">s</tspan>
   <tspan x="18.70em">e</tspan>
   <tspan x="19.25em">t</tspan>
   <tspan x="19.80em">_</tspan>
   <tspan x="20.35em">t</tspan>
   <tspan x="20.90em">o</tspan>
   <tspan x="21.45em">p</tspan>
   <tspan x="22.00em">(</tspan>
   <tspan x="22.55em">-</tspan>
   <tspan x="23.10em">7</tspan>
   <tspan x="23.65em">)</tspan>
   <tspan x="24.75em">│</tspan>
   <tspan x="25.85em">━</tspan>
   <tspan x="26.40em">━</tspan>
   <tspan x="26.95em">━</tspan>
   <tspan x="27.50em">━</tspan>
   <tspan x="28.05em">━</tspan>
   <tspan x="28.60em">━</tspan>
   <tspan x="29.15em">━</tspan>
   <tspan x="29.70em">━</tspan>
   <tspan x="30.25em">━</tspan>
   <tspan x="30.80em">━</tspan>
   <tspan x="31.35em">━</tspan>
   <tspan x="31.90em">━</tspan>
   <tspan x="32.45em">┓</tspan>
  </tspan>
  <tspan y="1.13em">
   <tspan x="0.00em">┃</tspan>
   <tspan x="6.60em">│</tspan>
   <tspan x="24.75em">│</tspan>
   <tspan x="25.85em" fill="#16a34a">c</tspan>
   <tspan x="26.40em" fill="#16a34a">i</tspan>
   <tspan x="26.95em" fill="#16a34a">n</tspan>
   <tspan x="27.50em" fill="#16a34a">g</tspan>
   <tspan x="28.60em" fill="#16a34a">e</tspan>
   <tspan x="29.15em" fill="#16a34a">l</tspan>
   <tspan x="29.70em" fill="#16a34a">i</tspan>
   <tspan x="30.25em" fill="#16a34a">t</tspan>
   <tspan x="30.80em" fill="#16a34a">.</tspan>
   <tspan x="32.45em">┃</tspan>
  </tspan>
  <tspan y="2.26em">
   <tspan x="0.00em">┗</tspan>
   <tspan x="1.10em">┌</tspan>
   <tspan x="1.65em">─</tspan>
   <tspan x="2.20em">─</tspan>
   <tspan x="2.75em">─</tspan>
   <tspan x="3.30em">─</tspan>
   <tspan x="3.85em">─</tspan>
   <tspan x="4.40em">─</tspan>
   <tspan x="4.95em">─</tspan>
   <tspan x="5.50em">─</tspan>
   <tspan x="6.60em">└</tspan>
   <tspan x="7.15em">─</tspan>
   <tspan x="7.70em">─</tspan>
   <tspan x="8.25em">─</tspan>
   <tspan x="8.80em">─</tspan>
   <tspan x="9.35em">─</tspan>
   <tspan x="9.90em">─</tspan>
   <tspan x="10.45em">─</tspan>
   <tspan x="11.00em">─</tspan>
   <tspan x="11.55em">─</tspan>
   <tspan x="12.10em">─</tspan>
   <tspan x="12.65em">─</tspan>
   <tspan x="13.20em">─</tspan>
   <tspan x="13.75em">─</tspan>
   <tspan x="14.30em">─</tspan>
   <tspan x="14.85em">─</tspan>
   <tspan x="15.40em">─</tspan>
   <tspan x="15.95em">─</tspan>
   <tspan x="16.50em">─</tspan>
   <tspan x="17.05em">─</tspan>
   <tspan x="17.60em">─</tspan>
   <tspan x="18.15em">─</tspan>
   <tspan x="18.70em">─</tspan>
   <tspan x="19.25em">─</tspan>
   <tspan x="19.80em">─</tspan>
   <tspan x="20.35em">─</tspan>
   <tspan x="20.90em">─</tspan>
   <tspan x="21.45em">─</tspan>
   <tspan x="22.00em">─</tspan>
   <tspan x="22.55em">─</tspan>
   <tspan x="23.10em">─</tspan>
   <tspan x="23.65em">─</tspan>
   <tspan x="24.20em">─</tspan>
   <tspan x="24.75em">┘</tspan>
   <tspan x="25.85em">━</tspan>
   <tspan x="26.40em">━</tspan>
   <tspan x="26.95em">━</tspan>
   <tspan x="27.50em">━</tspan>
   <tspan x="28.05em">━</tspan>
   <tspan x="28.60em">━</tspan>
   <tspan x="29.15em">━</tspan>
   <tspan x="29.70em">━</tspan>
   <tspan x="30.25em">━</tspan>
   <tspan x="30.80em">━</tspan>
   <tspan x="31.35em">━</tspan>
   <tspan x="31.90em">━</tspan>
   <tspan x="32.45em">┛</tspan>
  </tspan>
  <tspan y="3.39em">
   <tspan x="0.00em">┏</tspan>
   <tspan x="0.55em">━</tspan>
   <tspan x="1.10em">━</tspan>
   <tspan x="1.65em">━</tspan>
   <tspan x="2.20em">━</tspan>
   <tspan x="2.75em">━</tspan>
   <tspan x="3.30em">━</tspan>
   <tspan x="3.85em">━</tspan>
   <tspan x="4.40em">━</tspan>
   <tspan x="4.95em">━</tspan>
   <tspan x="5.50em">━</tspan>
   <tspan x="25.85em">━</tspan>
   <tspan x="26.40em">━</tspan>
   <tspan x="26.95em">━</tspan>
   <tspan x="27.50em">━</tspan>
   <tspan x="28.05em">━</tspan>
   <tspan x="28.60em">━</tspan>
   <tspan x="29.15em">━</tspan>
   <tspan x="29.70em">━</tspan>
   <tspan x="30.25em">━</tspan>
   <tspan x="30.80em">━</tspan>
   <tspan x="31.35em">━</tspan>
   <tspan x="31.90em">━</tspan>
   <tspan x="32.45em">┓</tspan>
  </tspan>
  <tspan y="4.52em">
   <tspan x="0.00em">┃</tspan>
  </tspan>
  <tspan y="5.65em">
   <tspan x="0.00em">┗</tspan>
   <tspan x="1.10em">┌</tspan>
   <tspan x="1.65em">─</tspan>
   <tspan x="2.20em">─</tspan>
   <tspan x="2.75em">─</tspan>
   <tspan x="3.30em">─</tspan>
   <tspan x="3.85em">─</tspan>
   <tspan x="4.40em">─</tspan>
   <tspan x="4.95em">─</tspan>
   <tspan x="5.50em">─</tspan>
   <tspan x="6.05em">─</tspan>
   <tspan x="6.60em">─</tspan>
   <tspan x="7.15em">─</tspan>
   <tspan x="7.70em">─</tspan>
   <tspan x="8.25em">─</tspan>
   <tspan x="8.80em">─</tspan>
   <tspan x="9.35em">─</tspan>
   <tspan x="9.90em">─</tspan>
   <tspan x="10.45em">─</tspan>
   <tspan x="11.00em">─</tspan>
   <tspan x="11.55em">─</tspan>
   <tspan x="12.10em">─</tspan>
   <tspan x="12.65em">─</tspan>
   <tspan x="13.20em">─</tspan>
   <tspan x="13.75em">─</tspan>
   <tspan x="14.30em">─</tspan>
   <tspan x="14.85em">─</tspan>
   <tspan x="15.40em">─</tspan>
   <tspan x="15.95em">─</tspan>
   <tspan x="16.50em">─</tspan>
   <tspan x="17.05em">─</tspan>
   <tspan x="17.60em">─</tspan>
   <tspan x="18.15em">┐</tspan>
   <tspan x="19.25em">┌</tspan>
   <tspan x="19.80em">─</tspan>
   <tspan x="20.35em">─</tspan>
   <tspan x="20.90em">─</tspan>
   <tspan x="21.45em">─</tspan>
   <tspan x="22.00em">─</tspan>
   <tspan x="22.55em">─</tspan>
   <tspan x="23.10em">─</tspan>
   <tspan x="23.65em">─</tspan>
   <tspan x="24.20em">─</tspan>
   <tspan x="24.75em">─</tspan>
   <tspan x="25.30em">─</tspan>
   <tspan x="25.85em">─</tspan>
   <tspan x="26.40em">─</tspan>
   <tspan x="26.95em">─</tspan>
   <tspan x="27.50em">─</tspan>
   <tspan x="28.05em">─</tspan>
   <tspan x="28.60em">─</tspan>
   <tspan x="29.15em">─</tspan>
   <tspan x="29.70em">─</tspan>
   <tspan x="30.25em">─</tspan>
   <tspan x="30.80em">─</tspan>
   <tspan x="31.35em">─</tspan>
   <tspan x="31.90em">─</tspan>
   <tspan x="32.45em">─</tspan>
  </tspan>
  <tspan y="6.78em">
   <tspan x="1.10em">│</tspan>
   <tspan x="18.15em">│</tspan>
   <tspan x="19.25em">│</tspan>
  </tspan>
  <tspan y="7.91em">
   <tspan x="1.10em">│</tspan>
   <tspan x="2.20em">i</tspan>
   <tspan x="2.75em">n</tspan>
   <tspan x="3.30em">s</tspan>
   <tspan x="3.85em">e</tspan>
   <tspan x="4.40em">t</tspan>
   <tspan x="4.95em">_</tspan>
   <tspan x="5.50em">l</tspan>
   <tspan x="6.05em">e</tspan>
   <tspan x="6.60em">f</tspan>
   <tspan x="7.15em">t</tspan>
   <tspan x="7.70em">(</tspan>
   <tspan x="8.25em">0</tspan>
   <tspan x="8.80em">)</tspan>
   <tspan x="9.90em">|</tspan>
   <tspan x="11.00em">i</tspan>
   <tspan x="11.55em">n</tspan>
   <tspan x="12.10em">s</tspan>
   <tspan x="12.65em">e</tspan>
   <tspan x="13.20em">t</tspan>
   <tspan x="13.75em">_</tspan>
   <tspan x="14.30em">t</tspan>
   <tspan x="14.85em">o</tspan>
   <tspan x="15.40em">p</tspan>
   <tspan x="15.95em">(</tspan>
   <tspan x="16.50em">0</tspan>
   <tspan x="17.05em">)</tspan>
   <tspan x="18.15em">│</tspan>
  </tspan>
  <tspan y="9.04em">
   <tspan x="1.10em">│</tspan>
   <tspan x="18.15em">│</tspan>
   <tspan x="19.25em">┌</tspan>
   <tspan x="19.80em">─</tspan>
   <tspan x="20.35em">─</tspan>
   <tspan x="20.90em">─</tspan>
   <tspan x="21.45em">─</tspan>
   <tspan x="22.00em">─</tspan>
   <tspan x="22.55em">─</tspan>
   <tspan x="23.10em">─</tspan>
   <tspan x="23.65em">─</tspan>
   <tspan x="24.20em">─</tspan>
   <tspan x="24.75em">─</tspan>
   <tspan x="25.30em">─</tspan>
   <tspan x="25.85em">─</tspan>
   <tspan x="26.40em">─</tspan>
   <tspan x="26.95em">─</tspan>
   <tspan x="27.50em">─</tspan>
   <tspan x="28.05em">─</tspan>
   <tspan x="28.60em">─</tspan>
   <tspan x="29.15em">─</tspan>
   <tspan x="29.70em">─</tspan>
   <tspan x="30.25em">─</tspan>
   <tspan x="30.80em">─</tspan>
   <tspan x="31.35em">─</tspan>
   <tspan x="31.90em">─</tspan>
   <tspan x="32.45em">─</tspan>
  </tspan>
  <tspan y="10.17em">
   <tspan x="1.10em">└</tspan>
   <tspan x="1.65em">─</tspan>
   <tspan x="2.20em">─</tspan>
   <tspan x="2.75em">─</tspan>
   <tspan x="3.30em">─</tspan>
   <tspan x="3.85em">─</tspan>
   <tspan x="4.40em">─</tspan>
   <tspan x="4.95em">─</tspan>
   <tspan x="5.50em">─</tspan>
   <tspan x="6.05em">─</tspan>
   <tspan x="6.60em">─</tspan>
   <tspan x="7.15em">─</tspan>
   <tspan x="7.70em">─</tspan>
   <tspan x="8.25em">─</tspan>
   <tspan x="8.80em">─</tspan>
   <tspan x="9.35em">─</tspan>
   <tspan x="9.90em">─</tspan>
   <tspan x="10.45em">─</tspan>
   <tspan x="11.00em">─</tspan>
   <tspan x="11.55em">─</tspan>
   <tspan x="12.10em">─</tspan>
   <tspan x="12.65em">─</tspan>
   <tspan x="13.20em">─</tspan>
   <tspan x="13.75em">─</tspan>
   <tspan x="14.30em">─</tspan>
   <tspan x="14.85em">─</tspan>
   <tspan x="15.40em">─</tspan>
   <tspan x="15.95em">─</tspan>
   <tspan x="16.50em">─</tspan>
   <tspan x="17.05em">─</tspan>
   <tspan x="17.60em">─</tspan>
   <tspan x="18.15em">┘</tspan>
   <tspan x="19.25em">│</tspan>
  </tspan>
  <tspan y="11.30em">
   <tspan x="19.25em">│</tspan>
   <tspan x="20.35em">i</tspan>
   <tspan x="20.90em">n</tspan>
   <tspan x="21.45em">s</tspan>
   <tspan x="22.00em">e</tspan>
   <tspan x="22.55em">t</tspan>
   <tspan x="23.10em">_</tspan>
   <tspan x="23.65em">l</tspan>
   <tspan x="24.20em">e</tspan>
   <tspan x="24.75em">f</tspan>
   <tspan x="25.30em">t</tspan>
   <tspan x="25.85em">(</tspan>
   <tspan x="26.40em">3</tspan>
   <tspan x="26.95em">3</tspan>
   <tspan x="27.50em">)</tspan>
   <tspan x="28.60em">|</tspan>
   <tspan x="29.70em">i</tspan>
   <tspan x="30.25em">n</tspan>
   <tspan x="30.80em">s</tspan>
   <tspan x="31.35em">e</tspan>
   <tspan x="31.90em">t</tspan>
   <tspan x="32.45em">_</tspan>
  </tspan>
  <tspan y="12.43em">
   <tspan x="19.25em">│</tspan>
  </tspan>
  <tspan y="13.56em">
   <tspan x="19.25em">└</tspan>
   <tspan x="19.80em">─</tspan>
   <tspan x="20.35em">─</tspan>
   <tspan x="20.90em">─</tspan>
   <tspan x="21.45em">─</tspan>
   <tspan x="22.00em">─</tspan>
   <tspan x="22.55em">─</tspan>
   <tspan x="23.10em">─</tspan>
   <tspan x="23.65em">─</tspan>
   <tspan x="24.20em">─</tspan>
   <tspan x="24.75em">─</tspan>
   <tspan x="25.30em">─</tspan>
   <tspan x="25.85em">─</tspan>
   <tspan x="26.40em">─</tspan>
   <tspan x="26.95em">─</tspan>
   <tspan x="27.50em">─</tspan>
   <tspan x="28.05em">─</tspan>
   <tspan x="28.60em">─</tspan>
   <tspan x="29.15em">─</tspan>
   <tspan x="29.70em">─</tspan>
   <tspan x="30.25em">─</tspan>
   <tspan x="30.80em">─</tspan>
   <tspan x="31.35em">─</tspan>
   <tspan x="31.90em">─</tspan>
   <tspan x="32.45em">─</tspan>
  </tspan>
  <tspan y="14.69em" />
  <tspan y="15.82em" />
  <tspan y="16.95em" />
  <tspan y="18.08em" />
  <tspan y="19.21em" />
  <tspan y="20.34em" />
  <tspan y="21.47em" />
  <tspan y="22.60em" />
  <tspan y="23.73em" />
  <tspan y="24.86em" />
  <tspan y="25.99em" />
  <tspan y="27.12em" />
  <tspan y="28.25em" />
  <tspan y="29.38em" />
  <tspan y="30.51em" />
  <tspan y="31.64em" />
  <tspan y="32.77em" />
 </text>
</svg>