<svg xmlns="http://www.w3.org/2000/svg" width="33.00em" height="22.60em">
 <style>svg {
  dominant-baseline: hanging;
  font-size: 1rem;
}
</style>
 <g shape-rendering="crispEdges">
  <rect x="0.00em" y="0.00em" width="33.00em" height="22.60em" fill="#000000" />
  <rect x="0.00em" y="0.00em" width="33.00em" height="1.13em" fill="#000000" />
  <rect x="0.00em" y="1.13em" width="33.00em" height="1.13em" fill="#000000" />
  <rect x="0.00em" y="2.26em" width="33.00em" height="1.13em" fill="#000000" />
  <rect x="0.00em" y="3.39em" width="33.00em" height="1.13em" fill="#000000" />
  <rect x="0.00em" y="4.52em" width="33.00em" height="1.13em" fill="#000000" />
  <rect x="0.00em" y="5.65em" width="33.00em" height="1.13em" fill="#000000" />
  <rect x="0.00em" y="6.78em" width="33.00em" height="1.13em" fill="#000000" />
  <rect x="0.00em" y="7.91em" width="33.00em" height="1.13em" fill="#000000" />
  <rect x="0.00em" y="9.04em" width="33.00em" height="1.13em" fill="#000000" />
  <rect x="0.00em" y="10.17em" width="33.00em" height="1.13em" fill="#000000" />
  <rect x="0.00em" y="11.30em" width="33.00em" height="1.13em" fill="#000000" />
  <rect x="0.00em" y="12.43em" width="33.00em" height="1.13em" fill="#000000" />
  <rect x="0.00em" y="13.56em" width="33.00em" height="1.13em" fill="#000000" />
  <rect x="0.00em" y="14.69em" width="33.00em" height="1.13em" fill="#000000" />
  <rect x="0.00em" y="15.82em" width="33.00em" height="1.13em" fill="#000000" />
  <rect x="0.00em" y="16.95em" width="33.00em" height="1.13em" fill="#000000" />
  <rect x="0.00em" y="18.08em" width="33.00em" height="1.13em" fill="#000000" />
  <rect x="0.00em" y="19.21em" width="33.00em" height="1.13em" fill="#000000" />
  <rect x="0.00em" y="20.34em" width="33.00em" height="1.13em" fill="#000000" />
  <rect x="0.00em" y="21.47em" width="33.00em" height="1.13em" fill="#000000" />
 </g>
 <text fill="#ffffff" font-family="monospace">
  <tspan y="0.00em">
   <tspan x="15.40em">╔</tspan>
   <tspan x="15.95em">═</tspan>
   <tspan x="16.50em">═</tspan>
   <tspan x="17.05em">╗</tspan>
   <tspan x="17.60em">╔</tspan>
   <tspan x="18.15em">═</tspan>
   <tspan x="18.70em">═</tspan>
   <tspan x="19.25em">╗</tspan>
  </tspan>
  <tspan y="1.13em">
   <tspan x="15.40em">║</tspan>
   <tspan x="15.95em" fill="#f59e0b">B</tspan>
   <tspan x="16.50em" fill="#f59e0b">1</tspan>
   <tspan x="17.05em">║</tspan>
   <tspan x="17.60em">║</tspan>
   <tspan x="19.25em">║</tspan>
  </tspan>
  <tspan y="2.26em">
   <tspan x="11.00em">╔</tspan>
   <tspan x="11.55em">═</tspan>
   <tspan x="12.10em">═</tspan>
   <tspan x="12.65em">╗</tspan>
   <tspan x="15.40em">╚</tspan>
   <tspan x="15.95em">═</tspan>
   <tspan x="16.50em">═</tspan>
   <tspan x="17.05em">╝</tspan>
   <tspan x="17.60em">╚</tspan>
   <tspan x="18.15em">═</tspan>
   <tspan x="18.70em">═</tspan>
   <tspan x="19.25em">╝</tspan>
  </tspan>
  <tspan y="3.39em">
   <tspan x="11.00em">║</tspan>
   <tspan x="11.55em" fill="#f59e0b">A</tspan>
   <tspan x="12.10em" fill="#f59e0b">1</tspan>
   <tspan x="12.65em">║</tspan>
   <tspan x="13.20em">╔</tspan>
   <tspan x="13.75em">═</tspan>
   <tspan x="14.30em">═</tspan>
   <tspan x="14.85em">╗</tspan>
   <tspan x="15.40em">╔</tspan>
   <tspan x="15.95em">═</tspan>
   <tspan x="16.50em">═</tspan>
   <tspan x="17.05em">╗</tspan>
   <tspan x="17.60em">╔</tspan>
   <tspan x="18.15em">═</tspan>
   <tspan x="18.70em">═</tspan>
   <tspan x="19.25em">╗</tspan>
   <tspan x="19.80em">╔</tspan>
   <tspan x="20.35em">═</tspan>
   <tspan x="20.90em">═</tspan>
   <tspan x="21.45em">╗</tspan>
  </tspan>
  <tspan y="4.52em">
   <tspan x="11.00em">╚</tspan>
   <tspan x="11.55em">═</tspan>
   <tspan x="12.10em">═</tspan>
   <tspan x="12.65em">╝</tspan>
   <tspan x="13.20em">║</tspan>
   <tspan x="13.75em" fill="#06b6d4">C</tspan>
   <tspan x="14.30em" fill="#06b6d4">1</tspan>
   <tspan x="14.85em">║</tspan>
   <tspan x="15.40em">║</tspan>
   <tspan x="17.05em">║</tspan>
   <tspan x="17.60em">║</tspan>
   <tspan x="19.25em">║</tspan>
   <tspan x="19.80em">║</tspan>
   <tspan x="21.45em">║</tspan>
  </tspan>
  <tspan y="5.65em">
   <tspan x="11.00em">╔</tspan>
   <tspan x="11.55em">═</tspan>
   <tspan x="12.10em">═</tspan>
   <tspan x="12.65em">╗</tspan>
   <tspan x="13.20em">╚</tspan>
   <tspan x="13.75em">═</tspan>
   <tspan x="14.30em">═</tspan>
   <tspan x="14.85em">╝</tspan>
   <tspan x="15.40em">╚</tspan>
   <tspan x="15.95em">═</tspan>
   <tspan x="16.50em">═</tspan>
   <tspan x="17.05em">╝</tspan>
   <tspan x="17.60em">╚</tspan>
   <tspan x="18.15em">═</tspan>
   <tspan x="18.70em">═</tspan>
   <tspan x="19.25em">╝</tspan>
   <tspan x="19.80em">╚</tspan>
   <tspan x="20.35em">═</tspan>
   <tspan x="20.90em">═</tspan>
   <tspan x="21.45em">╝</tspan>
  </tspan>
  <tspan y="6.78em">
   <tspan x="11.00em">║</tspan>
   <tspan x="12.65em">║</tspan>
   <tspan x="14.30em">╔</tspan>
   <tspan x="14.85em">═</tspan>
   <tspan x="15.40em">═</tspan>
   <tspan x="15.95em">╗</tspan>
   <tspan x="16.50em">╔</tspan>
   <tspan x="17.05em">═</tspan>
   <tspan x="17.60em">═</tspan>
   <tspan x="18.15em">╗</tspan>
   <tspan x="18.70em">╔</tspan>
   <tspan x="19.25em">═</tspan>
   <tspan x="19.80em">═</tspan>
   <tspan x="20.35em">╗</tspan>
  </tspan>
  <tspan y="7.91em">
   <tspan x="11.00em">╚</tspan>
   <tspan x="11.55em">═</tspan>
   <tspan x="12.10em">═</tspan>
   <tspan x="12.65em">╝</tspan>
   <tspan x="14.30em">║</tspan>
   <tspan x="14.85em" fill="#06b6d4">D</tspan>
   <tspan x="15.40em" fill="#06b6d4">1</tspan>
   <tspan x="15.95em">║</tspan>
   <tspan x="16.50em">║</tspan>
   <tspan x="18.15em">║</tspan>
   <tspan x="18.70em">║</tspan>
   <tspan x="20.35em">║</tspan>
  </tspan>
  <tspan y="9.04em">
   <tspan x="14.30em">╚</tspan>
   <tspan x="14.85em">═</tspan>
   <tspan x="15.40em">═</tspan>
   <tspan x="15.95em">╝</tspan>
   <tspan x="16.50em">╚</tspan>
   <tspan x="17.05em">═</tspan>
   <tspan x="17.60em">═</tspan>
   <tspan x="18.15em">╝</tspan>
   <tspan x="18.70em">╚</tspan>
   <tspan x="19.25em">═</tspan>
   <tspan x="19.80em">═</tspan>
   <tspan x="20.35em">╝</tspan>
  </tspan>
  <tspan y="10.17em" />
  <tspan y="11.30em" />
  <tspan y="12.43em" />
  <tspan y="13.56em" />
  <tspan y="14.69em" />
  <tspan y="15.82em" />
  <tspan y="16.95em" />
  <tspan y="18.08em" />
  <tspan y="19.21em" />
  <tspan y="20.34em" />
  <tspan y="21.47em" />
 </text>
</svg>