<svg xmlns="http://www.w3.org/2000/svg" width="33.00em" height="13.56em">
 <style>svg {
  dominant-baseline: hanging;
  font-size: 1rem;
}
</style>
 <g shape-rendering="crispEdges">
  <rect x="0.00em" y="0.00em" width="33.00em" height="13.56em" fill="#000000" />
  <rect x="0.00em" y="0.00em" width="33.00em" height="1.13em" fill="#000000" />
  <rect x="0.00em" y="1.13em" width="33.00em" height="1.13em" fill="#000000" />
  <rect x="0.00em" y="2.26em" width="33.00em" height="1.13em" fill="#000000" />
  <rect x="0.00em" y="3.39em" width="33.00em" height="1.13em" fill="#000000" />
  <rect x="0.00em" y="4.52em" width="33.00em" height="1.13em" fill="#000000" />
  <rect x="0.00em" y="5.65em" width="33.00em" height="1.13em" fill="#000000" />
  <rect x="0.00em" y="6.78em" width="33.00em" height="1.13em" fill="#000000" />
  <rect x="0.00em" y="7.91em" width="33.00em" height="1.13em" fill="#000000" />
  <rect x="0.00em" y="9.04em" width="33.00em" height="1.13em" fill="#000000" />
  <rect x="0.00em" y="10.17em" width="33.00em" height="1.13em" fill="#000000" />
  <rect x="0.00em" y="11.30em" width="33.00em" height="1.13em" fill="#000000" />
  <rect x="0.00em" y="12.43em" width="33.00em" height="1.13em" fill="#000000" />
 </g>
 <text fill="#ffffff" font-family="monospace">
  <tspan y="0.00em">
   <tspan x="0.00em">┌</tspan>
   <tspan x="0.55em">─</tspan>
   <tspan x="1.10em">─</tspan>
   <tspan x="1.65em">─</tspan>
   <tspan x="2.20em">─</tspan>
   <tspan x="2.75em">─</tspan>
   <tspan x="3.30em">─</tspan>
   <tspan x="3.85em">─</tspan>
   <tspan x="4.40em">─</tspan>
   <tspan x="4.95em">─</tspan>
   <tspan x="5.50em">─</tspan>
   <tspan x="6.05em">─</tspan>
   <tspan x="6.60em">─</tspan>
   <tspan x="7.15em">─</tspan>
   <tspan x="7.70em">─</tspan>
   <tspan x="8.25em">─</tspan>
   <tspan x="8.80em">─</tspan>
   <tspan x="9.35em">─</tspan>
   <tspan x="9.90em">─</tspan>
   <tspan x="10.45em">─</tspan>
   <tspan x="11.00em">─</tspan>
   <tspan x="11.55em">─</tspan>
   <tspan x="12.10em">─</tspan>
   <tspan x="12.65em">─</tspan>
   <tspan x="13.20em">─</tspan>
   <tspan x="13.75em">─</tspan>
   <tspan x="14.30em">─</tspan>
   <tspan x="14.85em">─</tspan>
   <tspan x="15.40em">─</tspan>
   <tspan x="15.95em">─</tspan>
   <tspan x="16.50em">─</tspan>
   <tspan x="17.05em">─</tspan>
   <tspan x="17.60em">─</tspan>
   <tspan x="18.15em">─</tspan>
   <tspan x="18.70em">─</tspan>
   <tspan x="19.25em">─</tspan>
   <tspan x="19.80em">─</tspan>
   <tspan x="20.35em">─</tspan>
   <tspan x="20.90em">─</tspan>
   <tspan x="21.45em">─</tspan>
   <tspan x="22.00em">─</tspan>
   <tspan x="22.55em">─</tspan>
   <tspan x="23.10em">─</tspan>
   <tspan x="23.65em">─</tspan>
   <tspan x="24.20em">─</tspan>
   <tspan x="24.75em">─</tspan>
   <tspan x="25.30em">─</tspan>
   <tspan x="25.85em">─</tspan>
   <tspan x="26.40em">─</tspan>
   <tspan x="26.95em">─</tspan>
   <tspan x="27.50em">─</tspan>
   <tspan x="28.05em">─</tspan>
   <tspan x="28.60em">─</tspan>
   <tspan x="29.15em">─</tspan>
   <tspan x="29.70em">─</tspan>
   <tspan x="30.25em">─</tspan>
   <tspan x="30.80em">─</tspan>
   <tspan x="31.35em">─</tspan>
   <tspan x="31.90em">─</tspan>
   <tspan x="32.45em">┐</tspan>
  </tspan>
  <tspan y="1.13em">
   <tspan x="0.00em">│</tspan>
   <tspan x="0.55em">h</tspan>
   <tspan x="1.10em">e</tspan>
   <tspan x="1.65em">a</tspan>
   <tspan x="2.20em">d</tspan>
   <tspan x="2.75em">e</tspan>
   <tspan x="3.30em">r</tspan>
   <tspan x="32.45em">│</tspan>
  </tspan>
  <tspan y="2.26em">
   <tspan x="0.00em">└</tspan>
   <tspan x="0.55em">─</tspan>
   <tspan x="1.10em">─</tspan>
   <tspan x="1.65em">─</tspan>
   <tspan x="2.20em">─</tspan>
   <tspan x="2.75em">─</tspan>
   <tspan x="3.30em">─</tspan>
   <tspan x="3.85em">─</tspan>
   <tspan x="4.40em">─</tspan>
   <tspan x="4.95em">─</tspan>
   <tspan x="5.50em">─</tspan>
   <tspan x="6.05em">─</tspan>
   <tspan x="6.60em">─</tspan>
   <tspan x="7.15em">─</tspan>
   <tspan x="7.70em">─</tspan>
   <tspan x="8.25em">─</tspan>
   <tspan x="8.80em">─</tspan>
   <tspan x="9.35em">─</tspan>
   <tspan x="9.90em">─</tspan>
   <tspan x="10.45em">─</tspan>
   <tspan x="11.00em">─</tspan>
   <tspan x="11.55em">─</tspan>
   <tspan x="12.10em">─</tspan>
   <tspan x="12.65em">─</tspan>
   <tspan x="13.20em">─</tspan>
   <tspan x="13.75em">─</tspan>
   <tspan x="14.30em">─</tspan>
   <tspan x="14.85em">─</tspan>
   <tspan x="15.40em">─</tspan>
   <tspan x="15.95em">─</tspan>
   <tspan x="16.50em">─</tspan>
   <tspan x="17.05em">─</tspan>
   <tspan x="17.60em">─</tspan>
   <tspan x="18.15em">─</tspan>
   <tspan x="18.70em">─</tspan>
   <tspan x="19.25em">─</tspan>
   <tspan x="19.80em">─</tspan>
   <tspan x="20.35em">─</tspan>
   <tspan x="20.90em">─</tspan>
   <tspan x="21.45em">─</tspan>
   <tspan x="22.00em">─</tspan>
   <tspan x="22.55em">─</tspan>
   <tspan x="23.10em">─</tspan>
   <tspan x="23.65em">─</tspan>
   <tspan x="24.20em">─</tspan>
   <tspan x="24.75em">─</tspan>
   <tspan x="25.30em">─</tspan>
   <tspan x="25.85em">─</tspan>
   <tspan x="26.40em">─</tspan>
   <tspan x="26.95em">─</tspan>
   <tspan x="27.50em">─</tspan>
   <tspan x="28.05em">─</tspan>
   <tspan x="28.60em">─</tspan>
   <tspan x="29.15em">─</tspan>
   <tspan x="29.70em">─</tspan>
   <tspan x="30.25em">─</tspan>
   <tspan x="30.80em">─</tspan>
   <tspan x="31.35em">─</tspan>
   <tspan x="31.90em">─</tspan>
   <tspan x="32.45em">┘</tspan>
  </tspan>
  <tspan y="3.39em">
   <tspan x="0.00em">┌</tspan>
   <tspan x="0.55em">─</tspan>
   <tspan x="1.10em">─</tspan>
   <tspan x="1.65em">─</tspan>
   <tspan x="2.20em">─</tspan>
   <tspan x="2.75em">─</tspan>
   <tspan x="3.30em">─</tspan>
   <tspan x="3.85em">─</tspan>
   <tspan x="4.40em">─</tspan>
   <tspan x="4.95em">─</tspan>
   <tspan x="5.50em">─</tspan>
   <tspan x="6.05em">─</tspan>
   <tspan x="6.60em">─</tspan>
   <tspan x="7.15em">─</tspan>
   <tspan x="7.70em">─</tspan>
   <tspan x="8.25em">─</tspan>
   <tspan x="8.80em">─</tspan>
   <tspan x="9.35em">─</tspan>
   <tspan x="9.90em">─</tspan>
   <tspan x="10.45em">─</tspan>
   <tspan x="11.00em">─</tspan>
   <tspan x="11.55em">─</tspan>
   <tspan x="12.10em">─</tspan>
   <tspan x="12.65em">─</tspan>
   <tspan x="13.20em">─</tspan>
   <tspan x="13.75em">─</tspan>
   <tspan x="14.30em">─</tspan>
   <tspan x="14.85em">─</tspan>
   <tspan x="15.40em">─</tspan>
   <tspan x="15.95em">─</tspan>
   <tspan x="16.50em">─</tspan>
   <tspan x="17.05em">─</tspan>
   <tspan x="17.60em">─</tspan>
   <tspan x="18.15em">─</tspan>
   <tspan x="18.70em">─</tspan>
   <tspan x="19.25em">─</tspan>
   <tspan x="19.80em">─</tspan>
   <tspan x="20.35em">─</tspan>
   <tspan x="20.90em">─</tspan>
   <tspan x="21.45em">─</tspan>
   <tspan x="22.00em">─</tspan>
   <tspan x="22.55em">─</tspan>
   <tspan x="23.10em">─</tspan>
   <tspan x="23.65em">─</tspan>
   <tspan x="24.20em">─</tspan>
   <tspan x="24.75em">─</tspan>
   <tspan x="25.30em">─</tspan>
   <tspan x="25.85em">─</tspan>
   <tspan x="26.40em">─</tspan>
   <tspan x="26.95em">─</tspan>
   <tspan x="27.50em">─</tspan>
   <tspan x="28.05em">─</tspan>
   <tspan x="28.60em">─</tspan>
   <tspan x="29.15em">─</tspan>
   <tspan x="29.70em">─</tspan>
   <tspan x="30.25em">─</tspan>
   <tspan x="30.80em">─</tspan>
   <tspan x="31.35em">─</tspan>
   <tspan x="31.90em">─</tspan>
   <tspan x="32.45em">┐</tspan>
  </tspan>
  <tspan y="4.52em">
   <tspan x="0.00em">│</tspan>
   <tspan x="0.55em">T</tspan>
   <tspan x="1.10em">h</tspan>
   <tspan x="1.65em">e</tspan>
   <tspan x="2.75em">a</tspan>
   <tspan x="3.30em">p</tspan>
   <tspan x="3.85em">p</tspan>
   <tspan x="4.40em">'</tspan>
   <tspan x="4.95em">s</tspan>
   <tspan x="6.05em">c</tspan>
   <tspan x="6.60em">╔</tspan>
   <tspan x="7.15em">═</tspan>
   <tspan x="7.70em">═</tspan>
   <tspan x="8.25em">═</tspan>
   <tspan x="8.80em">═</tspan>
   <tspan x="9.35em">═</tspan>
   <tspan x="9.90em">═</tspan>
   <tspan x="10.45em">═</tspan>
   <tspan x="11.00em">═</tspan>
   <tspan x="11.55em">═</tspan>
   <tspan x="12.10em">═</tspan>
   <tspan x="12.65em">═</tspan>
   <tspan x="13.20em">═</tspan>
   <tspan x="13.75em">═</tspan>
   <tspan x="14.30em">═</tspan>
   <tspan x="14.85em">═</tspan>
   <tspan x="15.40em">═</tspan>
   <tspan x="15.95em">═</tspan>
   <tspan x="16.50em">═</tspan>
   <tspan x="17.05em">═</tspan>
   <tspan x="17.60em">═</tspan>
   <tspan x="18.15em">═</tspan>
   <tspan x="18.70em">═</tspan>
   <tspan x="19.25em">═</tspan>
   <tspan x="19.80em">═</tspan>
   <tspan x="20.35em">═</tspan>
   <tspan x="20.90em">═</tspan>
   <tspan x="21.45em">═</tspan>
   <tspan x="22.00em">═</tspan>
   <tspan x="22.55em">═</tspan>
   <tspan x="23.10em">═</tspan>
   <tspan x="23.65em">═</tspan>
   <tspan x="24.20em">═</tspan>
   <tspan x="24.75em">═</tspan>
   <tspan x="25.30em">═</tspan>
   <tspan x="25.85em">╗</tspan>
   <tspan x="26.40em">a</tspan>
   <tspan x="26.95em">l</tspan>
   <tspan x="27.50em">o</tspan>
   <tspan x="28.05em">g</tspan>
   <tspan x="29.15em">d</tspan>
   <tspan x="29.70em">r</tspan>
   <tspan x="30.25em">a</tspan>
   <tspan x="30.80em">w</tspan>
   <tspan x="31.35em">s</tspan>
   <tspan x="32.45em">│</tspan>
  </tspan>
  <tspan y="5.65em">
   <tspan x="0.00em">│</tspan>
   <tspan x="0.55em">o</tspan>
   <tspan x="1.10em">v</tspan>
   <tspan x="1.65em">e</tspan>
   <tspan x="2.20em">r</tspan>
   <tspan x="3.30em">i</tspan>
   <tspan x="3.85em">t</tspan>
   <tspan x="4.40em">.</tspan>
   <tspan x="5.50em">T</tspan>
   <tspan x="6.05em">h</tspan>
   <tspan x="6.60em">║</tspan>
   <tspan x="25.85em">║</tspan>
   <tspan x="26.40em">n</tspan>
   <tspan x="26.95em">d</tspan>
   <tspan x="28.05em">t</tspan>
   <tspan x="28.60em">h</tspan>
   <tspan x="29.15em">e</tspan>
   <tspan x="32.45em">│</tspan>
  </tspan>
  <tspan y="6.78em">
   <tspan x="0.00em">│</tspan>
   <tspan x="0.55em">d</tspan>
   <tspan x="1.10em">i</tspan>
   <tspan x="1.65em">a</tspan>
   <tspan x="2.20em">l</tspan>
   <tspan x="2.75em">o</tspan>
   <tspan x="3.30em">g</tspan>
   <tspan x="4.40em">d</tspan>
   <tspan x="4.95em">r</tspan>
   <tspan x="5.50em">a</tspan>
   <tspan x="6.05em">w</tspan>
   <tspan x="6.60em">║</tspan>
   <tspan x="8.25em">a</tspan>
   <tspan x="9.35em">d</tspan>
   <tspan x="9.90em">i</tspan>
   <tspan x="10.45em">a</tspan>
   <tspan x="11.00em">l</tspan>
   <tspan x="11.55em">o</tspan>
   <tspan x="12.10em">g</tspan>
   <tspan x="13.20em">c</tspan>
   <tspan x="13.75em">e</tspan>
   <tspan x="14.30em">n</tspan>
   <tspan x="14.85em">t</tspan>
   <tspan x="15.40em">e</tspan>
   <tspan x="15.95em">r</tspan>
   <tspan x="16.50em">e</tspan>
   <tspan x="17.05em">d</tspan>
   <tspan x="18.15em">o</tspan>
   <tspan x="18.70em">v</tspan>
   <tspan x="19.25em">e</tspan>
   <tspan x="19.80em">r</tspan>
   <tspan x="20.90em">t</tspan>
   <tspan x="21.45em">h</tspan>
   <tspan x="22.00em">e</tspan>
   <tspan x="23.10em">a</tspan>
   <tspan x="23.65em">p</tspan>
   <tspan x="24.20em">p</tspan>
   <tspan x="25.85em">║</tspan>
   <tspan x="26.40em">h</tspan>
   <tspan x="26.95em">e</tspan>
   <tspan x="27.50em">r</tspan>
   <tspan x="28.05em">e</tspan>
   <tspan x="29.15em">i</tspan>
   <tspan x="29.70em">t</tspan>
   <tspan x="30.80em">i</tspan>
   <tspan x="31.35em">s</tspan>
   <tspan x="31.90em">,</tspan>
   <tspan x="32.45em">│</tspan>
  </tspan>
  <tspan y="7.91em">
   <tspan x="0.00em">│</tspan>
   <tspan x="0.55em">a</tspan>
   <tspan x="1.10em">n</tspan>
   <tspan x="1.65em">d</tspan>
   <tspan x="2.75em">t</tspan>
   <tspan x="3.30em">h</tspan>
   <tspan x="3.85em">e</tspan>
   <tspan x="4.95em">d</tspan>
   <tspan x="5.50em">i</tspan>
   <tspan x="6.05em">a</tspan>
   <tspan x="6.60em">║</tspan>
   <tspan x="25.85em">║</tspan>
   <tspan x="26.95em">s</tspan>
   <tspan x="27.50em">t</tspan>
   <tspan x="28.05em">a</tspan>
   <tspan x="28.60em">y</tspan>
   <tspan x="29.15em">s</tspan>
   <tspan x="32.45em">│</tspan>
  </tspan>
  <tspan y="9.04em">
   <tspan x="0.00em">│</tspan>
   <tspan x="0.55em">w</tspan>
   <tspan x="1.10em">h</tspan>
   <tspan x="1.65em">e</tspan>
   <tspan x="2.20em">r</tspan>
   <tspan x="2.75em">e</tspan>
   <tspan x="3.85em">i</tspan>
   <tspan x="4.40em">t</tspan>
   <tspan x="5.50em">i</tspan>
   <tspan x="6.05em">s</tspan>
   <tspan x="6.60em">╚</tspan>
   <tspan x="7.15em">═</tspan>
   <tspan x="7.70em">═</tspan>
   <tspan x="8.25em">═</tspan>
   <tspan x="8.80em">═</tspan>
   <tspan x="9.35em">═</tspan>
   <tspan x="9.90em">═</tspan>
   <tspan x="10.45em">═</tspan>
   <tspan x="11.00em">═</tspan>
   <tspan x="11.55em">═</tspan>
   <tspan x="12.10em">═</tspan>
   <tspan x="12.65em">═</tspan>
   <tspan x="13.20em">═</tspan>
   <tspan x="13.75em">═</tspan>
   <tspan x="14.30em">═</tspan>
   <tspan x="14.85em">═</tspan>
   <tspan x="15.40em">═</tspan>
   <tspan x="15.95em">═</tspan>
   <tspan x="16.50em">═</tspan>
   <tspan x="17.05em">═</tspan>
   <tspan x="17.60em">═</tspan>
   <tspan x="18.15em">═</tspan>
   <tspan x="18.70em">═</tspan>
   <tspan x="19.25em">═</tspan>
   <tspan x="19.80em">═</tspan>
   <tspan x="20.35em">═</tspan>
   <tspan x="20.90em">═</tspan>
   <tspan x="21.45em">═</tspan>
   <tspan x="22.00em">═</tspan>
   <tspan x="22.55em">═</tspan>
   <tspan x="23.10em">═</tspan>
   <tspan x="23.65em">═</tspan>
   <tspan x="24.20em">═</tspan>
   <tspan x="24.75em">═</tspan>
   <tspan x="25.30em">═</tspan>
   <tspan x="25.85em">╝</tspan>
   <tspan x="32.45em">│</tspan>
  </tspan>
  <tspan y="10.17em">
   <tspan x="0.00em">│</tspan>
   <tspan x="32.45em">│</tspan>
  </tspan>
  <tspan y="11.30em">
   <tspan x="0.00em">│</tspan>
   <tspan x="32.45em">│</tspan>
  </tspan>
  <tspan y="12.43em">
   <tspan x="0.00em">└</tspan>
   <tspan x="0.55em">─</tspan>
   <tspan x="1.10em">─</tspan>
   <tspan x="1.65em">─</tspan>
   <tspan x="2.20em">─</tspan>
   <tspan x="2.75em">─</tspan>
   <tspan x="3.30em">─</tspan>
   <tspan x="3.85em">─</tspan>
   <tspan x="4.40em">─</tspan>
   <tspan x="4.95em">─</tspan>
   <tspan x="5.50em">─</tspan>
   <tspan x="6.05em">─</tspan>
   <tspan x="6.60em">─</tspan>
   <tspan x="7.15em">─</tspan>
   <tspan x="7.70em">─</tspan>
   <tspan x="8.25em">─</tspan>
   <tspan x="8.80em">─</tspan>
   <tspan x="9.35em">─</tspan>
   <tspan x="9.90em">─</tspan>
   <tspan x="10.45em">─</tspan>
   <tspan x="11.00em">─</tspan>
   <tspan x="11.55em">─</tspan>
   <tspan x="12.10em">─</tspan>
   <tspan x="12.65em">─</tspan>
   <tspan x="13.20em">─</tspan>
   <tspan x="13.75em">─</tspan>
   <tspan x="14.30em">─</tspan>
   <tspan x="14.85em">─</tspan>
   <tspan x="15.40em">─</tspan>
   <tspan x="15.95em">─</tspan>
   <tspan x="16.50em">─</tspan>
   <tspan x="17.05em">─</tspan>
   <tspan x="17.60em">─</tspan>
   <tspan x="18.15em">─</tspan>
   <tspan x="18.70em">─</tspan>
   <tspan x="19.25em">─</tspan>
   <tspan x="19.80em">─</tspan>
   <tspan x="20.35em">─</tspan>
   <tspan x="20.90em">─</tspan>
   <tspan x="21.45em">─</tspan>
   <tspan x="22.00em">─</tspan>
   <tspan x="22.55em">─</tspan>
   <tspan x="23.10em">─</tspan>
   <tspan x="23.65em">─</tspan>
   <tspan x="24.20em">─</tspan>
   <tspan x="24.75em">─</tspan>
   <tspan x="25.30em">─</tspan>
   <tspan x="25.85em">─</tspan>
   <tspan x="26.40em">─</tspan>
   <tspan x="26.95em">─</tspan>
   <tspan x="27.50em">─</tspan>
   <tspan x="28.05em">─</tspan>
   <tspan x="28.60em">─</tspan>
   <tspan x="29.15em">─</tspan>
   <tspan x="29.70em">─</tspan>
   <tspan x="30.25em">─</tspan>
   <tspan x="30.80em">─</tspan>
   <tspan x="31.35em">─</tspan>
   <tspan x="31.90em">─</tspan>
   <tspan x="32.45em">┘</tspan>
  </tspan>
 </text>
</svg>