<svg xmlns="http://www.w3.org/2000/svg" width="27.50em" height="10.17em">
 <style>svg {
  dominant-baseline: hanging;
  font-size: 1rem;
}
</style>
 <g shape-rendering="crispEdges">
  <rect x="0.00em" y="0.00em" width="27.50em" height="10.17em" fill="#000000" />
  <rect x="0.00em" y="0.00em" width="27.50em" height="1.13em" fill="#000000" />
  <rect x="0.00em" y="1.13em" width="27.50em" height="1.13em" fill="#000000" />
  <rect x="0.00em" y="2.26em" width="27.50em" height="1.13em" fill="#000000" />
  <rect x="0.00em" y="3.39em" width="27.50em" height="1.13em" fill="#000000" />
  <rect x="0.00em" y="4.52em" width="27.50em" height="1.13em" fill="#000000" />
  <rect x="0.00em" y="5.65em" width="27.50em" height="1.13em" fill="#000000" />
  <rect x="0.00em" y="6.78em" width="27.50em" height="1.13em" fill="#000000" />
  <rect x="0.00em" y="7.91em" width="27.50em" height="1.13em" fill="#000000" />
  <rect x="0.00em" y="9.04em" width="27.50em" height="1.13em" fill="#000000" />
 </g>
 <text fill="#ffffff" font-family="monospace">
  <tspan y="0.00em">
   <tspan x="0.00em">┌</tspan>
   <tspan x="0.55em">─</tspan>
   <tspan x="1.10em">─</tspan>
   <tspan x="1.65em">─</tspan>
   <tspan x="2.20em">─</tspan>
   <tspan x="2.75em">─</tspan>
   <tspan x="3.30em">─</tspan>
   <tspan x="3.85em">─</tspan>
   <tspan x="4.40em">─</tspan>
   <tspan x="4.95em">┐</tspan>
   <tspan x="6.05em">┌</tspan>
   <tspan x="6.60em">─</tspan>
   <tspan x="7.15em">─</tspan>
   <tspan x="7.70em">─</tspan>
   <tspan x="8.25em">─</tspan>
   <tspan x="8.80em">─</tspan>
   <tspan x="9.35em">─</tspan>
   <tspan x="9.90em">─</tspan>
   <tspan x="10.45em">─</tspan>
   <tspan x="11.00em">─</tspan>
   <tspan x="11.55em">┐</tspan>
   <tspan x="12.65em">┌</tspan>
   <tspan x="13.20em">─</tspan>
   <tspan x="13.75em">─</tspan>
   <tspan x="14.30em">─</tspan>
   <tspan x="14.85em">─</tspan>
   <tspan x="15.40em">─</tspan>
   <tspan x="15.95em">─</tspan>
   <tspan x="16.50em">┐</tspan>
   <tspan x="17.60em">┌</tspan>
   <tspan x="18.15em">─</tspan>
   <tspan x="18.70em">─</tspan>
   <tspan x="19.25em">─</tspan>
   <tspan x="19.80em">─</tspan>
   <tspan x="20.35em">─</tspan>
   <tspan x="20.90em">─</tspan>
   <tspan x="21.45em">─</tspan>
   <tspan x="22.00em">─</tspan>
   <tspan x="22.55em">─</tspan>
   <tspan x="23.10em">─</tspan>
   <tspan x="23.65em">┐</tspan>
  </tspan>
  <tspan y="1.13em">
   <tspan x="0.00em">│</tspan>
   <tspan x="1.10em">l</tspan>
   <tspan x="1.65em">a</tspan>
   <tspan x="2.20em">y</tspan>
   <tspan x="2.75em">o</tspan>
   <tspan x="3.30em">u</tspan>
   <tspan x="3.85em">t</tspan>
   <tspan x="4.95em">│</tspan>
   <tspan x="6.05em">│</tspan>
   <tspan x="7.15em">f</tspan>
   <tspan x="7.70em">l</tspan>
   <tspan x="8.25em">e</tspan>
   <tspan x="8.80em">x</tspan>
   <tspan x="9.35em">b</tspan>
   <tspan x="9.90em">o</tspan>
   <tspan x="10.45em">x</tspan>
   <tspan x="11.55em">│</tspan>
   <tspan x="12.65em">│</tspan>
   <tspan x="13.75em">g</tspan>
   <tspan x="14.30em">r</tspan>
   <tspan x="14.85em">i</tspan>
   <tspan x="15.40em">d</tspan>
   <tspan x="16.50em">│</tspan>
   <tspan x="17.60em">│</tspan>
   <tspan x="18.70em">w</tspan>
   <tspan x="19.25em">r</tspan>
   <tspan x="19.80em">a</tspan>
   <tspan x="20.35em">p</tspan>
   <tspan x="20.90em">p</tspan>
   <tspan x="21.45em">i</tspan>
   <tspan x="22.00em">n</tspan>
   <tspan x="22.55em">g</tspan>
   <tspan x="23.65em">│</tspan>
  </tspan>
  <tspan y="2.26em">
   <tspan x="0.00em">└</tspan>
   <tspan x="0.55em">─</tspan>
   <tspan x="1.10em">─</tspan>
   <tspan x="1.65em">─</tspan>
   <tspan x="2.20em">─</tspan>
   <tspan x="2.75em">─</tspan>
   <tspan x="3.30em">─</tspan>
   <tspan x="3.85em">─</tspan>
   <tspan x="4.40em">─</tspan>
   <tspan x="4.95em">┘</tspan>
   <tspan x="6.05em">└</tspan>
   <tspan x="6.60em">─</tspan>
   <tspan x="7.15em">─</tspan>
   <tspan x="7.70em">─</tspan>
   <tspan x="8.25em">─</tspan>
   <tspan x="8.80em">─</tspan>
   <tspan x="9.35em">─</tspan>
   <tspan x="9.90em">─</tspan>
   <tspan x="10.45em">─</tspan>
   <tspan x="11.00em">─</tspan>
   <tspan x="11.55em">┘</tspan>
   <tspan x="12.65em">└</tspan>
   <tspan x="13.20em">─</tspan>
   <tspan x="13.75em">─</tspan>
   <tspan x="14.30em">─</tspan>
   <tspan x="14.85em">─</tspan>
   <tspan x="15.40em">─</tspan>
   <tspan x="15.95em">─</tspan>
   <tspan x="16.50em">┘</tspan>
   <tspan x="17.60em">└</tspan>
   <tspan x="18.15em">─</tspan>
   <tspan x="18.70em">─</tspan>
   <tspan x="19.25em">─</tspan>
   <tspan x="19.80em">─</tspan>
   <tspan x="20.35em">─</tspan>
   <tspan x="20.90em">─</tspan>
   <tspan x="21.45em">─</tspan>
   <tspan x="22.00em">─</tspan>
   <tspan x="22.55em">─</tspan>
   <tspan x="23.10em">─</tspan>
   <tspan x="23.65em">┘</tspan>
  </tspan>
  <tspan y="3.39em">
   <tspan x="0.00em">┌</tspan>
   <tspan x="0.55em">─</tspan>
   <tspan x="1.10em">─</tspan>
   <tspan x="1.65em">─</tspan>
   <tspan x="2.20em">─</tspan>
   <tspan x="2.75em">─</tspan>
   <tspan x="3.30em">─</tspan>
   <tspan x="3.85em">─</tspan>
   <tspan x="4.40em">─</tspan>
   <tspan x="4.95em">─</tspan>
   <tspan x="5.50em">─</tspan>
   <tspan x="6.05em">─</tspan>
   <tspan x="6.60em">┐</tspan>
   <tspan x="7.70em">┌</tspan>
   <tspan x="8.25em">─</tspan>
   <tspan x="8.80em">─</tspan>
   <tspan x="9.35em">─</tspan>
   <tspan x="9.90em">─</tspan>
   <tspan x="10.45em">─</tspan>
   <tspan x="11.00em">─</tspan>
   <tspan x="11.55em">┐</tspan>
   <tspan x="12.65em">┌</tspan>
   <tspan x="13.20em">─</tspan>
   <tspan x="13.75em">─</tspan>
   <tspan x="14.30em">─</tspan>
   <tspan x="14.85em">─</tspan>
   <tspan x="15.40em">─</tspan>
   <tspan x="15.95em">─</tspan>
   <tspan x="16.50em">─</tspan>
   <tspan x="17.05em">─</tspan>
   <tspan x="17.60em">─</tspan>
   <tspan x="18.15em">┐</tspan>
   <tspan x="19.25em">┌</tspan>
   <tspan x="19.80em">─</tspan>
   <tspan x="20.35em">─</tspan>
   <tspan x="20.90em">─</tspan>
   <tspan x="21.45em">┐</tspan>
  </tspan>
  <tspan y="4.52em">
   <tspan x="0.00em">│</tspan>
   <tspan x="1.10em">a</tspan>
   <tspan x="1.65em">l</tspan>
   <tspan x="2.20em">i</tspan>
   <tspan x="2.75em">g</tspan>
   <tspan x="3.30em">n</tspan>
   <tspan x="3.85em">m</tspan>
   <tspan x="4.40em">e</tspan>
   <tspan x="4.95em">n</tspan>
   <tspan x="5.50em">t</tspan>
   <tspan x="6.60em">│</tspan>
   <tspan x="7.70em">│</tspan>
   <tspan x="8.80em">t</tspan>
   <tspan x="9.35em">e</tspan>
   <tspan x="9.90em">x</tspan>
   <tspan x="10.45em">t</tspan>
   <tspan x="11.55em">│</tspan>
   <tspan x="12.65em">│</tspan>
   <tspan x="13.75em">b</tspan>
   <tspan x="14.30em">o</tspan>
   <tspan x="14.85em">r</tspan>
   <tspan x="15.40em">d</tspan>
   <tspan x="15.95em">e</tspan>
   <tspan x="16.50em">r</tspan>
   <tspan x="17.05em">s</tspan>
   <tspan x="18.15em">│</tspan>
   <tspan x="19.25em">│</tspan>
   <tspan x="20.35em">z</tspan>
   <tspan x="21.45em">│</tspan>
  </tspan>
  <tspan y="5.65em">
   <tspan x="0.00em">└</tspan>
   <tspan x="0.55em">─</tspan>
   <tspan x="1.10em">─</tspan>
   <tspan x="1.65em">─</tspan>
   <tspan x="2.20em">─</tspan>
   <tspan x="2.75em">─</tspan>
   <tspan x="3.30em">─</tspan>
   <tspan x="3.85em">─</tspan>
   <tspan x="4.40em">─</tspan>
   <tspan x="4.95em">─</tspan>
   <tspan x="5.50em">─</tspan>
   <tspan x="6.05em">─</tspan>
   <tspan x="6.60em">┘</tspan>
   <tspan x="7.70em">└</tspan>
   <tspan x="8.25em">─</tspan>
   <tspan x="8.80em">─</tspan>
   <tspan x="9.35em">─</tspan>
   <tspan x="9.90em">─</tspan>
   <tspan x="10.45em">─</tspan>
   <tspan x="11.00em">─</tspan>
   <tspan x="11.55em">┘</tspan>
   <tspan x="12.65em">└</tspan>
   <tspan x="13.20em">─</tspan>
   <tspan x="13.75em">─</tspan>
   <tspan x="14.30em">─</tspan>
   <tspan x="14.85em">─</tspan>
   <tspan x="15.40em">─</tspan>
   <tspan x="15.95em">─</tspan>
   <tspan x="16.50em">─</tspan>
   <tspan x="17.05em">─</tspan>
   <tspan x="17.60em">─</tspan>
   <tspan x="18.15em">┘</tspan>
   <tspan x="19.25em">└</tspan>
   <tspan x="19.80em">─</tspan>
   <tspan x="20.35em">─</tspan>
   <tspan x="20.90em">─</tspan>
   <tspan x="21.45em">┘</tspan>
  </tspan>
  <tspan y="6.78em">
   <tspan x="0.00em">┌</tspan>
   <tspan x="0.55em">─</tspan>
   <tspan x="1.10em">─</tspan>
   <tspan x="1.65em">─</tspan>
   <tspan x="2.20em">─</tspan>
   <tspan x="2.75em">─</tspan>
   <tspan x="3.30em">─</tspan>
   <tspan x="3.85em">─</tspan>
   <tspan x="4.40em">─</tspan>
   <tspan x="4.95em">─</tspan>
   <tspan x="5.50em">─</tspan>
   <tspan x="6.05em">─</tspan>
   <tspan x="6.60em">─</tspan>
   <tspan x="7.15em">─</tspan>
   <tspan x="7.70em">┐</tspan>
   <tspan x="8.80em">┌</tspan>
   <tspan x="9.35em">─</tspan>
   <tspan x="9.90em">─</tspan>
   <tspan x="10.45em">─</tspan>
   <tspan x="11.00em">─</tspan>
   <tspan x="11.55em">─</tspan>
   <tspan x="12.10em">┐</tspan>
  </tspan>
  <tspan y="7.91em">
   <tspan x="0.00em">│</tspan>
   <tspan x="1.10em">p</tspan>
   <tspan x="1.65em">o</tspan>
   <tspan x="2.20em">s</tspan>
   <tspan x="2.75em">i</tspan>
   <tspan x="3.30em">t</tspan>
   <tspan x="3.85em">i</tspan>
   <tspan x="4.40em">o</tspan>
   <tspan x="4.95em">n</tspan>
   <tspan x="5.50em">i</tspan>
   <tspan x="6.05em">n</tspan>
   <tspan x="6.60em">g</tspan>
   <tspan x="7.70em">│</tspan>
   <tspan x="8.80em">│</tspan>
   <tspan x="9.90em">g</tspan>
   <tspan x="10.45em">a</tspan>
   <tspan x="11.00em">p</tspan>
   <tspan x="12.10em">│</tspan>
  </tspan>
  <tspan y="9.04em">
   <tspan x="0.00em">└</tspan>
   <tspan x="0.55em">─</tspan>
   <tspan x="1.10em">─</tspan>
   <tspan x="1.65em">─</tspan>
   <tspan x="2.20em">─</tspan>
   <tspan x="2.75em">─</tspan>
   <tspan x="3.30em">─</tspan>
   <tspan x="3.85em">─</tspan>
   <tspan x="4.40em">─</tspan>
   <tspan x="4.95em">─</tspan>
   <tspan x="5.50em">─</tspan>
   <tspan x="6.05em">─</tspan>
   <tspan x="6.60em">─</tspan>
   <tspan x="7.15em">─</tspan>
   <tspan x="7.70em">┘</tspan>
   <tspan x="8.80em">└</tspan>
   <tspan x="9.35em">─</tspan>
   <tspan x="9.90em">─</tspan>
   <tspan x="10.45em">─</tspan>
   <tspan x="11.00em">─</tspan>
   <tspan x="11.55em">─</tspan>
   <tspan x="12.10em">┘</tspan>
  </tspan>
 </text>
</svg>
