<svg xmlns="http://www.w3.org/2000/svg" width="44.00em" height="33.90em">
 <style>svg {
  dominant-baseline: hanging;
  font-size: 1rem;
}
</style>
 <g shape-rendering="crispEdges">
  <rect x="0.00em" y="0.00em" width="44.00em" height="33.90em" fill="#000000" />
  <rect x="0.00em" y="0.00em" width="18.70em" height="1.13em" fill="#dc2626" />
  <rect x="18.70em" y="0.00em" width="18.70em" height="1.13em" fill="#000000" />
  <rect x="37.40em" y="0.00em" width="0.55em" height="1.13em" fill="#dc2626" />
  <rect x="37.95em" y="0.00em" width="6.05em" height="1.13em" fill="#000000" />
  <rect x="0.00em" y="1.13em" width="0.55em" height="1.13em" fill="#dc2626" />
  <rect x="0.55em" y="1.13em" width="17.60em" height="1.13em" fill="#000000" />
  <rect x="18.15em" y="1.13em" width="0.55em" height="1.13em" fill="#dc2626" />
  <rect x="18.70em" y="1.13em" width="18.70em" height="1.13em" fill="#000000" />
  <rect x="37.40em" y="1.13em" width="0.55em" height="1.13em" fill="#dc2626" />
  <rect x="37.95em" y="1.13em" width="6.05em" height="1.13em" fill="#000000" />
  <rect x="0.00em" y="2.26em" width="0.55em" height="1.13em" fill="#dc2626" />
  <rect x="0.55em" y="2.26em" width="17.60em" height="1.13em" fill="#000000" />
  <rect x="18.15em" y="2.26em" width="0.55em" height="1.13em" fill="#dc2626" />
  <rect x="18.70em" y="2.26em" width="18.70em" height="1.13em" fill="#000000" />
  <rect x="37.40em" y="2.26em" width="0.55em" height="1.13em" fill="#dc2626" />
  <rect x="37.95em" y="2.26em" width="6.05em" height="1.13em" fill="#000000" />
  <rect x="0.00em" y="3.39em" width="0.55em" height="1.13em" fill="#dc2626" />
  <rect x="0.55em" y="3.39em" width="17.60em" height="1.13em" fill="#000000" />
  <rect x="18.15em" y="3.39em" width="0.55em" height="1.13em" fill="#dc2626" />
  <rect x="18.70em" y="3.39em" width="18.70em" height="1.13em" fill="#000000" />
  <rect x="37.40em" y="3.39em" width="6.60em" height="1.13em" fill="#dc2626" />
  <rect x="0.00em" y="4.52em" width="0.55em" height="1.13em" fill="#dc2626" />
  <rect x="0.55em" y="4.52em" width="17.60em" height="1.13em" fill="#000000" />
  <rect x="18.15em" y="4.52em" width="0.55em" height="1.13em" fill="#dc2626" />
  <rect x="18.70em" y="4.52em" width="25.30em" height="1.13em" fill="#000000" />
  <rect x="0.00em" y="5.65em" width="0.55em" height="1.13em" fill="#dc2626" />
  <rect x="0.55em" y="5.65em" width="17.60em" height="1.13em" fill="#000000" />
  <rect x="18.15em" y="5.65em" width="19.25em" height="1.13em" fill="#dc2626" />
  <rect x="37.40em" y="5.65em" width="6.60em" height="1.13em" fill="#000000" />
  <rect x="0.00em" y="6.78em" width="19.25em" height="1.13em" fill="#dc2626" />
  <rect x="19.25em" y="6.78em" width="17.60em" height="1.13em" fill="#000000" />
  <rect x="36.85em" y="6.78em" width="0.55em" height="1.13em" fill="#dc2626" />
  <rect x="37.40em" y="6.78em" width="6.60em" height="1.13em" fill="#000000" />
  <rect x="0.00em" y="7.91em" width="18.70em" height="1.13em" fill="#000000" />
  <rect x="18.70em" y="7.91em" width="0.55em" height="1.13em" fill="#dc2626" />
  <rect x="19.25em" y="7.91em" width="17.60em" height="1.13em" fill="#000000" />
  <rect x="36.85em" y="7.91em" width="0.55em" height="1.13em" fill="#dc2626" />
  <rect x="37.40em" y="7.91em" width="6.60em" height="1.13em" fill="#000000" />
  <rect x="0.00em" y="9.04em" width="18.70em" height="1.13em" fill="#000000" />
  <rect x="18.70em" y="9.04em" width="0.55em" height="1.13em" fill="#dc2626" />
  <rect x="19.25em" y="9.04em" width="17.60em" height="1.13em" fill="#000000" />
  <rect x="36.85em" y="9.04em" width="0.55em" height="1.13em" fill="#dc2626" />
  <rect x="37.40em" y="9.04em" width="6.60em" height="1.13em" fill="#000000" />
  <rect x="0.00em" y="10.17em" width="18.70em" height="1.13em" fill="#000000" />
  <rect x="18.70em" y="10.17em" width="0.55em" height="1.13em" fill="#dc2626" />
  <rect x="19.25em" y="10.17em" width="17.60em" height="1.13em" fill="#000000" />
  <rect x="36.85em" y="10.17em" width="0.55em" height="1.13em" fill="#dc2626" />
  <rect x="37.40em" y="10.17em" width="6.60em" height="1.13em" fill="#000000" />
  <rect x="0.00em" y="11.30em" width="18.70em" height="1.13em" fill="#000000" />
  <rect x="18.70em" y="11.30em" width="0.55em" height="1.13em" fill="#dc2626" />
  <rect x="19.25em" y="11.30em" width="17.60em" height="1.13em" fill="#000000" />
  <rect x="36.85em" y="11.30em" width="0.55em" height="1.13em" fill="#dc2626" />
  <rect x="37.40em" y="11.30em" width="6.60em" height="1.13em" fill="#000000" />
  <rect x="0.00em" y="12.43em" width="18.70em" height="1.13em" fill="#000000" />
  <rect x="18.70em" y="12.43em" width="18.70em" height="1.13em" fill="#dc2626" />
  <rect x="37.40em" y="12.43em" width="6.60em" height="1.13em" fill="#000000" />
  <rect x="0.00em" y="13.56em" width="18.70em" height="1.13em" fill="#d97706" />
  <rect x="18.70em" y="13.56em" width="18.70em" height="1.13em" fill="#000000" />
  <rect x="37.40em" y="13.56em" width="6.60em" height="1.13em" fill="#d97706" />
  <rect x="0.00em" y="14.69em" width="0.55em" height="1.13em" fill="#d97706" />
  <rect x="0.55em" y="14.69em" width="17.60em" height="1.13em" fill="#000000" />
  <rect x="18.15em" y="14.69em" width="0.55em" height="1.13em" fill="#d97706" />
  <rect x="18.70em" y="14.69em" width="18.70em" height="1.13em" fill="#000000" />
  <rect x="37.40em" y="14.69em" width="0.55em" height="1.13em" fill="#d97706" />
  <rect x="37.95em" y="14.69em" width="6.05em" height="1.13em" fill="#000000" />
  <rect x="0.00em" y="15.82em" width="0.55em" height="1.13em" fill="#d97706" />
  <rect x="0.55em" y="15.82em" width="17.60em" height="1.13em" fill="#000000" />
  <rect x="18.15em" y="15.82em" width="0.55em" height="1.13em" fill="#d97706" />
  <rect x="18.70em" y="15.82em" width="18.70em" height="1.13em" fill="#000000" />
  <rect x="37.40em" y="15.82em" width="0.55em" height="1.13em" fill="#d97706" />
  <rect x="37.95em" y="15.82em" width="6.05em" height="1.13em" fill="#000000" />
  <rect x="0.00em" y="16.95em" width="0.55em" height="1.13em" fill="#d97706" />
  <rect x="0.55em" y="16.95em" width="17.60em" height="1.13em" fill="#000000" />
  <rect x="18.15em" y="16.95em" width="0.55em" height="1.13em" fill="#d97706" />
  <rect x="18.70em" y="16.95em" width="1.65em" height="1.13em" fill="#000000" />
  <rect x="20.35em" y="16.95em" width="17.60em" height="1.13em" fill="#d97706" />
  <rect x="37.95em" y="16.95em" width="6.05em" height="1.13em" fill="#000000" />
  <rect x="0.00em" y="18.08em" width="0.55em" height="1.13em" fill="#d97706" />
  <rect x="0.55em" y="18.08em" width="17.60em" height="1.13em" fill="#000000" />
  <rect x="18.15em" y="18.08em" width="0.55em" height="1.13em" fill="#d97706" />
  <rect x="18.70em" y="18.08em" width="1.65em" height="1.13em" fill="#000000" />
  <rect x="20.35em" y="18.08em" width="0.55em" height="1.13em" fill="#d97706" />
  <rect x="20.90em" y="18.08em" width="16.50em" height="1.13em" fill="#000000" />
  <rect x="37.40em" y="18.08em" width="0.55em" height="1.13em" fill="#d97706" />
  <rect x="37.95em" y="18.08em" width="6.05em" height="1.13em" fill="#000000" />
  <rect x="0.00em" y="19.21em" width="0.55em" height="1.13em" fill="#d97706" />
  <rect x="0.55em" y="19.21em" width="17.60em" height="1.13em" fill="#000000" />
  <rect x="18.15em" y="19.21em" width="0.55em" height="1.13em" fill="#d97706" />
  <rect x="18.70em" y="19.21em" width="1.65em" height="1.13em" fill="#000000" />
  <rect x="20.35em" y="19.21em" width="0.55em" height="1.13em" fill="#d97706" />
  <rect x="20.90em" y="19.21em" width="16.50em" height="1.13em" fill="#000000" />
  <rect x="37.40em" y="19.21em" width="0.55em" height="1.13em" fill="#d97706" />
  <rect x="37.95em" y="19.21em" width="6.05em" height="1.13em" fill="#000000" />
  <rect x="0.00em" y="20.34em" width="18.70em" height="1.13em" fill="#d97706" />
  <rect x="18.70em" y="20.34em" width="1.65em" height="1.13em" fill="#000000" />
  <rect x="20.35em" y="20.34em" width="0.55em" height="1.13em" fill="#d97706" />
  <rect x="20.90em" y="20.34em" width="16.50em" height="1.13em" fill="#000000" />
  <rect x="37.40em" y="20.34em" width="6.60em" height="1.13em" fill="#6d28d9" />
  <rect x="0.00em" y="21.47em" width="20.35em" height="1.13em" fill="#000000" />
  <rect x="20.35em" y="21.47em" width="0.55em" height="1.13em" fill="#d97706" />
  <rect x="20.90em" y="21.47em" width="16.50em" height="1.13em" fill="#000000" />
  <rect x="37.40em" y="21.47em" width="0.55em" height="1.13em" fill="#6d28d9" />
  <rect x="37.95em" y="21.47em" width="6.05em" height="1.13em" fill="#000000" />
  <rect x="0.00em" y="22.60em" width="20.35em" height="1.13em" fill="#000000" />
  <rect x="20.35em" y="22.60em" width="0.55em" height="1.13em" fill="#d97706" />
  <rect x="20.90em" y="22.60em" width="16.50em" height="1.13em" fill="#000000" />
  <rect x="37.40em" y="22.60em" width="0.55em" height="1.13em" fill="#6d28d9" />
  <rect x="37.95em" y="22.60em" width="6.05em" height="1.13em" fill="#000000" />
  <rect x="0.00em" y="23.73em" width="20.35em" height="1.13em" fill="#000000" />
  <rect x="20.35em" y="23.73em" width="17.05em" height="1.13em" fill="#d97706" />
  <rect x="37.40em" y="23.73em" width="0.55em" height="1.13em" fill="#6d28d9" />
  <rect x="37.95em" y="23.73em" width="6.05em" height="1.13em" fill="#000000" />
  <rect x="0.00em" y="24.86em" width="37.40em" height="1.13em" fill="#000000" />
  <rect x="37.40em" y="24.86em" width="0.55em" height="1.13em" fill="#6d28d9" />
  <rect x="37.95em" y="24.86em" width="6.05em" height="1.13em" fill="#000000" />
  <rect x="0.00em" y="25.99em" width="18.70em" height="1.13em" fill="#6d28d9" />
  <rect x="18.70em" y="25.99em" width="2.75em" height="1.13em" fill="#000000" />
  <rect x="21.45em" y="25.99em" width="16.50em" height="1.13em" fill="#6d28d9" />
  <rect x="37.95em" y="25.99em" width="6.05em" height="1.13em" fill="#000000" />
  <rect x="0.00em" y="27.12em" width="0.55em" height="1.13em" fill="#6d28d9" />
  <rect x="0.55em" y="27.12em" width="17.60em" height="1.13em" fill="#000000" />
  <rect x="18.15em" y="27.12em" width="0.55em" height="1.13em" fill="#6d28d9" />
  <rect x="18.70em" y="27.12em" width="2.75em" height="1.13em" fill="#000000" />
  <rect x="21.45em" y="27.12em" width="0.55em" height="1.13em" fill="#6d28d9" />
  <rect x="22.00em" y="27.12em" width="15.40em" height="1.13em" fill="#000000" />
  <rect x="37.40em" y="27.12em" width="6.60em" height="1.13em" fill="#6d28d9" />
  <rect x="0.00em" y="28.25em" width="0.55em" height="1.13em" fill="#6d28d9" />
  <rect x="0.55em" y="28.25em" width="17.60em" height="1.13em" fill="#000000" />
  <rect x="18.15em" y="28.25em" width="0.55em" height="1.13em" fill="#6d28d9" />
  <rect x="18.70em" y="28.25em" width="2.75em" height="1.13em" fill="#000000" />
  <rect x="21.45em" y="28.25em" width="0.55em" height="1.13em" fill="#6d28d9" />
  <rect x="22.00em" y="28.25em" width="17.60em" height="1.13em" fill="#000000" />
  <rect x="39.60em" y="28.25em" width="0.55em" height="1.13em" fill="#6d28d9" />
  <rect x="40.15em" y="28.25em" width="3.85em" height="1.13em" fill="#000000" />
  <rect x="0.00em" y="29.38em" width="0.55em" height="1.13em" fill="#6d28d9" />
  <rect x="0.55em" y="29.38em" width="17.60em" height="1.13em" fill="#000000" />
  <rect x="18.15em" y="29.38em" width="0.55em" height="1.13em" fill="#6d28d9" />
  <rect x="18.70em" y="29.38em" width="2.75em" height="1.13em" fill="#000000" />
  <rect x="21.45em" y="29.38em" width="0.55em" height="1.13em" fill="#6d28d9" />
  <rect x="22.00em" y="29.38em" width="17.60em" height="1.13em" fill="#000000" />
  <rect x="39.60em" y="29.38em" width="0.55em" height="1.13em" fill="#6d28d9" />
  <rect x="40.15em" y="29.38em" width="3.85em" height="1.13em" fill="#000000" />
  <rect x="0.00em" y="30.51em" width="0.55em" height="1.13em" fill="#6d28d9" />
  <rect x="0.55em" y="30.51em" width="17.60em" height="1.13em" fill="#000000" />
  <rect x="18.15em" y="30.51em" width="0.55em" height="1.13em" fill="#6d28d9" />
  <rect x="18.70em" y="30.51em" width="2.75em" height="1.13em" fill="#000000" />
  <rect x="21.45em" y="30.51em" width="0.55em" height="1.13em" fill="#6d28d9" />
  <rect x="22.00em" y="30.51em" width="17.60em" height="1.13em" fill="#000000" />
  <rect x="39.60em" y="30.51em" width="0.55em" height="1.13em" fill="#6d28d9" />
  <rect x="40.15em" y="30.51em" width="3.85em" height="1.13em" fill="#000000" />
  <rect x="0.00em" y="31.64em" width="0.55em" height="1.13em" fill="#6d28d9" />
  <rect x="0.55em" y="31.64em" width="17.60em" height="1.13em" fill="#000000" />
  <rect x="18.15em" y="31.64em" width="0.55em" height="1.13em" fill="#6d28d9" />
  <rect x="18.70em" y="31.64em" width="2.75em" height="1.13em" fill="#000000" />
  <rect x="21.45em" y="31.64em" width="0.55em" height="1.13em" fill="#6d28d9" />
  <rect x="22.00em" y="31.64em" width="17.60em" height="1.13em" fill="#000000" />
  <rect x="39.60em" y="31.64em" width="0.55em" height="1.13em" fill="#6d28d9" />
  <rect x="40.15em" y="31.64em" width="3.85em" height="1.13em" fill="#000000" />
  <rect x="0.00em" y="32.77em" width="18.70em" height="1.13em" fill="#6d28d9" />
  <rect x="18.70em" y="32.77em" width="2.75em" height="1.13em" fill="#000000" />
  <rect x="21.45em" y="32.77em" width="18.70em" height="1.13em" fill="#6d28d9" />
  <rect x="40.15em" y="32.77em" width="3.85em" height="1.13em" fill="#000000" />
 </g>
 <text fill="#ffffff" font-family="monospace">
  <tspan y="0.00em">
   <tspan x="37.95em">│</tspan>
   <tspan x="39.05em">i</tspan>
   <tspan x="39.60em">n</tspan>
   <tspan x="40.15em">s</tspan>
   <tspan x="40.70em">e</tspan>
   <tspan x="41.25em">t</tspan>
   <tspan x="41.80em">_</tspan>
   <tspan x="42.35em">l</tspan>
   <tspan x="42.90em">e</tspan>
   <tspan x="43.45em">f</tspan>
  </tspan>
  <tspan y="1.13em">
   <tspan x="0.55em">╭</tspan>
   <tspan x="1.10em">─</tspan>
   <tspan x="1.65em">─</tspan>
   <tspan x="2.20em">─</tspan>
   <tspan x="2.75em">─</tspan>
   <tspan x="3.30em">─</tspan>
   <tspan x="3.85em">─</tspan>
   <tspan x="4.40em">─</tspan>
   <tspan x="4.95em">─</tspan>
   <tspan x="5.50em">─</tspan>
   <tspan x="6.05em">─</tspan>
   <tspan x="6.60em">─</tspan>
   <tspan x="7.15em">─</tspan>
   <tspan x="7.70em">─</tspan>
   <tspan x="8.25em">─</tspan>
   <tspan x="8.80em">─</tspan>
   <tspan x="9.35em">─</tspan>
   <tspan x="9.90em">─</tspan>
   <tspan x="10.45em">─</tspan>
   <tspan x="11.00em">─</tspan>
   <tspan x="11.55em">─</tspan>
   <tspan x="12.10em">─</tspan>
   <tspan x="12.65em">─</tspan>
   <tspan x="13.20em">─</tspan>
   <tspan x="13.75em">─</tspan>
   <tspan x="14.30em">─</tspan>
   <tspan x="14.85em">─</tspan>
   <tspan x="15.40em">─</tspan>
   <tspan x="15.95em">─</tspan>
   <tspan x="16.50em">─</tspan>
   <tspan x="17.05em">─</tspan>
   <tspan x="17.60em">╮</tspan>
   <tspan x="37.95em">│</tspan>
  </tspan>
  <tspan y="2.26em">
   <tspan x="0.55em">│</tspan>
   <tspan x="17.60em">│</tspan>
   <tspan x="37.95em">╰</tspan>
   <tspan x="38.50em">─</tspan>
   <tspan x="39.05em">─</tspan>
   <tspan x="39.60em">─</tspan>
   <tspan x="40.15em">─</tspan>
   <tspan x="40.70em">─</tspan>
   <tspan x="41.25em">─</tspan>
   <tspan x="41.80em">─</tspan>
   <tspan x="42.35em">─</tspan>
   <tspan x="42.90em">─</tspan>
   <tspan x="43.45em">─</tspan>
  </tspan>
  <tspan y="3.39em">
   <tspan x="0.55em">│</tspan>
   <tspan x="1.65em">i</tspan>
   <tspan x="2.20em">n</tspan>
   <tspan x="2.75em">s</tspan>
   <tspan x="3.30em">e</tspan>
   <tspan x="3.85em">t</tspan>
   <tspan x="4.40em">_</tspan>
   <tspan x="4.95em">l</tspan>
   <tspan x="5.50em">e</tspan>
   <tspan x="6.05em">f</tspan>
   <tspan x="6.60em">t</tspan>
   <tspan x="7.15em">(</tspan>
   <tspan x="7.70em">0</tspan>
   <tspan x="8.25em">)</tspan>
   <tspan x="9.35em">|</tspan>
   <tspan x="10.45em">i</tspan>
   <tspan x="11.00em">n</tspan>
   <tspan x="11.55em">s</tspan>
   <tspan x="12.10em">e</tspan>
   <tspan x="12.65em">t</tspan>
   <tspan x="13.20em">_</tspan>
   <tspan x="13.75em">t</tspan>
   <tspan x="14.30em">o</tspan>
   <tspan x="14.85em">p</tspan>
   <tspan x="15.40em">(</tspan>
   <tspan x="15.95em">0</tspan>
   <tspan x="16.50em">)</tspan>
   <tspan x="17.60em">│</tspan>
  </tspan>
  <tspan y="4.52em">
   <tspan x="0.55em">│</tspan>
   <tspan x="17.60em">│</tspan>
  </tspan>
  <tspan y="5.65em">
   <tspan x="0.55em">╰</tspan>
   <tspan x="1.10em">─</tspan>
   <tspan x="1.65em">─</tspan>
   <tspan x="2.20em">─</tspan>
   <tspan x="2.75em">─</tspan>
   <tspan x="3.30em">─</tspan>
   <tspan x="3.85em">─</tspan>
   <tspan x="4.40em">─</tspan>
   <tspan x="4.95em">─</tspan>
   <tspan x="5.50em">─</tspan>
   <tspan x="6.05em">─</tspan>
   <tspan x="6.60em">─</tspan>
   <tspan x="7.15em">─</tspan>
   <tspan x="7.70em">─</tspan>
   <tspan x="8.25em">─</tspan>
   <tspan x="8.80em">─</tspan>
   <tspan x="9.35em">─</tspan>
   <tspan x="9.90em">─</tspan>
   <tspan x="10.45em">─</tspan>
   <tspan x="11.00em">─</tspan>
   <tspan x="11.55em">─</tspan>
   <tspan x="12.10em">─</tspan>
   <tspan x="12.65em">─</tspan>
   <tspan x="13.20em">─</tspan>
   <tspan x="13.75em">─</tspan>
   <tspan x="14.30em">─</tspan>
   <tspan x="14.85em">─</tspan>
   <tspan x="15.40em">─</tspan>
   <tspan x="15.95em">─</tspan>
   <tspan x="16.50em">─</tspan>
   <tspan x="17.05em">─</tspan>
   <tspan x="17.60em">╯</tspan>
  </tspan>
  <tspan y="6.78em">
   <tspan x="19.25em">╭</tspan>
   <tspan x="19.80em">─</tspan>
   <tspan x="20.35em">─</tspan>
   <tspan x="20.90em">─</tspan>
   <tspan x="21.45em">─</tspan>
   <tspan x="22.00em">─</tspan>
   <tspan x="22.55em">─</tspan>
   <tspan x="23.10em">─</tspan>
   <tspan x="23.65em">─</tspan>
   <tspan x="24.20em">─</tspan>
   <tspan x="24.75em">─</tspan>
   <tspan x="25.30em">─</tspan>
   <tspan x="25.85em">─</tspan>
   <tspan x="26.40em">─</tspan>
   <tspan x="26.95em">─</tspan>
   <tspan x="27.50em">─</tspan>
   <tspan x="28.05em">─</tspan>
   <tspan x="28.60em">─</tspan>
   <tspan x="29.15em">─</tspan>
   <tspan x="29.70em">─</tspan>
   <tspan x="30.25em">─</tspan>
   <tspan x="30.80em">─</tspan>
   <tspan x="31.35em">─</tspan>
   <tspan x="31.90em">─</tspan>
   <tspan x="32.45em">─</tspan>
   <tspan x="33.00em">─</tspan>
   <tspan x="33.55em">─</tspan>
   <tspan x="34.10em">─</tspan>
   <tspan x="34.65em">─</tspan>
   <tspan x="35.20em">─</tspan>
   <tspan x="35.75em">─</tspan>
   <tspan x="36.30em">╮</tspan>
  </tspan>
  <tspan y="7.91em">
   <tspan x="19.25em">│</tspan>
   <tspan x="36.30em">│</tspan>
  </tspan>
  <tspan y="9.04em">
   <tspan x="19.25em">│</tspan>
   <tspan x="20.35em">i</tspan>
   <tspan x="20.90em">n</tspan>
   <tspan x="21.45em">s</tspan>
   <tspan x="22.00em">e</tspan>
   <tspan x="22.55em">t</tspan>
   <tspan x="23.10em">_</tspan>
   <tspan x="23.65em">l</tspan>
   <tspan x="24.20em">e</tspan>
   <tspan x="24.75em">f</tspan>
   <tspan x="25.30em">t</tspan>
   <tspan x="25.85em">(</tspan>
   <tspan x="26.40em">0</tspan>
   <tspan x="26.95em">)</tspan>
   <tspan x="28.05em">|</tspan>
   <tspan x="29.15em">i</tspan>
   <tspan x="29.70em">n</tspan>
   <tspan x="30.25em">s</tspan>
   <tspan x="30.80em">e</tspan>
   <tspan x="31.35em">t</tspan>
   <tspan x="31.90em">_</tspan>
   <tspan x="32.45em">t</tspan>
   <tspan x="33.00em">o</tspan>
   <tspan x="33.55em">p</tspan>
   <tspan x="34.10em">(</tspan>
   <tspan x="34.65em">5</tspan>
   <tspan x="35.20em">)</tspan>
   <tspan x="36.30em">│</tspan>
  </tspan>
  <tspan y="10.17em">
   <tspan x="19.25em">│</tspan>
   <tspan x="36.30em">│</tspan>
  </tspan>
  <tspan y="11.30em">
   <tspan x="19.25em">╰</tspan>
   <tspan x="19.80em">─</tspan>
   <tspan x="20.35em">─</tspan>
   <tspan x="20.90em">─</tspan>
   <tspan x="21.45em">─</tspan>
   <tspan x="22.00em">─</tspan>
   <tspan x="22.55em">─</tspan>
   <tspan x="23.10em">─</tspan>
   <tspan x="23.65em">─</tspan>
   <tspan x="24.20em">─</tspan>
   <tspan x="24.75em">─</tspan>
   <tspan x="25.30em">─</tspan>
   <tspan x="25.85em">─</tspan>
   <tspan x="26.40em">─</tspan>
   <tspan x="26.95em">─</tspan>
   <tspan x="27.50em">─</tspan>
   <tspan x="28.05em">─</tspan>
   <tspan x="28.60em">─</tspan>
   <tspan x="29.15em">─</tspan>
   <tspan x="29.70em">─</tspan>
   <tspan x="30.25em">─</tspan>
   <tspan x="30.80em">─</tspan>
   <tspan x="31.35em">─</tspan>
   <tspan x="31.90em">─</tspan>
   <tspan x="32.45em">─</tspan>
   <tspan x="33.00em">─</tspan>
   <tspan x="33.55em">─</tspan>
   <tspan x="34.10em">─</tspan>
   <tspan x="34.65em">─</tspan>
   <tspan x="35.20em">─</tspan>
   <tspan x="35.75em">─</tspan>
   <tspan x="36.30em">╯</tspan>
  </tspan>
  <tspan y="12.43em" />
  <tspan y="13.56em" />
  <tspan y="14.69em">
   <tspan x="0.55em">┏</tspan>
   <tspan x="1.10em">━</tspan>
   <tspan x="1.65em">━</tspan>
   <tspan x="2.20em">━</tspan>
   <tspan x="2.75em">━</tspan>
   <tspan x="3.30em">━</tspan>
   <tspan x="3.85em">━</tspan>
   <tspan x="4.40em">━</tspan>
   <tspan x="4.95em">━</tspan>
   <tspan x="5.50em">━</tspan>
   <tspan x="6.05em">━</tspan>
   <tspan x="6.60em">━</tspan>
   <tspan x="7.15em">━</tspan>
   <tspan x="7.70em">━</tspan>
   <tspan x="8.25em">━</tspan>
   <tspan x="8.80em">━</tspan>
   <tspan x="9.35em">━</tspan>
   <tspan x="9.90em">━</tspan>
   <tspan x="10.45em">━</tspan>
   <tspan x="11.00em">━</tspan>
   <tspan x="11.55em">━</tspan>
   <tspan x="12.10em">━</tspan>
   <tspan x="12.65em">━</tspan>
   <tspan x="13.20em">━</tspan>
   <tspan x="13.75em">━</tspan>
   <tspan x="14.30em">━</tspan>
   <tspan x="14.85em">━</tspan>
   <tspan x="15.40em">━</tspan>
   <tspan x="15.95em">━</tspan>
   <tspan x="16.50em">━</tspan>
   <tspan x="17.05em">━</tspan>
   <tspan x="17.60em">┓</tspan>
   <tspan x="37.95em">┏</tspan>
   <tspan x="38.50em">━</tspan>
   <tspan x="39.05em">━</tspan>
   <tspan x="39.60em">━</tspan>
   <tspan x="40.15em">━</tspan>
   <tspan x="40.70em">━</tspan>
   <tspan x="41.25em">━</tspan>
   <tspan x="41.80em">━</tspan>
   <tspan x="42.35em">━</tspan>
   <tspan x="42.90em">━</tspan>
   <tspan x="43.45em">━</tspan>
  </tspan>
  <tspan y="15.82em">
   <tspan x="0.55em">┃</tspan>
   <tspan x="17.60em">┃</tspan>
   <tspan x="37.95em">┃</tspan>
  </tspan>
  <tspan y="16.95em">
   <tspan x="0.55em">┃</tspan>
   <tspan x="1.65em">i</tspan>
   <tspan x="2.20em">n</tspan>
   <tspan x="2.75em">s</tspan>
   <tspan x="3.30em">e</tspan>
   <tspan x="3.85em">t</tspan>
   <tspan x="4.40em">_</tspan>
   <tspan x="4.95em">l</tspan>
   <tspan x="5.50em">e</tspan>
   <tspan x="6.05em">f</tspan>
   <tspan x="6.60em">t</tspan>
   <tspan x="7.15em">(</tspan>
   <tspan x="7.70em">0</tspan>
   <tspan x="8.25em">)</tspan>
   <tspan x="9.35em">|</tspan>
   <tspan x="10.45em">i</tspan>
   <tspan x="11.00em">n</tspan>
   <tspan x="11.55em">s</tspan>
   <tspan x="12.10em">e</tspan>
   <tspan x="12.65em">t</tspan>
   <tspan x="13.20em">_</tspan>
   <tspan x="13.75em">t</tspan>
   <tspan x="14.30em">o</tspan>
   <tspan x="14.85em">p</tspan>
   <tspan x="15.40em">(</tspan>
   <tspan x="15.95em">0</tspan>
   <tspan x="16.50em">)</tspan>
   <tspan x="17.60em">┃</tspan>
   <tspan x="37.95em">┃</tspan>
   <tspan x="39.05em">i</tspan>
   <tspan x="39.60em">n</tspan>
   <tspan x="40.15em">s</tspan>
   <tspan x="40.70em">e</tspan>
   <tspan x="41.25em">t</tspan>
   <tspan x="41.80em">_</tspan>
   <tspan x="42.35em">l</tspan>
   <tspan x="42.90em">e</tspan>
   <tspan x="43.45em">f</tspan>
  </tspan>
  <tspan y="18.08em">
   <tspan x="0.55em">┃</tspan>
   <tspan x="17.60em">┃</tspan>
   <tspan x="20.90em">┏</tspan>
   <tspan x="21.45em">━</tspan>
   <tspan x="22.00em">━</tspan>
   <tspan x="22.55em">━</tspan>
   <tspan x="23.10em">━</tspan>
   <tspan x="23.65em">━</tspan>
   <tspan x="24.20em">━</tspan>
   <tspan x="24.75em">━</tspan>
   <tspan x="25.30em">━</tspan>
   <tspan x="25.85em">━</tspan>
   <tspan x="26.40em">━</tspan>
   <tspan x="26.95em">━</tspan>
   <tspan x="27.50em">━</tspan>
   <tspan x="28.05em">━</tspan>
   <tspan x="28.60em">━</tspan>
   <tspan x="29.15em">━</tspan>
   <tspan x="29.70em">━</tspan>
   <tspan x="30.25em">━</tspan>
   <tspan x="30.80em">━</tspan>
   <tspan x="31.35em">━</tspan>
   <tspan x="31.90em">━</tspan>
   <tspan x="32.45em">━</tspan>
   <tspan x="33.00em">━</tspan>
   <tspan x="33.55em">━</tspan>
   <tspan x="34.10em">━</tspan>
   <tspan x="34.65em">━</tspan>
   <tspan x="35.20em">━</tspan>
   <tspan x="35.75em">━</tspan>
   <tspan x="36.30em">━</tspan>
   <tspan x="36.85em">━</tspan>
   <tspan x="37.95em">┃</tspan>
  </tspan>
  <tspan y="19.21em">
   <tspan x="0.55em">┗</tspan>
   <tspan x="1.10em">━</tspan>
   <tspan x="1.65em">━</tspan>
   <tspan x="2.20em">━</tspan>
   <tspan x="2.75em">━</tspan>
   <tspan x="3.30em">━</tspan>
   <tspan x="3.85em">━</tspan>
   <tspan x="4.40em">━</tspan>
   <tspan x="4.95em">━</tspan>
   <tspan x="5.50em">━</tspan>
   <tspan x="6.05em">━</tspan>
   <tspan x="6.60em">━</tspan>
   <tspan x="7.15em">━</tspan>
   <tspan x="7.70em">━</tspan>
   <tspan x="8.25em">━</tspan>
   <tspan x="8.80em">━</tspan>
   <tspan x="9.35em">━</tspan>
   <tspan x="9.90em">━</tspan>
   <tspan x="10.45em">━</tspan>
   <tspan x="11.00em">━</tspan>
   <tspan x="11.55em">━</tspan>
   <tspan x="12.10em">━</tspan>
   <tspan x="12.65em">━</tspan>
   <tspan x="13.20em">━</tspan>
   <tspan x="13.75em">━</tspan>
   <tspan x="14.30em">━</tspan>
   <tspan x="14.85em">━</tspan>
   <tspan x="15.40em">━</tspan>
   <tspan x="15.95em">━</tspan>
   <tspan x="16.50em">━</tspan>
   <tspan x="17.05em">━</tspan>
   <tspan x="17.60em">┛</tspan>
   <tspan x="20.90em">┃</tspan>
   <tspan x="37.95em">┗</tspan>
   <tspan x="38.50em">━</tspan>
   <tspan x="39.05em">━</tspan>
   <tspan x="39.60em">━</tspan>
   <tspan x="40.15em">━</tspan>
   <tspan x="40.70em">━</tspan>
   <tspan x="41.25em">━</tspan>
   <tspan x="41.80em">━</tspan>
   <tspan x="42.35em">━</tspan>
   <tspan x="42.90em">━</tspan>
   <tspan x="43.45em">━</tspan>
  </tspan>
  <tspan y="20.34em">
   <tspan x="20.90em">┃</tspan>
   <tspan x="22.00em">i</tspan>
   <tspan x="22.55em">n</tspan>
   <tspan x="23.10em">s</tspan>
   <tspan x="23.65em">e</tspan>
   <tspan x="24.20em">t</tspan>
   <tspan x="24.75em">_</tspan>
   <tspan x="25.30em">l</tspan>
   <tspan x="25.85em">e</tspan>
   <tspan x="26.40em">f</tspan>
   <tspan x="26.95em">t</tspan>
   <tspan x="27.50em">(</tspan>
   <tspan x="28.05em">3</tspan>
   <tspan x="28.60em">)</tspan>
   <tspan x="29.70em">|</tspan>
   <tspan x="30.80em">i</tspan>
   <tspan x="31.35em">n</tspan>
   <tspan x="31.90em">s</tspan>
   <tspan x="32.45em">e</tspan>
   <tspan x="33.00em">t</tspan>
   <tspan x="33.55em">_</tspan>
   <tspan x="34.10em">t</tspan>
   <tspan x="34.65em">o</tspan>
   <tspan x="35.20em">p</tspan>
   <tspan x="35.75em">(</tspan>
   <tspan x="36.30em">3</tspan>
   <tspan x="36.85em">)</tspan>
  </tspan>
  <tspan y="21.47em">
   <tspan x="20.90em">┃</tspan>
   <tspan x="37.95em">┌</tspan>
   <tspan x="38.50em">─</tspan>
   <tspan x="39.05em">─</tspan>
   <tspan x="39.60em">─</tspan>
   <tspan x="40.15em">─</tspan>
   <tspan x="40.70em">─</tspan>
   <tspan x="41.25em">─</tspan>
   <tspan x="41.80em">─</tspan>
   <tspan x="42.35em">─</tspan>
   <tspan x="42.90em">─</tspan>
   <tspan x="43.45em">─</tspan>
  </tspan>
  <tspan y="22.60em">
   <tspan x="20.90em">┗</tspan>
   <tspan x="21.45em">━</tspan>
   <tspan x="22.00em">━</tspan>
   <tspan x="22.55em">━</tspan>
   <tspan x="23.10em">━</tspan>
   <tspan x="23.65em">━</tspan>
   <tspan x="24.20em">━</tspan>
   <tspan x="24.75em">━</tspan>
   <tspan x="25.30em">━</tspan>
   <tspan x="25.85em">━</tspan>
   <tspan x="26.40em">━</tspan>
   <tspan x="26.95em">━</tspan>
   <tspan x="27.50em">━</tspan>
   <tspan x="28.05em">━</tspan>
   <tspan x="28.60em">━</tspan>
   <tspan x="29.15em">━</tspan>
   <tspan x="29.70em">━</tspan>
   <tspan x="30.25em">━</tspan>
   <tspan x="30.80em">━</tspan>
   <tspan x="31.35em">━</tspan>
   <tspan x="31.90em">━</tspan>
   <tspan x="32.45em">━</tspan>
   <tspan x="33.00em">━</tspan>
   <tspan x="33.55em">━</tspan>
   <tspan x="34.10em">━</tspan>
   <tspan x="34.65em">━</tspan>
   <tspan x="35.20em">━</tspan>
   <tspan x="35.75em">━</tspan>
   <tspan x="36.30em">━</tspan>
   <tspan x="36.85em">━</tspan>
   <tspan x="37.95em">│</tspan>
  </tspan>
  <tspan y="23.73em">
   <tspan x="37.95em">│</tspan>
   <tspan x="39.05em">i</tspan>
   <tspan x="39.60em">n</tspan>
   <tspan x="40.15em">s</tspan>
   <tspan x="40.70em">e</tspan>
   <tspan x="41.25em">t</tspan>
   <tspan x="41.80em">_</tspan>
   <tspan x="42.35em">l</tspan>
   <tspan x="42.90em">e</tspan>
   <tspan x="43.45em">f</tspan>
  </tspan>
  <tspan y="24.86em">
   <tspan x="37.95em">│</tspan>
  </tspan>
  <tspan y="25.99em">
   <tspan x="37.95em">└</tspan>
   <tspan x="38.50em">─</tspan>
   <tspan x="39.05em">─</tspan>
   <tspan x="39.60em">─</tspan>
   <tspan x="40.15em">─</tspan>
   <tspan x="40.70em">─</tspan>
   <tspan x="41.25em">─</tspan>
   <tspan x="41.80em">─</tspan>
   <tspan x="42.35em">─</tspan>
   <tspan x="42.90em">─</tspan>
   <tspan x="43.45em">─</tspan>
  </tspan>
  <tspan y="27.12em">
   <tspan x="0.55em">┌</tspan>
   <tspan x="1.10em">─</tspan>
   <tspan x="1.65em">─</tspan>
   <tspan x="2.20em">─</tspan>
   <tspan x="2.75em">─</tspan>
   <tspan x="3.30em">─</tspan>
   <tspan x="3.85em">─</tspan>
   <tspan x="4.40em">─</tspan>
   <tspan x="4.95em">─</tspan>
   <tspan x="5.50em">─</tspan>
   <tspan x="6.05em">─</tspan>
   <tspan x="6.60em">─</tspan>
   <tspan x="7.15em">─</tspan>
   <tspan x="7.70em">─</tspan>
   <tspan x="8.25em">─</tspan>
   <tspan x="8.80em">─</tspan>
   <tspan x="9.35em">─</tspan>
   <tspan x="9.90em">─</tspan>
   <tspan x="10.45em">─</tspan>
   <tspan x="11.00em">─</tspan>
   <tspan x="11.55em">─</tspan>
   <tspan x="12.10em">─</tspan>
   <tspan x="12.65em">─</tspan>
   <tspan x="13.20em">─</tspan>
   <tspan x="13.75em">─</tspan>
   <tspan x="14.30em">─</tspan>
   <tspan x="14.85em">─</tspan>
   <tspan x="15.40em">─</tspan>
   <tspan x="15.95em">─</tspan>
   <tspan x="16.50em">─</tspan>
   <tspan x="17.05em">─</tspan>
   <tspan x="17.60em">┐</tspan>
   <tspan x="22.00em">┌</tspan>
   <tspan x="22.55em">─</tspan>
   <tspan x="23.10em">─</tspan>
   <tspan x="23.65em">─</tspan>
   <tspan x="24.20em">─</tspan>
   <tspan x="24.75em">─</tspan>
   <tspan x="25.30em">─</tspan>
   <tspan x="25.85em">─</tspan>
   <tspan x="26.40em">─</tspan>
   <tspan x="26.95em">─</tspan>
   <tspan x="27.50em">─</tspan>
   <tspan x="28.05em">─</tspan>
   <tspan x="28.60em">─</tspan>
   <tspan x="29.15em">─</tspan>
   <tspan x="29.70em">─</tspan>
   <tspan x="30.25em">─</tspan>
   <tspan x="30.80em">─</tspan>
   <tspan x="31.35em">─</tspan>
   <tspan x="31.90em">─</tspan>
   <tspan x="32.45em">─</tspan>
   <tspan x="33.00em">─</tspan>
   <tspan x="33.55em">─</tspan>
   <tspan x="34.10em">─</tspan>
   <tspan x="34.65em">─</tspan>
   <tspan x="35.20em">─</tspan>
   <tspan x="35.75em">─</tspan>
   <tspan x="36.30em">─</tspan>
   <tspan x="36.85em">─</tspan>
  </tspan>
  <tspan y="28.25em">
   <tspan x="0.55em">│</tspan>
   <tspan x="17.60em">│</tspan>
   <tspan x="22.00em">│</tspan>
   <tspan x="39.05em">│</tspan>
  </tspan>
  <tspan y="29.38em">
   <tspan x="0.55em">│</tspan>
   <tspan x="1.65em">i</tspan>
   <tspan x="2.20em">n</tspan>
   <tspan x="2.75em">s</tspan>
   <tspan x="3.30em">e</tspan>
   <tspan x="3.85em">t</tspan>
   <tspan x="4.40em">_</tspan>
   <tspan x="4.95em">l</tspan>
   <tspan x="5.50em">e</tspan>
   <tspan x="6.05em">f</tspan>
   <tspan x="6.60em">t</tspan>
   <tspan x="7.15em">(</tspan>
   <tspan x="7.70em">0</tspan>
   <tspan x="8.25em">)</tspan>
   <tspan x="9.35em">|</tspan>
   <tspan x="10.45em">i</tspan>
   <tspan x="11.00em">n</tspan>
   <tspan x="11.55em">s</tspan>
   <tspan x="12.10em">e</tspan>
   <tspan x="12.65em">t</tspan>
   <tspan x="13.20em">_</tspan>
   <tspan x="13.75em">t</tspan>
   <tspan x="14.30em">o</tspan>
   <tspan x="14.85em">p</tspan>
   <tspan x="15.40em">(</tspan>
   <tspan x="15.95em">0</tspan>
   <tspan x="16.50em">)</tspan>
   <tspan x="17.60em">│</tspan>
   <tspan x="22.00em">│</tspan>
   <tspan x="23.10em">i</tspan>
   <tspan x="23.65em">n</tspan>
   <tspan x="24.20em">s</tspan>
   <tspan x="24.75em">e</tspan>
   <tspan x="25.30em">t</tspan>
   <tspan x="25.85em">_</tspan>
   <tspan x="26.40em">l</tspan>
   <tspan x="26.95em">e</tspan>
   <tspan x="27.50em">f</tspan>
   <tspan x="28.05em">t</tspan>
   <tspan x="28.60em">(</tspan>
   <tspan x="29.15em">5</tspan>
   <tspan x="29.70em">)</tspan>
   <tspan x="30.80em">|</tspan>
   <tspan x="31.90em">i</tspan>
   <tspan x="32.45em">n</tspan>
   <tspan x="33.00em">s</tspan>
   <tspan x="33.55em">e</tspan>
   <tspan x="34.10em">t</tspan>
   <tspan x="34.65em">_</tspan>
   <tspan x="35.20em">t</tspan>
   <tspan x="35.75em">o</tspan>
   <tspan x="36.30em">p</tspan>
   <tspan x="36.85em">(</tspan>
   <tspan x="37.40em">0</tspan>
   <tspan x="37.95em">)</tspan>
   <tspan x="39.05em">│</tspan>
  </tspan>
  <tspan y="30.51em">
   <tspan x="0.55em">│</tspan>
   <tspan x="17.60em">│</tspan>
   <tspan x="22.00em">│</tspan>
   <tspan x="39.05em">│</tspan>
  </tspan>
  <tspan y="31.64em">
   <tspan x="0.55em">└</tspan>
   <tspan x="1.10em">─</tspan>
   <tspan x="1.65em">─</tspan>
   <tspan x="2.20em">─</tspan>
   <tspan x="2.75em">─</tspan>
   <tspan x="3.30em">─</tspan>
   <tspan x="3.85em">─</tspan>
   <tspan x="4.40em">─</tspan>
   <tspan x="4.95em">─</tspan>
   <tspan x="5.50em">─</tspan>
   <tspan x="6.05em">─</tspan>
   <tspan x="6.60em">─</tspan>
   <tspan x="7.15em">─</tspan>
   <tspan x="7.70em">─</tspan>
   <tspan x="8.25em">─</tspan>
   <tspan x="8.80em">─</tspan>
   <tspan x="9.35em">─</tspan>
   <tspan x="9.90em">─</tspan>
   <tspan x="10.45em">─</tspan>
   <tspan x="11.00em">─</tspan>
   <tspan x="11.55em">─</tspan>
   <tspan x="12.10em">─</tspan>
   <tspan x="12.65em">─</tspan>
   <tspan x="13.20em">─</tspan>
   <tspan x="13.75em">─</tspan>
   <tspan x="14.30em">─</tspan>
   <tspan x="14.85em">─</tspan>
   <tspan x="15.40em">─</tspan>
   <tspan x="15.95em">─</tspan>
   <tspan x="16.50em">─</tspan>
   <tspan x="17.05em">─</tspan>
   <tspan x="17.60em">┘</tspan>
   <tspan x="22.00em">└</tspan>
   <tspan x="22.55em">─</tspan>
   <tspan x="23.10em">─</tspan>
   <tspan x="23.65em">─</tspan>
   <tspan x="24.20em">─</tspan>
   <tspan x="24.75em">─</tspan>
   <tspan x="25.30em">─</tspan>
   <tspan x="25.85em">─</tspan>
   <tspan x="26.40em">─</tspan>
   <tspan x="26.95em">─</tspan>
   <tspan x="27.50em">─</tspan>
   <tspan x="28.05em">─</tspan>
   <tspan x="28.60em">─</tspan>
   <tspan x="29.15em">─</tspan>
   <tspan x="29.70em">─</tspan>
   <tspan x="30.25em">─</tspan>
   <tspan x="30.80em">─</tspan>
   <tspan x="31.35em">─</tspan>
   <tspan x="31.90em">─</tspan>
   <tspan x="32.45em">─</tspan>
   <tspan x="33.00em">─</tspan>
   <tspan x="33.55em">─</tspan>
   <tspan x="34.10em">─</tspan>
   <tspan x="34.65em">─</tspan>
   <tspan x="35.20em">─</tspan>
   <tspan x="35.75em">─</tspan>
   <tspan x="36.30em">─</tspan>
   <tspan x="36.85em">─</tspan>
   <tspan x="37.40em">─</tspan>
   <tspan x="37.95em">─</tspan>
   <tspan x="38.50em">─</tspan>
   <tspan x="39.05em">┘</tspan>
  </tspan>
  <tspan y="32.77em" />
 </text>
</svg>